%TF.GenerationSoftware,KiCad,Pcbnew,9.0.1*%
%TF.CreationDate,2025-04-26T15:50:14-04:00*%
%TF.ProjectId,FISH,46495348-2e6b-4696-9361-645f70636258,rev?*%
%TF.SameCoordinates,Original*%
%TF.FileFunction,Drillmap*%
%TF.FilePolarity,Positive*%
%FSLAX45Y45*%
G04 Gerber Fmt 4.5, Leading zero omitted, Abs format (unit mm)*
G04 Created by KiCad (PCBNEW 9.0.1) date 2025-04-26 15:50:14*
%MOMM*%
%LPD*%
G01*
G04 APERTURE LIST*
%ADD10C,0.000000*%
%ADD11C,0.200000*%
%ADD12C,0.100000*%
%ADD13C,0.110000*%
%ADD14C,0.500000*%
G04 APERTURE END LIST*
D10*
X14019190Y-6950000D02*
X14194549Y-6958588D01*
X14389379Y-6976396D01*
X14491170Y-6989086D01*
X14594317Y-7004477D01*
X14697651Y-7022699D01*
X14800000Y-7043885D01*
X14900194Y-7068167D01*
X14997063Y-7095675D01*
X15089436Y-7126543D01*
X15176142Y-7160901D01*
X15256012Y-7198882D01*
X15327875Y-7240617D01*
X15428695Y-7222479D01*
X15549050Y-7202997D01*
X15683667Y-7184962D01*
X15754677Y-7177359D01*
X15827276Y-7171165D01*
X15900805Y-7166727D01*
X15974605Y-7164395D01*
X16048018Y-7164518D01*
X16120385Y-7167444D01*
X16191046Y-7173523D01*
X16259342Y-7183102D01*
X16324616Y-7196531D01*
X16386208Y-7214160D01*
X16403526Y-7233093D01*
X16425534Y-7260203D01*
X16451960Y-7295608D01*
X16482533Y-7339423D01*
X16516982Y-7391765D01*
X16555035Y-7452750D01*
X16596421Y-7522493D01*
X16640869Y-7601112D01*
X16688108Y-7688723D01*
X16737866Y-7785442D01*
X16789872Y-7891385D01*
X16843855Y-8006669D01*
X16899542Y-8131409D01*
X16956664Y-8265723D01*
X17014949Y-8409726D01*
X17074125Y-8563534D01*
X17105699Y-8724765D01*
X17138204Y-8919069D01*
X17167607Y-9139004D01*
X17179887Y-9256257D01*
X17189880Y-9377128D01*
X17197082Y-9500687D01*
X17200990Y-9626002D01*
X17201100Y-9752144D01*
X17196908Y-9878183D01*
X17187910Y-10003188D01*
X17173602Y-10126229D01*
X17153480Y-10246377D01*
X17127041Y-10362701D01*
X17241991Y-10362586D01*
X17398075Y-10369397D01*
X17589960Y-10383939D01*
X17812313Y-10407018D01*
X18059801Y-10439440D01*
X18327092Y-10482011D01*
X18466497Y-10507354D01*
X18608853Y-10535538D01*
X18753492Y-10566661D01*
X18899750Y-10600826D01*
X18927890Y-10610353D01*
X18958997Y-10622395D01*
X18992479Y-10636943D01*
X19027749Y-10653989D01*
X19064218Y-10673527D01*
X19101296Y-10695548D01*
X19138394Y-10720044D01*
X19174923Y-10747007D01*
X19210295Y-10776431D01*
X19243919Y-10808306D01*
X19259893Y-10825161D01*
X19275208Y-10842626D01*
X19289793Y-10860700D01*
X19303572Y-10879382D01*
X19316473Y-10898671D01*
X19328422Y-10918567D01*
X19339346Y-10939068D01*
X19349170Y-10960173D01*
X19357821Y-10981882D01*
X19365225Y-11004192D01*
X19371309Y-11027105D01*
X19375999Y-11050617D01*
X19372031Y-11780205D01*
X19364837Y-12194112D01*
X19352187Y-12603720D01*
X19332592Y-12981248D01*
X19304562Y-13298913D01*
X19286920Y-13426616D01*
X19266611Y-13528936D01*
X19243450Y-13602399D01*
X19230741Y-13627225D01*
X19217250Y-13643534D01*
X19133402Y-13721668D01*
X19104910Y-13746531D01*
X19072444Y-13773293D01*
X19035525Y-13801838D01*
X18993670Y-13832049D01*
X18946400Y-13863811D01*
X18893234Y-13897007D01*
X18864289Y-13914106D01*
X18833690Y-13931520D01*
X18801377Y-13949234D01*
X18767290Y-13967235D01*
X18731368Y-13985506D01*
X18693551Y-14004035D01*
X18653780Y-14022806D01*
X18611994Y-14041804D01*
X18568133Y-14061015D01*
X18522137Y-14080425D01*
X18473946Y-14100020D01*
X18423500Y-14119783D01*
X18315868Y-14151404D01*
X18156767Y-14190883D01*
X17953761Y-14234497D01*
X17714416Y-14278527D01*
X17583481Y-14299534D01*
X17446298Y-14319250D01*
X17303814Y-14337209D01*
X17156972Y-14352945D01*
X17006721Y-14365994D01*
X16854004Y-14375891D01*
X16699768Y-14382171D01*
X16544958Y-14384367D01*
X16148414Y-14388757D01*
X15584521Y-14385035D01*
X15260282Y-14378429D01*
X14918763Y-14367750D01*
X14568149Y-14352318D01*
X14216625Y-14331450D01*
X14117055Y-14326226D01*
X13992887Y-14316147D01*
X13847966Y-14299661D01*
X13768924Y-14288532D01*
X13686136Y-14275220D01*
X13600082Y-14259530D01*
X13511242Y-14241270D01*
X13420098Y-14220245D01*
X13327129Y-14196262D01*
X13232817Y-14169126D01*
X13137642Y-14138645D01*
X13042084Y-14104623D01*
X12946625Y-14066867D01*
X12898469Y-14039110D01*
X12844150Y-14005796D01*
X12784949Y-13967443D01*
X12722142Y-13924571D01*
X12657011Y-13877699D01*
X12590833Y-13827347D01*
X12524887Y-13774033D01*
X12460453Y-13718278D01*
X12398809Y-13660601D01*
X12341235Y-13601521D01*
X12289010Y-13541557D01*
X12243412Y-13481228D01*
X12223498Y-13451090D01*
X12205720Y-13421055D01*
X12190239Y-13391189D01*
X12177214Y-13361556D01*
X12166806Y-13332222D01*
X12159173Y-13303251D01*
X12154476Y-13274708D01*
X12152875Y-13246659D01*
X12152875Y-11024159D01*
X12153489Y-11013042D01*
X12155304Y-10999716D01*
X12158282Y-10984452D01*
X12162383Y-10967522D01*
X12167570Y-10949196D01*
X12173804Y-10929746D01*
X12181045Y-10909444D01*
X12189255Y-10888560D01*
X12198395Y-10867366D01*
X12208427Y-10846134D01*
X12219311Y-10825134D01*
X12231010Y-10804638D01*
X12243483Y-10784917D01*
X12256693Y-10766242D01*
X12270600Y-10748885D01*
X12285167Y-10733117D01*
X12305947Y-10713590D01*
X12328626Y-10694722D01*
X12353244Y-10676551D01*
X12379838Y-10659117D01*
X12408447Y-10642457D01*
X12439111Y-10626612D01*
X12471867Y-10611620D01*
X12506755Y-10597518D01*
X12543814Y-10584347D01*
X12583081Y-10572145D01*
X12624597Y-10560951D01*
X12668399Y-10550803D01*
X12714527Y-10541740D01*
X12763018Y-10533801D01*
X12813913Y-10527025D01*
X12867250Y-10521451D01*
X12804230Y-10446397D01*
X12744231Y-10369987D01*
X12687366Y-10292104D01*
X12633750Y-10212632D01*
X12583496Y-10131455D01*
X12536718Y-10048456D01*
X12493530Y-9963520D01*
X12454045Y-9876529D01*
X12418378Y-9787368D01*
X12386643Y-9695920D01*
X12358953Y-9602069D01*
X12335422Y-9505699D01*
X12316164Y-9406693D01*
X12301293Y-9304936D01*
X12290922Y-9200310D01*
X12285167Y-9092701D01*
X12283316Y-8968781D01*
X12285911Y-8814062D01*
X12295243Y-8636605D01*
X12303154Y-8541869D01*
X12313609Y-8444472D01*
X12326896Y-8345421D01*
X12343302Y-8245724D01*
X12363114Y-8146389D01*
X12386618Y-8048424D01*
X12414101Y-7952835D01*
X12445849Y-7860631D01*
X12482151Y-7772820D01*
X12523292Y-7690409D01*
X12539444Y-7662724D01*
X12557849Y-7634306D01*
X12601186Y-7575683D01*
X12652845Y-7515362D01*
X12712365Y-7454160D01*
X12779288Y-7392899D01*
X12853155Y-7332399D01*
X12933506Y-7273478D01*
X13019881Y-7216958D01*
X13065185Y-7189854D01*
X13111822Y-7163657D01*
X13159737Y-7138470D01*
X13208870Y-7114396D01*
X13259165Y-7091537D01*
X13310564Y-7069995D01*
X13363010Y-7049872D01*
X13416446Y-7031273D01*
X13470814Y-7014298D01*
X13526057Y-6999050D01*
X13582117Y-6985632D01*
X13638937Y-6974146D01*
X13696459Y-6964695D01*
X13754626Y-6957382D01*
X13813381Y-6952308D01*
X13872667Y-6949576D01*
X14019190Y-6950000D01*
D11*
D12*
X14560000Y-13510000D02*
X14640000Y-13590000D01*
X14640000Y-13510000D02*
X14560000Y-13590000D01*
X15148000Y-10660000D02*
X15228000Y-10740000D01*
X15228000Y-10660000D02*
X15148000Y-10740000D01*
X15322000Y-13510000D02*
X15402000Y-13590000D01*
X15402000Y-13510000D02*
X15322000Y-13590000D01*
X15910000Y-10660000D02*
X15990000Y-10740000D01*
X15990000Y-10660000D02*
X15910000Y-10740000D01*
X15948000Y-11960000D02*
X16028000Y-12040000D01*
X16028000Y-11960000D02*
X15948000Y-12040000D01*
X16710000Y-11960000D02*
X16790000Y-12040000D01*
X16790000Y-11960000D02*
X16710000Y-12040000D01*
X14895000Y-11950000D02*
G75*
G02*
X14805000Y-11950000I-45000J0D01*
G01*
X14805000Y-11950000D02*
G75*
G02*
X14895000Y-11950000I45000J0D01*
G01*
X14895000Y-12204000D02*
G75*
G02*
X14805000Y-12204000I-45000J0D01*
G01*
X14805000Y-12204000D02*
G75*
G02*
X14895000Y-12204000I45000J0D01*
G01*
X16445000Y-13372500D02*
G75*
G02*
X16355000Y-13372500I-45000J0D01*
G01*
X16355000Y-13372500D02*
G75*
G02*
X16445000Y-13372500I45000J0D01*
G01*
X16445000Y-13626500D02*
G75*
G02*
X16355000Y-13626500I-45000J0D01*
G01*
X16355000Y-13626500D02*
G75*
G02*
X16445000Y-13626500I45000J0D01*
G01*
X15950000Y-8746000D02*
X15950000Y-8846000D01*
X15900000Y-8796000D02*
X16000000Y-8796000D01*
X15950000Y-9000000D02*
X15950000Y-9100000D01*
X15900000Y-9050000D02*
X16000000Y-9050000D01*
D13*
X12988891Y-11838891D02*
X12988891Y-11761109D01*
X12911109Y-11761109D01*
X12911109Y-11838891D01*
X12988891Y-11838891D01*
X12988891Y-12288891D02*
X12988891Y-12211109D01*
X12911109Y-12211109D01*
X12911109Y-12288891D01*
X12988891Y-12288891D01*
X12988891Y-12838891D02*
X12988891Y-12761109D01*
X12911109Y-12761109D01*
X12911109Y-12838891D01*
X12988891Y-12838891D01*
X12988891Y-13288891D02*
X12988891Y-13211109D01*
X12911109Y-13211109D01*
X12911109Y-13288891D01*
X12988891Y-13288891D01*
X13638891Y-11838891D02*
X13638891Y-11761109D01*
X13561109Y-11761109D01*
X13561109Y-11838891D01*
X13638891Y-11838891D01*
X13638891Y-12288891D02*
X13638891Y-12211109D01*
X13561109Y-12211109D01*
X13561109Y-12288891D01*
X13638891Y-12288891D01*
X13638891Y-12838891D02*
X13638891Y-12761109D01*
X13561109Y-12761109D01*
X13561109Y-12838891D01*
X13638891Y-12838891D01*
X13638891Y-13288891D02*
X13638891Y-13211109D01*
X13561109Y-13211109D01*
X13561109Y-13288891D01*
X13638891Y-13288891D01*
X17122144Y-10844678D02*
X17122144Y-10766896D01*
X17044362Y-10766896D01*
X17044362Y-10844678D01*
X17122144Y-10844678D01*
X17122144Y-11294678D02*
X17122144Y-11216895D01*
X17044362Y-11216895D01*
X17044362Y-11294678D01*
X17122144Y-11294678D01*
X17772144Y-10844678D02*
X17772144Y-10766896D01*
X17694362Y-10766896D01*
X17694362Y-10844678D01*
X17772144Y-10844678D01*
X17772144Y-11294678D02*
X17772144Y-11216895D01*
X17694362Y-11216895D01*
X17694362Y-11294678D01*
X17772144Y-11294678D01*
D14*
X16050000Y-8100000D02*
X16300000Y-7850000D01*
X16050000Y-7600000D01*
X15800000Y-7850000D01*
X16050000Y-8100000D01*
D11*
X12413652Y-14700240D02*
X12413652Y-14500240D01*
X12413652Y-14500240D02*
X12461271Y-14500240D01*
X12461271Y-14500240D02*
X12489842Y-14509764D01*
X12489842Y-14509764D02*
X12508890Y-14528812D01*
X12508890Y-14528812D02*
X12518414Y-14547859D01*
X12518414Y-14547859D02*
X12527937Y-14585955D01*
X12527937Y-14585955D02*
X12527937Y-14614526D01*
X12527937Y-14614526D02*
X12518414Y-14652621D01*
X12518414Y-14652621D02*
X12508890Y-14671669D01*
X12508890Y-14671669D02*
X12489842Y-14690717D01*
X12489842Y-14690717D02*
X12461271Y-14700240D01*
X12461271Y-14700240D02*
X12413652Y-14700240D01*
X12613652Y-14700240D02*
X12613652Y-14566907D01*
X12613652Y-14605002D02*
X12623175Y-14585955D01*
X12623175Y-14585955D02*
X12632699Y-14576431D01*
X12632699Y-14576431D02*
X12651747Y-14566907D01*
X12651747Y-14566907D02*
X12670795Y-14566907D01*
X12737461Y-14700240D02*
X12737461Y-14566907D01*
X12737461Y-14500240D02*
X12727937Y-14509764D01*
X12727937Y-14509764D02*
X12737461Y-14519288D01*
X12737461Y-14519288D02*
X12746985Y-14509764D01*
X12746985Y-14509764D02*
X12737461Y-14500240D01*
X12737461Y-14500240D02*
X12737461Y-14519288D01*
X12861271Y-14700240D02*
X12842223Y-14690717D01*
X12842223Y-14690717D02*
X12832699Y-14671669D01*
X12832699Y-14671669D02*
X12832699Y-14500240D01*
X12966033Y-14700240D02*
X12946985Y-14690717D01*
X12946985Y-14690717D02*
X12937461Y-14671669D01*
X12937461Y-14671669D02*
X12937461Y-14500240D01*
X13194604Y-14700240D02*
X13194604Y-14500240D01*
X13194604Y-14500240D02*
X13261271Y-14643098D01*
X13261271Y-14643098D02*
X13327937Y-14500240D01*
X13327937Y-14500240D02*
X13327937Y-14700240D01*
X13508890Y-14700240D02*
X13508890Y-14595479D01*
X13508890Y-14595479D02*
X13499366Y-14576431D01*
X13499366Y-14576431D02*
X13480318Y-14566907D01*
X13480318Y-14566907D02*
X13442223Y-14566907D01*
X13442223Y-14566907D02*
X13423175Y-14576431D01*
X13508890Y-14690717D02*
X13489842Y-14700240D01*
X13489842Y-14700240D02*
X13442223Y-14700240D01*
X13442223Y-14700240D02*
X13423175Y-14690717D01*
X13423175Y-14690717D02*
X13413652Y-14671669D01*
X13413652Y-14671669D02*
X13413652Y-14652621D01*
X13413652Y-14652621D02*
X13423175Y-14633574D01*
X13423175Y-14633574D02*
X13442223Y-14624050D01*
X13442223Y-14624050D02*
X13489842Y-14624050D01*
X13489842Y-14624050D02*
X13508890Y-14614526D01*
X13604128Y-14566907D02*
X13604128Y-14766907D01*
X13604128Y-14576431D02*
X13623175Y-14566907D01*
X13623175Y-14566907D02*
X13661271Y-14566907D01*
X13661271Y-14566907D02*
X13680318Y-14576431D01*
X13680318Y-14576431D02*
X13689842Y-14585955D01*
X13689842Y-14585955D02*
X13699366Y-14605002D01*
X13699366Y-14605002D02*
X13699366Y-14662145D01*
X13699366Y-14662145D02*
X13689842Y-14681193D01*
X13689842Y-14681193D02*
X13680318Y-14690717D01*
X13680318Y-14690717D02*
X13661271Y-14700240D01*
X13661271Y-14700240D02*
X13623175Y-14700240D01*
X13623175Y-14700240D02*
X13604128Y-14690717D01*
X13785080Y-14681193D02*
X13794604Y-14690717D01*
X13794604Y-14690717D02*
X13785080Y-14700240D01*
X13785080Y-14700240D02*
X13775556Y-14690717D01*
X13775556Y-14690717D02*
X13785080Y-14681193D01*
X13785080Y-14681193D02*
X13785080Y-14700240D01*
X13785080Y-14576431D02*
X13794604Y-14585955D01*
X13794604Y-14585955D02*
X13785080Y-14595479D01*
X13785080Y-14595479D02*
X13775556Y-14585955D01*
X13775556Y-14585955D02*
X13785080Y-14576431D01*
X13785080Y-14576431D02*
X13785080Y-14595479D01*
D12*
X12072875Y-14988757D02*
X12152875Y-15068757D01*
X12152875Y-14988757D02*
X12072875Y-15068757D01*
D11*
X12451747Y-14920240D02*
X12470795Y-14920240D01*
X12470795Y-14920240D02*
X12489842Y-14929764D01*
X12489842Y-14929764D02*
X12499366Y-14939288D01*
X12499366Y-14939288D02*
X12508890Y-14958336D01*
X12508890Y-14958336D02*
X12518414Y-14996431D01*
X12518414Y-14996431D02*
X12518414Y-15044050D01*
X12518414Y-15044050D02*
X12508890Y-15082145D01*
X12508890Y-15082145D02*
X12499366Y-15101193D01*
X12499366Y-15101193D02*
X12489842Y-15110717D01*
X12489842Y-15110717D02*
X12470795Y-15120240D01*
X12470795Y-15120240D02*
X12451747Y-15120240D01*
X12451747Y-15120240D02*
X12432699Y-15110717D01*
X12432699Y-15110717D02*
X12423175Y-15101193D01*
X12423175Y-15101193D02*
X12413652Y-15082145D01*
X12413652Y-15082145D02*
X12404128Y-15044050D01*
X12404128Y-15044050D02*
X12404128Y-14996431D01*
X12404128Y-14996431D02*
X12413652Y-14958336D01*
X12413652Y-14958336D02*
X12423175Y-14939288D01*
X12423175Y-14939288D02*
X12432699Y-14929764D01*
X12432699Y-14929764D02*
X12451747Y-14920240D01*
X12604128Y-15101193D02*
X12613652Y-15110717D01*
X12613652Y-15110717D02*
X12604128Y-15120240D01*
X12604128Y-15120240D02*
X12594604Y-15110717D01*
X12594604Y-15110717D02*
X12604128Y-15101193D01*
X12604128Y-15101193D02*
X12604128Y-15120240D01*
X12727937Y-15005955D02*
X12708890Y-14996431D01*
X12708890Y-14996431D02*
X12699366Y-14986907D01*
X12699366Y-14986907D02*
X12689842Y-14967859D01*
X12689842Y-14967859D02*
X12689842Y-14958336D01*
X12689842Y-14958336D02*
X12699366Y-14939288D01*
X12699366Y-14939288D02*
X12708890Y-14929764D01*
X12708890Y-14929764D02*
X12727937Y-14920240D01*
X12727937Y-14920240D02*
X12766033Y-14920240D01*
X12766033Y-14920240D02*
X12785080Y-14929764D01*
X12785080Y-14929764D02*
X12794604Y-14939288D01*
X12794604Y-14939288D02*
X12804128Y-14958336D01*
X12804128Y-14958336D02*
X12804128Y-14967859D01*
X12804128Y-14967859D02*
X12794604Y-14986907D01*
X12794604Y-14986907D02*
X12785080Y-14996431D01*
X12785080Y-14996431D02*
X12766033Y-15005955D01*
X12766033Y-15005955D02*
X12727937Y-15005955D01*
X12727937Y-15005955D02*
X12708890Y-15015479D01*
X12708890Y-15015479D02*
X12699366Y-15025002D01*
X12699366Y-15025002D02*
X12689842Y-15044050D01*
X12689842Y-15044050D02*
X12689842Y-15082145D01*
X12689842Y-15082145D02*
X12699366Y-15101193D01*
X12699366Y-15101193D02*
X12708890Y-15110717D01*
X12708890Y-15110717D02*
X12727937Y-15120240D01*
X12727937Y-15120240D02*
X12766033Y-15120240D01*
X12766033Y-15120240D02*
X12785080Y-15110717D01*
X12785080Y-15110717D02*
X12794604Y-15101193D01*
X12794604Y-15101193D02*
X12804128Y-15082145D01*
X12804128Y-15082145D02*
X12804128Y-15044050D01*
X12804128Y-15044050D02*
X12794604Y-15025002D01*
X12794604Y-15025002D02*
X12785080Y-15015479D01*
X12785080Y-15015479D02*
X12766033Y-15005955D01*
X12927937Y-14920240D02*
X12946985Y-14920240D01*
X12946985Y-14920240D02*
X12966033Y-14929764D01*
X12966033Y-14929764D02*
X12975556Y-14939288D01*
X12975556Y-14939288D02*
X12985080Y-14958336D01*
X12985080Y-14958336D02*
X12994604Y-14996431D01*
X12994604Y-14996431D02*
X12994604Y-15044050D01*
X12994604Y-15044050D02*
X12985080Y-15082145D01*
X12985080Y-15082145D02*
X12975556Y-15101193D01*
X12975556Y-15101193D02*
X12966033Y-15110717D01*
X12966033Y-15110717D02*
X12946985Y-15120240D01*
X12946985Y-15120240D02*
X12927937Y-15120240D01*
X12927937Y-15120240D02*
X12908890Y-15110717D01*
X12908890Y-15110717D02*
X12899366Y-15101193D01*
X12899366Y-15101193D02*
X12889842Y-15082145D01*
X12889842Y-15082145D02*
X12880318Y-15044050D01*
X12880318Y-15044050D02*
X12880318Y-14996431D01*
X12880318Y-14996431D02*
X12889842Y-14958336D01*
X12889842Y-14958336D02*
X12899366Y-14939288D01*
X12899366Y-14939288D02*
X12908890Y-14929764D01*
X12908890Y-14929764D02*
X12927937Y-14920240D01*
X13118414Y-14920240D02*
X13137461Y-14920240D01*
X13137461Y-14920240D02*
X13156509Y-14929764D01*
X13156509Y-14929764D02*
X13166033Y-14939288D01*
X13166033Y-14939288D02*
X13175556Y-14958336D01*
X13175556Y-14958336D02*
X13185080Y-14996431D01*
X13185080Y-14996431D02*
X13185080Y-15044050D01*
X13185080Y-15044050D02*
X13175556Y-15082145D01*
X13175556Y-15082145D02*
X13166033Y-15101193D01*
X13166033Y-15101193D02*
X13156509Y-15110717D01*
X13156509Y-15110717D02*
X13137461Y-15120240D01*
X13137461Y-15120240D02*
X13118414Y-15120240D01*
X13118414Y-15120240D02*
X13099366Y-15110717D01*
X13099366Y-15110717D02*
X13089842Y-15101193D01*
X13089842Y-15101193D02*
X13080318Y-15082145D01*
X13080318Y-15082145D02*
X13070795Y-15044050D01*
X13070795Y-15044050D02*
X13070795Y-14996431D01*
X13070795Y-14996431D02*
X13080318Y-14958336D01*
X13080318Y-14958336D02*
X13089842Y-14939288D01*
X13089842Y-14939288D02*
X13099366Y-14929764D01*
X13099366Y-14929764D02*
X13118414Y-14920240D01*
X13270795Y-15120240D02*
X13270795Y-14986907D01*
X13270795Y-15005955D02*
X13280318Y-14996431D01*
X13280318Y-14996431D02*
X13299366Y-14986907D01*
X13299366Y-14986907D02*
X13327937Y-14986907D01*
X13327937Y-14986907D02*
X13346985Y-14996431D01*
X13346985Y-14996431D02*
X13356509Y-15015479D01*
X13356509Y-15015479D02*
X13356509Y-15120240D01*
X13356509Y-15015479D02*
X13366033Y-14996431D01*
X13366033Y-14996431D02*
X13385080Y-14986907D01*
X13385080Y-14986907D02*
X13413652Y-14986907D01*
X13413652Y-14986907D02*
X13432699Y-14996431D01*
X13432699Y-14996431D02*
X13442223Y-15015479D01*
X13442223Y-15015479D02*
X13442223Y-15120240D01*
X13537461Y-15120240D02*
X13537461Y-14986907D01*
X13537461Y-15005955D02*
X13546985Y-14996431D01*
X13546985Y-14996431D02*
X13566033Y-14986907D01*
X13566033Y-14986907D02*
X13594604Y-14986907D01*
X13594604Y-14986907D02*
X13613652Y-14996431D01*
X13613652Y-14996431D02*
X13623176Y-15015479D01*
X13623176Y-15015479D02*
X13623176Y-15120240D01*
X13623176Y-15015479D02*
X13632699Y-14996431D01*
X13632699Y-14996431D02*
X13651747Y-14986907D01*
X13651747Y-14986907D02*
X13680318Y-14986907D01*
X13680318Y-14986907D02*
X13699366Y-14996431D01*
X13699366Y-14996431D02*
X13708890Y-15015479D01*
X13708890Y-15015479D02*
X13708890Y-15120240D01*
X14099366Y-14910717D02*
X13927938Y-15167859D01*
X14356509Y-14920240D02*
X14375557Y-14920240D01*
X14375557Y-14920240D02*
X14394604Y-14929764D01*
X14394604Y-14929764D02*
X14404128Y-14939288D01*
X14404128Y-14939288D02*
X14413652Y-14958336D01*
X14413652Y-14958336D02*
X14423176Y-14996431D01*
X14423176Y-14996431D02*
X14423176Y-15044050D01*
X14423176Y-15044050D02*
X14413652Y-15082145D01*
X14413652Y-15082145D02*
X14404128Y-15101193D01*
X14404128Y-15101193D02*
X14394604Y-15110717D01*
X14394604Y-15110717D02*
X14375557Y-15120240D01*
X14375557Y-15120240D02*
X14356509Y-15120240D01*
X14356509Y-15120240D02*
X14337461Y-15110717D01*
X14337461Y-15110717D02*
X14327938Y-15101193D01*
X14327938Y-15101193D02*
X14318414Y-15082145D01*
X14318414Y-15082145D02*
X14308890Y-15044050D01*
X14308890Y-15044050D02*
X14308890Y-14996431D01*
X14308890Y-14996431D02*
X14318414Y-14958336D01*
X14318414Y-14958336D02*
X14327938Y-14939288D01*
X14327938Y-14939288D02*
X14337461Y-14929764D01*
X14337461Y-14929764D02*
X14356509Y-14920240D01*
X14508890Y-15101193D02*
X14518414Y-15110717D01*
X14518414Y-15110717D02*
X14508890Y-15120240D01*
X14508890Y-15120240D02*
X14499366Y-15110717D01*
X14499366Y-15110717D02*
X14508890Y-15101193D01*
X14508890Y-15101193D02*
X14508890Y-15120240D01*
X14642223Y-14920240D02*
X14661271Y-14920240D01*
X14661271Y-14920240D02*
X14680319Y-14929764D01*
X14680319Y-14929764D02*
X14689842Y-14939288D01*
X14689842Y-14939288D02*
X14699366Y-14958336D01*
X14699366Y-14958336D02*
X14708890Y-14996431D01*
X14708890Y-14996431D02*
X14708890Y-15044050D01*
X14708890Y-15044050D02*
X14699366Y-15082145D01*
X14699366Y-15082145D02*
X14689842Y-15101193D01*
X14689842Y-15101193D02*
X14680319Y-15110717D01*
X14680319Y-15110717D02*
X14661271Y-15120240D01*
X14661271Y-15120240D02*
X14642223Y-15120240D01*
X14642223Y-15120240D02*
X14623176Y-15110717D01*
X14623176Y-15110717D02*
X14613652Y-15101193D01*
X14613652Y-15101193D02*
X14604128Y-15082145D01*
X14604128Y-15082145D02*
X14594604Y-15044050D01*
X14594604Y-15044050D02*
X14594604Y-14996431D01*
X14594604Y-14996431D02*
X14604128Y-14958336D01*
X14604128Y-14958336D02*
X14613652Y-14939288D01*
X14613652Y-14939288D02*
X14623176Y-14929764D01*
X14623176Y-14929764D02*
X14642223Y-14920240D01*
X14775557Y-14920240D02*
X14899366Y-14920240D01*
X14899366Y-14920240D02*
X14832699Y-14996431D01*
X14832699Y-14996431D02*
X14861271Y-14996431D01*
X14861271Y-14996431D02*
X14880319Y-15005955D01*
X14880319Y-15005955D02*
X14889842Y-15015479D01*
X14889842Y-15015479D02*
X14899366Y-15034526D01*
X14899366Y-15034526D02*
X14899366Y-15082145D01*
X14899366Y-15082145D02*
X14889842Y-15101193D01*
X14889842Y-15101193D02*
X14880319Y-15110717D01*
X14880319Y-15110717D02*
X14861271Y-15120240D01*
X14861271Y-15120240D02*
X14804128Y-15120240D01*
X14804128Y-15120240D02*
X14785080Y-15110717D01*
X14785080Y-15110717D02*
X14775557Y-15101193D01*
X15089842Y-15120240D02*
X14975557Y-15120240D01*
X15032699Y-15120240D02*
X15032699Y-14920240D01*
X15032699Y-14920240D02*
X15013652Y-14948812D01*
X15013652Y-14948812D02*
X14994604Y-14967859D01*
X14994604Y-14967859D02*
X14975557Y-14977383D01*
X15270795Y-14920240D02*
X15175557Y-14920240D01*
X15175557Y-14920240D02*
X15166033Y-15015479D01*
X15166033Y-15015479D02*
X15175557Y-15005955D01*
X15175557Y-15005955D02*
X15194604Y-14996431D01*
X15194604Y-14996431D02*
X15242223Y-14996431D01*
X15242223Y-14996431D02*
X15261271Y-15005955D01*
X15261271Y-15005955D02*
X15270795Y-15015479D01*
X15270795Y-15015479D02*
X15280319Y-15034526D01*
X15280319Y-15034526D02*
X15280319Y-15082145D01*
X15280319Y-15082145D02*
X15270795Y-15101193D01*
X15270795Y-15101193D02*
X15261271Y-15110717D01*
X15261271Y-15110717D02*
X15242223Y-15120240D01*
X15242223Y-15120240D02*
X15194604Y-15120240D01*
X15194604Y-15120240D02*
X15175557Y-15110717D01*
X15175557Y-15110717D02*
X15166033Y-15101193D01*
X15356509Y-14920240D02*
X15356509Y-14958336D01*
X15432700Y-14920240D02*
X15432700Y-14958336D01*
X15727938Y-15196431D02*
X15718414Y-15186907D01*
X15718414Y-15186907D02*
X15699366Y-15158336D01*
X15699366Y-15158336D02*
X15689842Y-15139288D01*
X15689842Y-15139288D02*
X15680319Y-15110717D01*
X15680319Y-15110717D02*
X15670795Y-15063098D01*
X15670795Y-15063098D02*
X15670795Y-15025002D01*
X15670795Y-15025002D02*
X15680319Y-14977383D01*
X15680319Y-14977383D02*
X15689842Y-14948812D01*
X15689842Y-14948812D02*
X15699366Y-14929764D01*
X15699366Y-14929764D02*
X15718414Y-14901193D01*
X15718414Y-14901193D02*
X15727938Y-14891669D01*
X15889842Y-14920240D02*
X15851747Y-14920240D01*
X15851747Y-14920240D02*
X15832700Y-14929764D01*
X15832700Y-14929764D02*
X15823176Y-14939288D01*
X15823176Y-14939288D02*
X15804128Y-14967859D01*
X15804128Y-14967859D02*
X15794604Y-15005955D01*
X15794604Y-15005955D02*
X15794604Y-15082145D01*
X15794604Y-15082145D02*
X15804128Y-15101193D01*
X15804128Y-15101193D02*
X15813652Y-15110717D01*
X15813652Y-15110717D02*
X15832700Y-15120240D01*
X15832700Y-15120240D02*
X15870795Y-15120240D01*
X15870795Y-15120240D02*
X15889842Y-15110717D01*
X15889842Y-15110717D02*
X15899366Y-15101193D01*
X15899366Y-15101193D02*
X15908890Y-15082145D01*
X15908890Y-15082145D02*
X15908890Y-15034526D01*
X15908890Y-15034526D02*
X15899366Y-15015479D01*
X15899366Y-15015479D02*
X15889842Y-15005955D01*
X15889842Y-15005955D02*
X15870795Y-14996431D01*
X15870795Y-14996431D02*
X15832700Y-14996431D01*
X15832700Y-14996431D02*
X15813652Y-15005955D01*
X15813652Y-15005955D02*
X15804128Y-15015479D01*
X15804128Y-15015479D02*
X15794604Y-15034526D01*
X16146985Y-15120240D02*
X16146985Y-14920240D01*
X16232700Y-15120240D02*
X16232700Y-15015479D01*
X16232700Y-15015479D02*
X16223176Y-14996431D01*
X16223176Y-14996431D02*
X16204128Y-14986907D01*
X16204128Y-14986907D02*
X16175557Y-14986907D01*
X16175557Y-14986907D02*
X16156509Y-14996431D01*
X16156509Y-14996431D02*
X16146985Y-15005955D01*
X16356509Y-15120240D02*
X16337462Y-15110717D01*
X16337462Y-15110717D02*
X16327938Y-15101193D01*
X16327938Y-15101193D02*
X16318414Y-15082145D01*
X16318414Y-15082145D02*
X16318414Y-15025002D01*
X16318414Y-15025002D02*
X16327938Y-15005955D01*
X16327938Y-15005955D02*
X16337462Y-14996431D01*
X16337462Y-14996431D02*
X16356509Y-14986907D01*
X16356509Y-14986907D02*
X16385081Y-14986907D01*
X16385081Y-14986907D02*
X16404128Y-14996431D01*
X16404128Y-14996431D02*
X16413652Y-15005955D01*
X16413652Y-15005955D02*
X16423176Y-15025002D01*
X16423176Y-15025002D02*
X16423176Y-15082145D01*
X16423176Y-15082145D02*
X16413652Y-15101193D01*
X16413652Y-15101193D02*
X16404128Y-15110717D01*
X16404128Y-15110717D02*
X16385081Y-15120240D01*
X16385081Y-15120240D02*
X16356509Y-15120240D01*
X16537462Y-15120240D02*
X16518414Y-15110717D01*
X16518414Y-15110717D02*
X16508890Y-15091669D01*
X16508890Y-15091669D02*
X16508890Y-14920240D01*
X16689843Y-15110717D02*
X16670795Y-15120240D01*
X16670795Y-15120240D02*
X16632700Y-15120240D01*
X16632700Y-15120240D02*
X16613652Y-15110717D01*
X16613652Y-15110717D02*
X16604128Y-15091669D01*
X16604128Y-15091669D02*
X16604128Y-15015479D01*
X16604128Y-15015479D02*
X16613652Y-14996431D01*
X16613652Y-14996431D02*
X16632700Y-14986907D01*
X16632700Y-14986907D02*
X16670795Y-14986907D01*
X16670795Y-14986907D02*
X16689843Y-14996431D01*
X16689843Y-14996431D02*
X16699366Y-15015479D01*
X16699366Y-15015479D02*
X16699366Y-15034526D01*
X16699366Y-15034526D02*
X16604128Y-15053574D01*
X16775557Y-15110717D02*
X16794605Y-15120240D01*
X16794605Y-15120240D02*
X16832700Y-15120240D01*
X16832700Y-15120240D02*
X16851747Y-15110717D01*
X16851747Y-15110717D02*
X16861271Y-15091669D01*
X16861271Y-15091669D02*
X16861271Y-15082145D01*
X16861271Y-15082145D02*
X16851747Y-15063098D01*
X16851747Y-15063098D02*
X16832700Y-15053574D01*
X16832700Y-15053574D02*
X16804128Y-15053574D01*
X16804128Y-15053574D02*
X16785081Y-15044050D01*
X16785081Y-15044050D02*
X16775557Y-15025002D01*
X16775557Y-15025002D02*
X16775557Y-15015479D01*
X16775557Y-15015479D02*
X16785081Y-14996431D01*
X16785081Y-14996431D02*
X16804128Y-14986907D01*
X16804128Y-14986907D02*
X16832700Y-14986907D01*
X16832700Y-14986907D02*
X16851747Y-14996431D01*
X16927938Y-15196431D02*
X16937462Y-15186907D01*
X16937462Y-15186907D02*
X16956509Y-15158336D01*
X16956509Y-15158336D02*
X16966033Y-15139288D01*
X16966033Y-15139288D02*
X16975557Y-15110717D01*
X16975557Y-15110717D02*
X16985081Y-15063098D01*
X16985081Y-15063098D02*
X16985081Y-15025002D01*
X16985081Y-15025002D02*
X16975557Y-14977383D01*
X16975557Y-14977383D02*
X16966033Y-14948812D01*
X16966033Y-14948812D02*
X16956509Y-14929764D01*
X16956509Y-14929764D02*
X16937462Y-14901193D01*
X16937462Y-14901193D02*
X16927938Y-14891669D01*
D12*
X12152875Y-15292757D02*
G75*
G02*
X12062875Y-15292757I-45000J0D01*
G01*
X12062875Y-15292757D02*
G75*
G02*
X12152875Y-15292757I45000J0D01*
G01*
D11*
X12451747Y-15184240D02*
X12470795Y-15184240D01*
X12470795Y-15184240D02*
X12489842Y-15193764D01*
X12489842Y-15193764D02*
X12499366Y-15203288D01*
X12499366Y-15203288D02*
X12508890Y-15222336D01*
X12508890Y-15222336D02*
X12518414Y-15260431D01*
X12518414Y-15260431D02*
X12518414Y-15308050D01*
X12518414Y-15308050D02*
X12508890Y-15346145D01*
X12508890Y-15346145D02*
X12499366Y-15365193D01*
X12499366Y-15365193D02*
X12489842Y-15374717D01*
X12489842Y-15374717D02*
X12470795Y-15384240D01*
X12470795Y-15384240D02*
X12451747Y-15384240D01*
X12451747Y-15384240D02*
X12432699Y-15374717D01*
X12432699Y-15374717D02*
X12423175Y-15365193D01*
X12423175Y-15365193D02*
X12413652Y-15346145D01*
X12413652Y-15346145D02*
X12404128Y-15308050D01*
X12404128Y-15308050D02*
X12404128Y-15260431D01*
X12404128Y-15260431D02*
X12413652Y-15222336D01*
X12413652Y-15222336D02*
X12423175Y-15203288D01*
X12423175Y-15203288D02*
X12432699Y-15193764D01*
X12432699Y-15193764D02*
X12451747Y-15184240D01*
X12604128Y-15365193D02*
X12613652Y-15374717D01*
X12613652Y-15374717D02*
X12604128Y-15384240D01*
X12604128Y-15384240D02*
X12594604Y-15374717D01*
X12594604Y-15374717D02*
X12604128Y-15365193D01*
X12604128Y-15365193D02*
X12604128Y-15384240D01*
X12708890Y-15384240D02*
X12746985Y-15384240D01*
X12746985Y-15384240D02*
X12766033Y-15374717D01*
X12766033Y-15374717D02*
X12775556Y-15365193D01*
X12775556Y-15365193D02*
X12794604Y-15336621D01*
X12794604Y-15336621D02*
X12804128Y-15298526D01*
X12804128Y-15298526D02*
X12804128Y-15222336D01*
X12804128Y-15222336D02*
X12794604Y-15203288D01*
X12794604Y-15203288D02*
X12785080Y-15193764D01*
X12785080Y-15193764D02*
X12766033Y-15184240D01*
X12766033Y-15184240D02*
X12727937Y-15184240D01*
X12727937Y-15184240D02*
X12708890Y-15193764D01*
X12708890Y-15193764D02*
X12699366Y-15203288D01*
X12699366Y-15203288D02*
X12689842Y-15222336D01*
X12689842Y-15222336D02*
X12689842Y-15269955D01*
X12689842Y-15269955D02*
X12699366Y-15289002D01*
X12699366Y-15289002D02*
X12708890Y-15298526D01*
X12708890Y-15298526D02*
X12727937Y-15308050D01*
X12727937Y-15308050D02*
X12766033Y-15308050D01*
X12766033Y-15308050D02*
X12785080Y-15298526D01*
X12785080Y-15298526D02*
X12794604Y-15289002D01*
X12794604Y-15289002D02*
X12804128Y-15269955D01*
X12927937Y-15184240D02*
X12946985Y-15184240D01*
X12946985Y-15184240D02*
X12966033Y-15193764D01*
X12966033Y-15193764D02*
X12975556Y-15203288D01*
X12975556Y-15203288D02*
X12985080Y-15222336D01*
X12985080Y-15222336D02*
X12994604Y-15260431D01*
X12994604Y-15260431D02*
X12994604Y-15308050D01*
X12994604Y-15308050D02*
X12985080Y-15346145D01*
X12985080Y-15346145D02*
X12975556Y-15365193D01*
X12975556Y-15365193D02*
X12966033Y-15374717D01*
X12966033Y-15374717D02*
X12946985Y-15384240D01*
X12946985Y-15384240D02*
X12927937Y-15384240D01*
X12927937Y-15384240D02*
X12908890Y-15374717D01*
X12908890Y-15374717D02*
X12899366Y-15365193D01*
X12899366Y-15365193D02*
X12889842Y-15346145D01*
X12889842Y-15346145D02*
X12880318Y-15308050D01*
X12880318Y-15308050D02*
X12880318Y-15260431D01*
X12880318Y-15260431D02*
X12889842Y-15222336D01*
X12889842Y-15222336D02*
X12899366Y-15203288D01*
X12899366Y-15203288D02*
X12908890Y-15193764D01*
X12908890Y-15193764D02*
X12927937Y-15184240D01*
X13118414Y-15184240D02*
X13137461Y-15184240D01*
X13137461Y-15184240D02*
X13156509Y-15193764D01*
X13156509Y-15193764D02*
X13166033Y-15203288D01*
X13166033Y-15203288D02*
X13175556Y-15222336D01*
X13175556Y-15222336D02*
X13185080Y-15260431D01*
X13185080Y-15260431D02*
X13185080Y-15308050D01*
X13185080Y-15308050D02*
X13175556Y-15346145D01*
X13175556Y-15346145D02*
X13166033Y-15365193D01*
X13166033Y-15365193D02*
X13156509Y-15374717D01*
X13156509Y-15374717D02*
X13137461Y-15384240D01*
X13137461Y-15384240D02*
X13118414Y-15384240D01*
X13118414Y-15384240D02*
X13099366Y-15374717D01*
X13099366Y-15374717D02*
X13089842Y-15365193D01*
X13089842Y-15365193D02*
X13080318Y-15346145D01*
X13080318Y-15346145D02*
X13070795Y-15308050D01*
X13070795Y-15308050D02*
X13070795Y-15260431D01*
X13070795Y-15260431D02*
X13080318Y-15222336D01*
X13080318Y-15222336D02*
X13089842Y-15203288D01*
X13089842Y-15203288D02*
X13099366Y-15193764D01*
X13099366Y-15193764D02*
X13118414Y-15184240D01*
X13270795Y-15384240D02*
X13270795Y-15250907D01*
X13270795Y-15269955D02*
X13280318Y-15260431D01*
X13280318Y-15260431D02*
X13299366Y-15250907D01*
X13299366Y-15250907D02*
X13327937Y-15250907D01*
X13327937Y-15250907D02*
X13346985Y-15260431D01*
X13346985Y-15260431D02*
X13356509Y-15279479D01*
X13356509Y-15279479D02*
X13356509Y-15384240D01*
X13356509Y-15279479D02*
X13366033Y-15260431D01*
X13366033Y-15260431D02*
X13385080Y-15250907D01*
X13385080Y-15250907D02*
X13413652Y-15250907D01*
X13413652Y-15250907D02*
X13432699Y-15260431D01*
X13432699Y-15260431D02*
X13442223Y-15279479D01*
X13442223Y-15279479D02*
X13442223Y-15384240D01*
X13537461Y-15384240D02*
X13537461Y-15250907D01*
X13537461Y-15269955D02*
X13546985Y-15260431D01*
X13546985Y-15260431D02*
X13566033Y-15250907D01*
X13566033Y-15250907D02*
X13594604Y-15250907D01*
X13594604Y-15250907D02*
X13613652Y-15260431D01*
X13613652Y-15260431D02*
X13623176Y-15279479D01*
X13623176Y-15279479D02*
X13623176Y-15384240D01*
X13623176Y-15279479D02*
X13632699Y-15260431D01*
X13632699Y-15260431D02*
X13651747Y-15250907D01*
X13651747Y-15250907D02*
X13680318Y-15250907D01*
X13680318Y-15250907D02*
X13699366Y-15260431D01*
X13699366Y-15260431D02*
X13708890Y-15279479D01*
X13708890Y-15279479D02*
X13708890Y-15384240D01*
X14099366Y-15174717D02*
X13927938Y-15431859D01*
X14356509Y-15184240D02*
X14375557Y-15184240D01*
X14375557Y-15184240D02*
X14394604Y-15193764D01*
X14394604Y-15193764D02*
X14404128Y-15203288D01*
X14404128Y-15203288D02*
X14413652Y-15222336D01*
X14413652Y-15222336D02*
X14423176Y-15260431D01*
X14423176Y-15260431D02*
X14423176Y-15308050D01*
X14423176Y-15308050D02*
X14413652Y-15346145D01*
X14413652Y-15346145D02*
X14404128Y-15365193D01*
X14404128Y-15365193D02*
X14394604Y-15374717D01*
X14394604Y-15374717D02*
X14375557Y-15384240D01*
X14375557Y-15384240D02*
X14356509Y-15384240D01*
X14356509Y-15384240D02*
X14337461Y-15374717D01*
X14337461Y-15374717D02*
X14327938Y-15365193D01*
X14327938Y-15365193D02*
X14318414Y-15346145D01*
X14318414Y-15346145D02*
X14308890Y-15308050D01*
X14308890Y-15308050D02*
X14308890Y-15260431D01*
X14308890Y-15260431D02*
X14318414Y-15222336D01*
X14318414Y-15222336D02*
X14327938Y-15203288D01*
X14327938Y-15203288D02*
X14337461Y-15193764D01*
X14337461Y-15193764D02*
X14356509Y-15184240D01*
X14508890Y-15365193D02*
X14518414Y-15374717D01*
X14518414Y-15374717D02*
X14508890Y-15384240D01*
X14508890Y-15384240D02*
X14499366Y-15374717D01*
X14499366Y-15374717D02*
X14508890Y-15365193D01*
X14508890Y-15365193D02*
X14508890Y-15384240D01*
X14642223Y-15184240D02*
X14661271Y-15184240D01*
X14661271Y-15184240D02*
X14680319Y-15193764D01*
X14680319Y-15193764D02*
X14689842Y-15203288D01*
X14689842Y-15203288D02*
X14699366Y-15222336D01*
X14699366Y-15222336D02*
X14708890Y-15260431D01*
X14708890Y-15260431D02*
X14708890Y-15308050D01*
X14708890Y-15308050D02*
X14699366Y-15346145D01*
X14699366Y-15346145D02*
X14689842Y-15365193D01*
X14689842Y-15365193D02*
X14680319Y-15374717D01*
X14680319Y-15374717D02*
X14661271Y-15384240D01*
X14661271Y-15384240D02*
X14642223Y-15384240D01*
X14642223Y-15384240D02*
X14623176Y-15374717D01*
X14623176Y-15374717D02*
X14613652Y-15365193D01*
X14613652Y-15365193D02*
X14604128Y-15346145D01*
X14604128Y-15346145D02*
X14594604Y-15308050D01*
X14594604Y-15308050D02*
X14594604Y-15260431D01*
X14594604Y-15260431D02*
X14604128Y-15222336D01*
X14604128Y-15222336D02*
X14613652Y-15203288D01*
X14613652Y-15203288D02*
X14623176Y-15193764D01*
X14623176Y-15193764D02*
X14642223Y-15184240D01*
X14775557Y-15184240D02*
X14899366Y-15184240D01*
X14899366Y-15184240D02*
X14832699Y-15260431D01*
X14832699Y-15260431D02*
X14861271Y-15260431D01*
X14861271Y-15260431D02*
X14880319Y-15269955D01*
X14880319Y-15269955D02*
X14889842Y-15279479D01*
X14889842Y-15279479D02*
X14899366Y-15298526D01*
X14899366Y-15298526D02*
X14899366Y-15346145D01*
X14899366Y-15346145D02*
X14889842Y-15365193D01*
X14889842Y-15365193D02*
X14880319Y-15374717D01*
X14880319Y-15374717D02*
X14861271Y-15384240D01*
X14861271Y-15384240D02*
X14804128Y-15384240D01*
X14804128Y-15384240D02*
X14785080Y-15374717D01*
X14785080Y-15374717D02*
X14775557Y-15365193D01*
X15080319Y-15184240D02*
X14985080Y-15184240D01*
X14985080Y-15184240D02*
X14975557Y-15279479D01*
X14975557Y-15279479D02*
X14985080Y-15269955D01*
X14985080Y-15269955D02*
X15004128Y-15260431D01*
X15004128Y-15260431D02*
X15051747Y-15260431D01*
X15051747Y-15260431D02*
X15070795Y-15269955D01*
X15070795Y-15269955D02*
X15080319Y-15279479D01*
X15080319Y-15279479D02*
X15089842Y-15298526D01*
X15089842Y-15298526D02*
X15089842Y-15346145D01*
X15089842Y-15346145D02*
X15080319Y-15365193D01*
X15080319Y-15365193D02*
X15070795Y-15374717D01*
X15070795Y-15374717D02*
X15051747Y-15384240D01*
X15051747Y-15384240D02*
X15004128Y-15384240D01*
X15004128Y-15384240D02*
X14985080Y-15374717D01*
X14985080Y-15374717D02*
X14975557Y-15365193D01*
X15261271Y-15250907D02*
X15261271Y-15384240D01*
X15213652Y-15174717D02*
X15166033Y-15317574D01*
X15166033Y-15317574D02*
X15289842Y-15317574D01*
X15356509Y-15184240D02*
X15356509Y-15222336D01*
X15432700Y-15184240D02*
X15432700Y-15222336D01*
X15727938Y-15460431D02*
X15718414Y-15450907D01*
X15718414Y-15450907D02*
X15699366Y-15422336D01*
X15699366Y-15422336D02*
X15689842Y-15403288D01*
X15689842Y-15403288D02*
X15680319Y-15374717D01*
X15680319Y-15374717D02*
X15670795Y-15327098D01*
X15670795Y-15327098D02*
X15670795Y-15289002D01*
X15670795Y-15289002D02*
X15680319Y-15241383D01*
X15680319Y-15241383D02*
X15689842Y-15212812D01*
X15689842Y-15212812D02*
X15699366Y-15193764D01*
X15699366Y-15193764D02*
X15718414Y-15165193D01*
X15718414Y-15165193D02*
X15727938Y-15155669D01*
X15889842Y-15250907D02*
X15889842Y-15384240D01*
X15842223Y-15174717D02*
X15794604Y-15317574D01*
X15794604Y-15317574D02*
X15918414Y-15317574D01*
X16146985Y-15384240D02*
X16146985Y-15184240D01*
X16232700Y-15384240D02*
X16232700Y-15279479D01*
X16232700Y-15279479D02*
X16223176Y-15260431D01*
X16223176Y-15260431D02*
X16204128Y-15250907D01*
X16204128Y-15250907D02*
X16175557Y-15250907D01*
X16175557Y-15250907D02*
X16156509Y-15260431D01*
X16156509Y-15260431D02*
X16146985Y-15269955D01*
X16356509Y-15384240D02*
X16337462Y-15374717D01*
X16337462Y-15374717D02*
X16327938Y-15365193D01*
X16327938Y-15365193D02*
X16318414Y-15346145D01*
X16318414Y-15346145D02*
X16318414Y-15289002D01*
X16318414Y-15289002D02*
X16327938Y-15269955D01*
X16327938Y-15269955D02*
X16337462Y-15260431D01*
X16337462Y-15260431D02*
X16356509Y-15250907D01*
X16356509Y-15250907D02*
X16385081Y-15250907D01*
X16385081Y-15250907D02*
X16404128Y-15260431D01*
X16404128Y-15260431D02*
X16413652Y-15269955D01*
X16413652Y-15269955D02*
X16423176Y-15289002D01*
X16423176Y-15289002D02*
X16423176Y-15346145D01*
X16423176Y-15346145D02*
X16413652Y-15365193D01*
X16413652Y-15365193D02*
X16404128Y-15374717D01*
X16404128Y-15374717D02*
X16385081Y-15384240D01*
X16385081Y-15384240D02*
X16356509Y-15384240D01*
X16537462Y-15384240D02*
X16518414Y-15374717D01*
X16518414Y-15374717D02*
X16508890Y-15355669D01*
X16508890Y-15355669D02*
X16508890Y-15184240D01*
X16689843Y-15374717D02*
X16670795Y-15384240D01*
X16670795Y-15384240D02*
X16632700Y-15384240D01*
X16632700Y-15384240D02*
X16613652Y-15374717D01*
X16613652Y-15374717D02*
X16604128Y-15355669D01*
X16604128Y-15355669D02*
X16604128Y-15279479D01*
X16604128Y-15279479D02*
X16613652Y-15260431D01*
X16613652Y-15260431D02*
X16632700Y-15250907D01*
X16632700Y-15250907D02*
X16670795Y-15250907D01*
X16670795Y-15250907D02*
X16689843Y-15260431D01*
X16689843Y-15260431D02*
X16699366Y-15279479D01*
X16699366Y-15279479D02*
X16699366Y-15298526D01*
X16699366Y-15298526D02*
X16604128Y-15317574D01*
X16775557Y-15374717D02*
X16794605Y-15384240D01*
X16794605Y-15384240D02*
X16832700Y-15384240D01*
X16832700Y-15384240D02*
X16851747Y-15374717D01*
X16851747Y-15374717D02*
X16861271Y-15355669D01*
X16861271Y-15355669D02*
X16861271Y-15346145D01*
X16861271Y-15346145D02*
X16851747Y-15327098D01*
X16851747Y-15327098D02*
X16832700Y-15317574D01*
X16832700Y-15317574D02*
X16804128Y-15317574D01*
X16804128Y-15317574D02*
X16785081Y-15308050D01*
X16785081Y-15308050D02*
X16775557Y-15289002D01*
X16775557Y-15289002D02*
X16775557Y-15279479D01*
X16775557Y-15279479D02*
X16785081Y-15260431D01*
X16785081Y-15260431D02*
X16804128Y-15250907D01*
X16804128Y-15250907D02*
X16832700Y-15250907D01*
X16832700Y-15250907D02*
X16851747Y-15260431D01*
X16927938Y-15460431D02*
X16937462Y-15450907D01*
X16937462Y-15450907D02*
X16956509Y-15422336D01*
X16956509Y-15422336D02*
X16966033Y-15403288D01*
X16966033Y-15403288D02*
X16975557Y-15374717D01*
X16975557Y-15374717D02*
X16985081Y-15327098D01*
X16985081Y-15327098D02*
X16985081Y-15289002D01*
X16985081Y-15289002D02*
X16975557Y-15241383D01*
X16975557Y-15241383D02*
X16966033Y-15212812D01*
X16966033Y-15212812D02*
X16956509Y-15193764D01*
X16956509Y-15193764D02*
X16937462Y-15165193D01*
X16937462Y-15165193D02*
X16927938Y-15155669D01*
D12*
X12102875Y-15506757D02*
X12102875Y-15606757D01*
X12052875Y-15556757D02*
X12152875Y-15556757D01*
D11*
X12518414Y-15648240D02*
X12404128Y-15648240D01*
X12461271Y-15648240D02*
X12461271Y-15448240D01*
X12461271Y-15448240D02*
X12442223Y-15476812D01*
X12442223Y-15476812D02*
X12423175Y-15495859D01*
X12423175Y-15495859D02*
X12404128Y-15505383D01*
X12604128Y-15629193D02*
X12613652Y-15638717D01*
X12613652Y-15638717D02*
X12604128Y-15648240D01*
X12604128Y-15648240D02*
X12594604Y-15638717D01*
X12594604Y-15638717D02*
X12604128Y-15629193D01*
X12604128Y-15629193D02*
X12604128Y-15648240D01*
X12737461Y-15448240D02*
X12756509Y-15448240D01*
X12756509Y-15448240D02*
X12775556Y-15457764D01*
X12775556Y-15457764D02*
X12785080Y-15467288D01*
X12785080Y-15467288D02*
X12794604Y-15486336D01*
X12794604Y-15486336D02*
X12804128Y-15524431D01*
X12804128Y-15524431D02*
X12804128Y-15572050D01*
X12804128Y-15572050D02*
X12794604Y-15610145D01*
X12794604Y-15610145D02*
X12785080Y-15629193D01*
X12785080Y-15629193D02*
X12775556Y-15638717D01*
X12775556Y-15638717D02*
X12756509Y-15648240D01*
X12756509Y-15648240D02*
X12737461Y-15648240D01*
X12737461Y-15648240D02*
X12718414Y-15638717D01*
X12718414Y-15638717D02*
X12708890Y-15629193D01*
X12708890Y-15629193D02*
X12699366Y-15610145D01*
X12699366Y-15610145D02*
X12689842Y-15572050D01*
X12689842Y-15572050D02*
X12689842Y-15524431D01*
X12689842Y-15524431D02*
X12699366Y-15486336D01*
X12699366Y-15486336D02*
X12708890Y-15467288D01*
X12708890Y-15467288D02*
X12718414Y-15457764D01*
X12718414Y-15457764D02*
X12737461Y-15448240D01*
X12927937Y-15448240D02*
X12946985Y-15448240D01*
X12946985Y-15448240D02*
X12966033Y-15457764D01*
X12966033Y-15457764D02*
X12975556Y-15467288D01*
X12975556Y-15467288D02*
X12985080Y-15486336D01*
X12985080Y-15486336D02*
X12994604Y-15524431D01*
X12994604Y-15524431D02*
X12994604Y-15572050D01*
X12994604Y-15572050D02*
X12985080Y-15610145D01*
X12985080Y-15610145D02*
X12975556Y-15629193D01*
X12975556Y-15629193D02*
X12966033Y-15638717D01*
X12966033Y-15638717D02*
X12946985Y-15648240D01*
X12946985Y-15648240D02*
X12927937Y-15648240D01*
X12927937Y-15648240D02*
X12908890Y-15638717D01*
X12908890Y-15638717D02*
X12899366Y-15629193D01*
X12899366Y-15629193D02*
X12889842Y-15610145D01*
X12889842Y-15610145D02*
X12880318Y-15572050D01*
X12880318Y-15572050D02*
X12880318Y-15524431D01*
X12880318Y-15524431D02*
X12889842Y-15486336D01*
X12889842Y-15486336D02*
X12899366Y-15467288D01*
X12899366Y-15467288D02*
X12908890Y-15457764D01*
X12908890Y-15457764D02*
X12927937Y-15448240D01*
X13118414Y-15448240D02*
X13137461Y-15448240D01*
X13137461Y-15448240D02*
X13156509Y-15457764D01*
X13156509Y-15457764D02*
X13166033Y-15467288D01*
X13166033Y-15467288D02*
X13175556Y-15486336D01*
X13175556Y-15486336D02*
X13185080Y-15524431D01*
X13185080Y-15524431D02*
X13185080Y-15572050D01*
X13185080Y-15572050D02*
X13175556Y-15610145D01*
X13175556Y-15610145D02*
X13166033Y-15629193D01*
X13166033Y-15629193D02*
X13156509Y-15638717D01*
X13156509Y-15638717D02*
X13137461Y-15648240D01*
X13137461Y-15648240D02*
X13118414Y-15648240D01*
X13118414Y-15648240D02*
X13099366Y-15638717D01*
X13099366Y-15638717D02*
X13089842Y-15629193D01*
X13089842Y-15629193D02*
X13080318Y-15610145D01*
X13080318Y-15610145D02*
X13070795Y-15572050D01*
X13070795Y-15572050D02*
X13070795Y-15524431D01*
X13070795Y-15524431D02*
X13080318Y-15486336D01*
X13080318Y-15486336D02*
X13089842Y-15467288D01*
X13089842Y-15467288D02*
X13099366Y-15457764D01*
X13099366Y-15457764D02*
X13118414Y-15448240D01*
X13270795Y-15648240D02*
X13270795Y-15514907D01*
X13270795Y-15533955D02*
X13280318Y-15524431D01*
X13280318Y-15524431D02*
X13299366Y-15514907D01*
X13299366Y-15514907D02*
X13327937Y-15514907D01*
X13327937Y-15514907D02*
X13346985Y-15524431D01*
X13346985Y-15524431D02*
X13356509Y-15543479D01*
X13356509Y-15543479D02*
X13356509Y-15648240D01*
X13356509Y-15543479D02*
X13366033Y-15524431D01*
X13366033Y-15524431D02*
X13385080Y-15514907D01*
X13385080Y-15514907D02*
X13413652Y-15514907D01*
X13413652Y-15514907D02*
X13432699Y-15524431D01*
X13432699Y-15524431D02*
X13442223Y-15543479D01*
X13442223Y-15543479D02*
X13442223Y-15648240D01*
X13537461Y-15648240D02*
X13537461Y-15514907D01*
X13537461Y-15533955D02*
X13546985Y-15524431D01*
X13546985Y-15524431D02*
X13566033Y-15514907D01*
X13566033Y-15514907D02*
X13594604Y-15514907D01*
X13594604Y-15514907D02*
X13613652Y-15524431D01*
X13613652Y-15524431D02*
X13623176Y-15543479D01*
X13623176Y-15543479D02*
X13623176Y-15648240D01*
X13623176Y-15543479D02*
X13632699Y-15524431D01*
X13632699Y-15524431D02*
X13651747Y-15514907D01*
X13651747Y-15514907D02*
X13680318Y-15514907D01*
X13680318Y-15514907D02*
X13699366Y-15524431D01*
X13699366Y-15524431D02*
X13708890Y-15543479D01*
X13708890Y-15543479D02*
X13708890Y-15648240D01*
X14099366Y-15438717D02*
X13927938Y-15695859D01*
X14356509Y-15448240D02*
X14375557Y-15448240D01*
X14375557Y-15448240D02*
X14394604Y-15457764D01*
X14394604Y-15457764D02*
X14404128Y-15467288D01*
X14404128Y-15467288D02*
X14413652Y-15486336D01*
X14413652Y-15486336D02*
X14423176Y-15524431D01*
X14423176Y-15524431D02*
X14423176Y-15572050D01*
X14423176Y-15572050D02*
X14413652Y-15610145D01*
X14413652Y-15610145D02*
X14404128Y-15629193D01*
X14404128Y-15629193D02*
X14394604Y-15638717D01*
X14394604Y-15638717D02*
X14375557Y-15648240D01*
X14375557Y-15648240D02*
X14356509Y-15648240D01*
X14356509Y-15648240D02*
X14337461Y-15638717D01*
X14337461Y-15638717D02*
X14327938Y-15629193D01*
X14327938Y-15629193D02*
X14318414Y-15610145D01*
X14318414Y-15610145D02*
X14308890Y-15572050D01*
X14308890Y-15572050D02*
X14308890Y-15524431D01*
X14308890Y-15524431D02*
X14318414Y-15486336D01*
X14318414Y-15486336D02*
X14327938Y-15467288D01*
X14327938Y-15467288D02*
X14337461Y-15457764D01*
X14337461Y-15457764D02*
X14356509Y-15448240D01*
X14508890Y-15629193D02*
X14518414Y-15638717D01*
X14518414Y-15638717D02*
X14508890Y-15648240D01*
X14508890Y-15648240D02*
X14499366Y-15638717D01*
X14499366Y-15638717D02*
X14508890Y-15629193D01*
X14508890Y-15629193D02*
X14508890Y-15648240D01*
X14642223Y-15448240D02*
X14661271Y-15448240D01*
X14661271Y-15448240D02*
X14680319Y-15457764D01*
X14680319Y-15457764D02*
X14689842Y-15467288D01*
X14689842Y-15467288D02*
X14699366Y-15486336D01*
X14699366Y-15486336D02*
X14708890Y-15524431D01*
X14708890Y-15524431D02*
X14708890Y-15572050D01*
X14708890Y-15572050D02*
X14699366Y-15610145D01*
X14699366Y-15610145D02*
X14689842Y-15629193D01*
X14689842Y-15629193D02*
X14680319Y-15638717D01*
X14680319Y-15638717D02*
X14661271Y-15648240D01*
X14661271Y-15648240D02*
X14642223Y-15648240D01*
X14642223Y-15648240D02*
X14623176Y-15638717D01*
X14623176Y-15638717D02*
X14613652Y-15629193D01*
X14613652Y-15629193D02*
X14604128Y-15610145D01*
X14604128Y-15610145D02*
X14594604Y-15572050D01*
X14594604Y-15572050D02*
X14594604Y-15524431D01*
X14594604Y-15524431D02*
X14604128Y-15486336D01*
X14604128Y-15486336D02*
X14613652Y-15467288D01*
X14613652Y-15467288D02*
X14623176Y-15457764D01*
X14623176Y-15457764D02*
X14642223Y-15448240D01*
X14775557Y-15448240D02*
X14899366Y-15448240D01*
X14899366Y-15448240D02*
X14832699Y-15524431D01*
X14832699Y-15524431D02*
X14861271Y-15524431D01*
X14861271Y-15524431D02*
X14880319Y-15533955D01*
X14880319Y-15533955D02*
X14889842Y-15543479D01*
X14889842Y-15543479D02*
X14899366Y-15562526D01*
X14899366Y-15562526D02*
X14899366Y-15610145D01*
X14899366Y-15610145D02*
X14889842Y-15629193D01*
X14889842Y-15629193D02*
X14880319Y-15638717D01*
X14880319Y-15638717D02*
X14861271Y-15648240D01*
X14861271Y-15648240D02*
X14804128Y-15648240D01*
X14804128Y-15648240D02*
X14785080Y-15638717D01*
X14785080Y-15638717D02*
X14775557Y-15629193D01*
X14994604Y-15648240D02*
X15032699Y-15648240D01*
X15032699Y-15648240D02*
X15051747Y-15638717D01*
X15051747Y-15638717D02*
X15061271Y-15629193D01*
X15061271Y-15629193D02*
X15080319Y-15600621D01*
X15080319Y-15600621D02*
X15089842Y-15562526D01*
X15089842Y-15562526D02*
X15089842Y-15486336D01*
X15089842Y-15486336D02*
X15080319Y-15467288D01*
X15080319Y-15467288D02*
X15070795Y-15457764D01*
X15070795Y-15457764D02*
X15051747Y-15448240D01*
X15051747Y-15448240D02*
X15013652Y-15448240D01*
X15013652Y-15448240D02*
X14994604Y-15457764D01*
X14994604Y-15457764D02*
X14985080Y-15467288D01*
X14985080Y-15467288D02*
X14975557Y-15486336D01*
X14975557Y-15486336D02*
X14975557Y-15533955D01*
X14975557Y-15533955D02*
X14985080Y-15553002D01*
X14985080Y-15553002D02*
X14994604Y-15562526D01*
X14994604Y-15562526D02*
X15013652Y-15572050D01*
X15013652Y-15572050D02*
X15051747Y-15572050D01*
X15051747Y-15572050D02*
X15070795Y-15562526D01*
X15070795Y-15562526D02*
X15080319Y-15553002D01*
X15080319Y-15553002D02*
X15089842Y-15533955D01*
X15261271Y-15514907D02*
X15261271Y-15648240D01*
X15213652Y-15438717D02*
X15166033Y-15581574D01*
X15166033Y-15581574D02*
X15289842Y-15581574D01*
X15356509Y-15448240D02*
X15356509Y-15486336D01*
X15432700Y-15448240D02*
X15432700Y-15486336D01*
X15727938Y-15724431D02*
X15718414Y-15714907D01*
X15718414Y-15714907D02*
X15699366Y-15686336D01*
X15699366Y-15686336D02*
X15689842Y-15667288D01*
X15689842Y-15667288D02*
X15680319Y-15638717D01*
X15680319Y-15638717D02*
X15670795Y-15591098D01*
X15670795Y-15591098D02*
X15670795Y-15553002D01*
X15670795Y-15553002D02*
X15680319Y-15505383D01*
X15680319Y-15505383D02*
X15689842Y-15476812D01*
X15689842Y-15476812D02*
X15699366Y-15457764D01*
X15699366Y-15457764D02*
X15718414Y-15429193D01*
X15718414Y-15429193D02*
X15727938Y-15419669D01*
X15794604Y-15467288D02*
X15804128Y-15457764D01*
X15804128Y-15457764D02*
X15823176Y-15448240D01*
X15823176Y-15448240D02*
X15870795Y-15448240D01*
X15870795Y-15448240D02*
X15889842Y-15457764D01*
X15889842Y-15457764D02*
X15899366Y-15467288D01*
X15899366Y-15467288D02*
X15908890Y-15486336D01*
X15908890Y-15486336D02*
X15908890Y-15505383D01*
X15908890Y-15505383D02*
X15899366Y-15533955D01*
X15899366Y-15533955D02*
X15785081Y-15648240D01*
X15785081Y-15648240D02*
X15908890Y-15648240D01*
X16146985Y-15648240D02*
X16146985Y-15448240D01*
X16232700Y-15648240D02*
X16232700Y-15543479D01*
X16232700Y-15543479D02*
X16223176Y-15524431D01*
X16223176Y-15524431D02*
X16204128Y-15514907D01*
X16204128Y-15514907D02*
X16175557Y-15514907D01*
X16175557Y-15514907D02*
X16156509Y-15524431D01*
X16156509Y-15524431D02*
X16146985Y-15533955D01*
X16356509Y-15648240D02*
X16337462Y-15638717D01*
X16337462Y-15638717D02*
X16327938Y-15629193D01*
X16327938Y-15629193D02*
X16318414Y-15610145D01*
X16318414Y-15610145D02*
X16318414Y-15553002D01*
X16318414Y-15553002D02*
X16327938Y-15533955D01*
X16327938Y-15533955D02*
X16337462Y-15524431D01*
X16337462Y-15524431D02*
X16356509Y-15514907D01*
X16356509Y-15514907D02*
X16385081Y-15514907D01*
X16385081Y-15514907D02*
X16404128Y-15524431D01*
X16404128Y-15524431D02*
X16413652Y-15533955D01*
X16413652Y-15533955D02*
X16423176Y-15553002D01*
X16423176Y-15553002D02*
X16423176Y-15610145D01*
X16423176Y-15610145D02*
X16413652Y-15629193D01*
X16413652Y-15629193D02*
X16404128Y-15638717D01*
X16404128Y-15638717D02*
X16385081Y-15648240D01*
X16385081Y-15648240D02*
X16356509Y-15648240D01*
X16537462Y-15648240D02*
X16518414Y-15638717D01*
X16518414Y-15638717D02*
X16508890Y-15619669D01*
X16508890Y-15619669D02*
X16508890Y-15448240D01*
X16689843Y-15638717D02*
X16670795Y-15648240D01*
X16670795Y-15648240D02*
X16632700Y-15648240D01*
X16632700Y-15648240D02*
X16613652Y-15638717D01*
X16613652Y-15638717D02*
X16604128Y-15619669D01*
X16604128Y-15619669D02*
X16604128Y-15543479D01*
X16604128Y-15543479D02*
X16613652Y-15524431D01*
X16613652Y-15524431D02*
X16632700Y-15514907D01*
X16632700Y-15514907D02*
X16670795Y-15514907D01*
X16670795Y-15514907D02*
X16689843Y-15524431D01*
X16689843Y-15524431D02*
X16699366Y-15543479D01*
X16699366Y-15543479D02*
X16699366Y-15562526D01*
X16699366Y-15562526D02*
X16604128Y-15581574D01*
X16775557Y-15638717D02*
X16794605Y-15648240D01*
X16794605Y-15648240D02*
X16832700Y-15648240D01*
X16832700Y-15648240D02*
X16851747Y-15638717D01*
X16851747Y-15638717D02*
X16861271Y-15619669D01*
X16861271Y-15619669D02*
X16861271Y-15610145D01*
X16861271Y-15610145D02*
X16851747Y-15591098D01*
X16851747Y-15591098D02*
X16832700Y-15581574D01*
X16832700Y-15581574D02*
X16804128Y-15581574D01*
X16804128Y-15581574D02*
X16785081Y-15572050D01*
X16785081Y-15572050D02*
X16775557Y-15553002D01*
X16775557Y-15553002D02*
X16775557Y-15543479D01*
X16775557Y-15543479D02*
X16785081Y-15524431D01*
X16785081Y-15524431D02*
X16804128Y-15514907D01*
X16804128Y-15514907D02*
X16832700Y-15514907D01*
X16832700Y-15514907D02*
X16851747Y-15524431D01*
X16927938Y-15724431D02*
X16937462Y-15714907D01*
X16937462Y-15714907D02*
X16956509Y-15686336D01*
X16956509Y-15686336D02*
X16966033Y-15667288D01*
X16966033Y-15667288D02*
X16975557Y-15638717D01*
X16975557Y-15638717D02*
X16985081Y-15591098D01*
X16985081Y-15591098D02*
X16985081Y-15553002D01*
X16985081Y-15553002D02*
X16975557Y-15505383D01*
X16975557Y-15505383D02*
X16966033Y-15476812D01*
X16966033Y-15476812D02*
X16956509Y-15457764D01*
X16956509Y-15457764D02*
X16937462Y-15429193D01*
X16937462Y-15429193D02*
X16927938Y-15419669D01*
D13*
X12136766Y-15859648D02*
X12136766Y-15781865D01*
X12058984Y-15781865D01*
X12058984Y-15859648D01*
X12136766Y-15859648D01*
D11*
X12518414Y-15912240D02*
X12404128Y-15912240D01*
X12461271Y-15912240D02*
X12461271Y-15712240D01*
X12461271Y-15712240D02*
X12442223Y-15740812D01*
X12442223Y-15740812D02*
X12423175Y-15759859D01*
X12423175Y-15759859D02*
X12404128Y-15769383D01*
X12604128Y-15893193D02*
X12613652Y-15902717D01*
X12613652Y-15902717D02*
X12604128Y-15912240D01*
X12604128Y-15912240D02*
X12594604Y-15902717D01*
X12594604Y-15902717D02*
X12604128Y-15893193D01*
X12604128Y-15893193D02*
X12604128Y-15912240D01*
X12804128Y-15912240D02*
X12689842Y-15912240D01*
X12746985Y-15912240D02*
X12746985Y-15712240D01*
X12746985Y-15712240D02*
X12727937Y-15740812D01*
X12727937Y-15740812D02*
X12708890Y-15759859D01*
X12708890Y-15759859D02*
X12689842Y-15769383D01*
X12927937Y-15712240D02*
X12946985Y-15712240D01*
X12946985Y-15712240D02*
X12966033Y-15721764D01*
X12966033Y-15721764D02*
X12975556Y-15731288D01*
X12975556Y-15731288D02*
X12985080Y-15750336D01*
X12985080Y-15750336D02*
X12994604Y-15788431D01*
X12994604Y-15788431D02*
X12994604Y-15836050D01*
X12994604Y-15836050D02*
X12985080Y-15874145D01*
X12985080Y-15874145D02*
X12975556Y-15893193D01*
X12975556Y-15893193D02*
X12966033Y-15902717D01*
X12966033Y-15902717D02*
X12946985Y-15912240D01*
X12946985Y-15912240D02*
X12927937Y-15912240D01*
X12927937Y-15912240D02*
X12908890Y-15902717D01*
X12908890Y-15902717D02*
X12899366Y-15893193D01*
X12899366Y-15893193D02*
X12889842Y-15874145D01*
X12889842Y-15874145D02*
X12880318Y-15836050D01*
X12880318Y-15836050D02*
X12880318Y-15788431D01*
X12880318Y-15788431D02*
X12889842Y-15750336D01*
X12889842Y-15750336D02*
X12899366Y-15731288D01*
X12899366Y-15731288D02*
X12908890Y-15721764D01*
X12908890Y-15721764D02*
X12927937Y-15712240D01*
X13118414Y-15712240D02*
X13137461Y-15712240D01*
X13137461Y-15712240D02*
X13156509Y-15721764D01*
X13156509Y-15721764D02*
X13166033Y-15731288D01*
X13166033Y-15731288D02*
X13175556Y-15750336D01*
X13175556Y-15750336D02*
X13185080Y-15788431D01*
X13185080Y-15788431D02*
X13185080Y-15836050D01*
X13185080Y-15836050D02*
X13175556Y-15874145D01*
X13175556Y-15874145D02*
X13166033Y-15893193D01*
X13166033Y-15893193D02*
X13156509Y-15902717D01*
X13156509Y-15902717D02*
X13137461Y-15912240D01*
X13137461Y-15912240D02*
X13118414Y-15912240D01*
X13118414Y-15912240D02*
X13099366Y-15902717D01*
X13099366Y-15902717D02*
X13089842Y-15893193D01*
X13089842Y-15893193D02*
X13080318Y-15874145D01*
X13080318Y-15874145D02*
X13070795Y-15836050D01*
X13070795Y-15836050D02*
X13070795Y-15788431D01*
X13070795Y-15788431D02*
X13080318Y-15750336D01*
X13080318Y-15750336D02*
X13089842Y-15731288D01*
X13089842Y-15731288D02*
X13099366Y-15721764D01*
X13099366Y-15721764D02*
X13118414Y-15712240D01*
X13270795Y-15912240D02*
X13270795Y-15778907D01*
X13270795Y-15797955D02*
X13280318Y-15788431D01*
X13280318Y-15788431D02*
X13299366Y-15778907D01*
X13299366Y-15778907D02*
X13327937Y-15778907D01*
X13327937Y-15778907D02*
X13346985Y-15788431D01*
X13346985Y-15788431D02*
X13356509Y-15807479D01*
X13356509Y-15807479D02*
X13356509Y-15912240D01*
X13356509Y-15807479D02*
X13366033Y-15788431D01*
X13366033Y-15788431D02*
X13385080Y-15778907D01*
X13385080Y-15778907D02*
X13413652Y-15778907D01*
X13413652Y-15778907D02*
X13432699Y-15788431D01*
X13432699Y-15788431D02*
X13442223Y-15807479D01*
X13442223Y-15807479D02*
X13442223Y-15912240D01*
X13537461Y-15912240D02*
X13537461Y-15778907D01*
X13537461Y-15797955D02*
X13546985Y-15788431D01*
X13546985Y-15788431D02*
X13566033Y-15778907D01*
X13566033Y-15778907D02*
X13594604Y-15778907D01*
X13594604Y-15778907D02*
X13613652Y-15788431D01*
X13613652Y-15788431D02*
X13623176Y-15807479D01*
X13623176Y-15807479D02*
X13623176Y-15912240D01*
X13623176Y-15807479D02*
X13632699Y-15788431D01*
X13632699Y-15788431D02*
X13651747Y-15778907D01*
X13651747Y-15778907D02*
X13680318Y-15778907D01*
X13680318Y-15778907D02*
X13699366Y-15788431D01*
X13699366Y-15788431D02*
X13708890Y-15807479D01*
X13708890Y-15807479D02*
X13708890Y-15912240D01*
X14099366Y-15702717D02*
X13927938Y-15959859D01*
X14356509Y-15712240D02*
X14375557Y-15712240D01*
X14375557Y-15712240D02*
X14394604Y-15721764D01*
X14394604Y-15721764D02*
X14404128Y-15731288D01*
X14404128Y-15731288D02*
X14413652Y-15750336D01*
X14413652Y-15750336D02*
X14423176Y-15788431D01*
X14423176Y-15788431D02*
X14423176Y-15836050D01*
X14423176Y-15836050D02*
X14413652Y-15874145D01*
X14413652Y-15874145D02*
X14404128Y-15893193D01*
X14404128Y-15893193D02*
X14394604Y-15902717D01*
X14394604Y-15902717D02*
X14375557Y-15912240D01*
X14375557Y-15912240D02*
X14356509Y-15912240D01*
X14356509Y-15912240D02*
X14337461Y-15902717D01*
X14337461Y-15902717D02*
X14327938Y-15893193D01*
X14327938Y-15893193D02*
X14318414Y-15874145D01*
X14318414Y-15874145D02*
X14308890Y-15836050D01*
X14308890Y-15836050D02*
X14308890Y-15788431D01*
X14308890Y-15788431D02*
X14318414Y-15750336D01*
X14318414Y-15750336D02*
X14327938Y-15731288D01*
X14327938Y-15731288D02*
X14337461Y-15721764D01*
X14337461Y-15721764D02*
X14356509Y-15712240D01*
X14508890Y-15893193D02*
X14518414Y-15902717D01*
X14518414Y-15902717D02*
X14508890Y-15912240D01*
X14508890Y-15912240D02*
X14499366Y-15902717D01*
X14499366Y-15902717D02*
X14508890Y-15893193D01*
X14508890Y-15893193D02*
X14508890Y-15912240D01*
X14642223Y-15712240D02*
X14661271Y-15712240D01*
X14661271Y-15712240D02*
X14680319Y-15721764D01*
X14680319Y-15721764D02*
X14689842Y-15731288D01*
X14689842Y-15731288D02*
X14699366Y-15750336D01*
X14699366Y-15750336D02*
X14708890Y-15788431D01*
X14708890Y-15788431D02*
X14708890Y-15836050D01*
X14708890Y-15836050D02*
X14699366Y-15874145D01*
X14699366Y-15874145D02*
X14689842Y-15893193D01*
X14689842Y-15893193D02*
X14680319Y-15902717D01*
X14680319Y-15902717D02*
X14661271Y-15912240D01*
X14661271Y-15912240D02*
X14642223Y-15912240D01*
X14642223Y-15912240D02*
X14623176Y-15902717D01*
X14623176Y-15902717D02*
X14613652Y-15893193D01*
X14613652Y-15893193D02*
X14604128Y-15874145D01*
X14604128Y-15874145D02*
X14594604Y-15836050D01*
X14594604Y-15836050D02*
X14594604Y-15788431D01*
X14594604Y-15788431D02*
X14604128Y-15750336D01*
X14604128Y-15750336D02*
X14613652Y-15731288D01*
X14613652Y-15731288D02*
X14623176Y-15721764D01*
X14623176Y-15721764D02*
X14642223Y-15712240D01*
X14880319Y-15778907D02*
X14880319Y-15912240D01*
X14832699Y-15702717D02*
X14785080Y-15845574D01*
X14785080Y-15845574D02*
X14908890Y-15845574D01*
X14966033Y-15712240D02*
X15089842Y-15712240D01*
X15089842Y-15712240D02*
X15023176Y-15788431D01*
X15023176Y-15788431D02*
X15051747Y-15788431D01*
X15051747Y-15788431D02*
X15070795Y-15797955D01*
X15070795Y-15797955D02*
X15080319Y-15807479D01*
X15080319Y-15807479D02*
X15089842Y-15826526D01*
X15089842Y-15826526D02*
X15089842Y-15874145D01*
X15089842Y-15874145D02*
X15080319Y-15893193D01*
X15080319Y-15893193D02*
X15070795Y-15902717D01*
X15070795Y-15902717D02*
X15051747Y-15912240D01*
X15051747Y-15912240D02*
X14994604Y-15912240D01*
X14994604Y-15912240D02*
X14975557Y-15902717D01*
X14975557Y-15902717D02*
X14966033Y-15893193D01*
X15156509Y-15712240D02*
X15280319Y-15712240D01*
X15280319Y-15712240D02*
X15213652Y-15788431D01*
X15213652Y-15788431D02*
X15242223Y-15788431D01*
X15242223Y-15788431D02*
X15261271Y-15797955D01*
X15261271Y-15797955D02*
X15270795Y-15807479D01*
X15270795Y-15807479D02*
X15280319Y-15826526D01*
X15280319Y-15826526D02*
X15280319Y-15874145D01*
X15280319Y-15874145D02*
X15270795Y-15893193D01*
X15270795Y-15893193D02*
X15261271Y-15902717D01*
X15261271Y-15902717D02*
X15242223Y-15912240D01*
X15242223Y-15912240D02*
X15185080Y-15912240D01*
X15185080Y-15912240D02*
X15166033Y-15902717D01*
X15166033Y-15902717D02*
X15156509Y-15893193D01*
X15356509Y-15712240D02*
X15356509Y-15750336D01*
X15432700Y-15712240D02*
X15432700Y-15750336D01*
X15727938Y-15988431D02*
X15718414Y-15978907D01*
X15718414Y-15978907D02*
X15699366Y-15950336D01*
X15699366Y-15950336D02*
X15689842Y-15931288D01*
X15689842Y-15931288D02*
X15680319Y-15902717D01*
X15680319Y-15902717D02*
X15670795Y-15855098D01*
X15670795Y-15855098D02*
X15670795Y-15817002D01*
X15670795Y-15817002D02*
X15680319Y-15769383D01*
X15680319Y-15769383D02*
X15689842Y-15740812D01*
X15689842Y-15740812D02*
X15699366Y-15721764D01*
X15699366Y-15721764D02*
X15718414Y-15693193D01*
X15718414Y-15693193D02*
X15727938Y-15683669D01*
X15908890Y-15912240D02*
X15794604Y-15912240D01*
X15851747Y-15912240D02*
X15851747Y-15712240D01*
X15851747Y-15712240D02*
X15832700Y-15740812D01*
X15832700Y-15740812D02*
X15813652Y-15759859D01*
X15813652Y-15759859D02*
X15794604Y-15769383D01*
X15985081Y-15731288D02*
X15994604Y-15721764D01*
X15994604Y-15721764D02*
X16013652Y-15712240D01*
X16013652Y-15712240D02*
X16061271Y-15712240D01*
X16061271Y-15712240D02*
X16080319Y-15721764D01*
X16080319Y-15721764D02*
X16089842Y-15731288D01*
X16089842Y-15731288D02*
X16099366Y-15750336D01*
X16099366Y-15750336D02*
X16099366Y-15769383D01*
X16099366Y-15769383D02*
X16089842Y-15797955D01*
X16089842Y-15797955D02*
X15975557Y-15912240D01*
X15975557Y-15912240D02*
X16099366Y-15912240D01*
X16337462Y-15912240D02*
X16337462Y-15712240D01*
X16423176Y-15912240D02*
X16423176Y-15807479D01*
X16423176Y-15807479D02*
X16413652Y-15788431D01*
X16413652Y-15788431D02*
X16394604Y-15778907D01*
X16394604Y-15778907D02*
X16366033Y-15778907D01*
X16366033Y-15778907D02*
X16346985Y-15788431D01*
X16346985Y-15788431D02*
X16337462Y-15797955D01*
X16546985Y-15912240D02*
X16527938Y-15902717D01*
X16527938Y-15902717D02*
X16518414Y-15893193D01*
X16518414Y-15893193D02*
X16508890Y-15874145D01*
X16508890Y-15874145D02*
X16508890Y-15817002D01*
X16508890Y-15817002D02*
X16518414Y-15797955D01*
X16518414Y-15797955D02*
X16527938Y-15788431D01*
X16527938Y-15788431D02*
X16546985Y-15778907D01*
X16546985Y-15778907D02*
X16575557Y-15778907D01*
X16575557Y-15778907D02*
X16594604Y-15788431D01*
X16594604Y-15788431D02*
X16604128Y-15797955D01*
X16604128Y-15797955D02*
X16613652Y-15817002D01*
X16613652Y-15817002D02*
X16613652Y-15874145D01*
X16613652Y-15874145D02*
X16604128Y-15893193D01*
X16604128Y-15893193D02*
X16594604Y-15902717D01*
X16594604Y-15902717D02*
X16575557Y-15912240D01*
X16575557Y-15912240D02*
X16546985Y-15912240D01*
X16727938Y-15912240D02*
X16708890Y-15902717D01*
X16708890Y-15902717D02*
X16699366Y-15883669D01*
X16699366Y-15883669D02*
X16699366Y-15712240D01*
X16880319Y-15902717D02*
X16861271Y-15912240D01*
X16861271Y-15912240D02*
X16823176Y-15912240D01*
X16823176Y-15912240D02*
X16804128Y-15902717D01*
X16804128Y-15902717D02*
X16794605Y-15883669D01*
X16794605Y-15883669D02*
X16794605Y-15807479D01*
X16794605Y-15807479D02*
X16804128Y-15788431D01*
X16804128Y-15788431D02*
X16823176Y-15778907D01*
X16823176Y-15778907D02*
X16861271Y-15778907D01*
X16861271Y-15778907D02*
X16880319Y-15788431D01*
X16880319Y-15788431D02*
X16889843Y-15807479D01*
X16889843Y-15807479D02*
X16889843Y-15826526D01*
X16889843Y-15826526D02*
X16794605Y-15845574D01*
X16966033Y-15902717D02*
X16985081Y-15912240D01*
X16985081Y-15912240D02*
X17023176Y-15912240D01*
X17023176Y-15912240D02*
X17042224Y-15902717D01*
X17042224Y-15902717D02*
X17051747Y-15883669D01*
X17051747Y-15883669D02*
X17051747Y-15874145D01*
X17051747Y-15874145D02*
X17042224Y-15855098D01*
X17042224Y-15855098D02*
X17023176Y-15845574D01*
X17023176Y-15845574D02*
X16994605Y-15845574D01*
X16994605Y-15845574D02*
X16975557Y-15836050D01*
X16975557Y-15836050D02*
X16966033Y-15817002D01*
X16966033Y-15817002D02*
X16966033Y-15807479D01*
X16966033Y-15807479D02*
X16975557Y-15788431D01*
X16975557Y-15788431D02*
X16994605Y-15778907D01*
X16994605Y-15778907D02*
X17023176Y-15778907D01*
X17023176Y-15778907D02*
X17042224Y-15788431D01*
X17118414Y-15988431D02*
X17127938Y-15978907D01*
X17127938Y-15978907D02*
X17146986Y-15950336D01*
X17146986Y-15950336D02*
X17156509Y-15931288D01*
X17156509Y-15931288D02*
X17166033Y-15902717D01*
X17166033Y-15902717D02*
X17175557Y-15855098D01*
X17175557Y-15855098D02*
X17175557Y-15817002D01*
X17175557Y-15817002D02*
X17166033Y-15769383D01*
X17166033Y-15769383D02*
X17156509Y-15740812D01*
X17156509Y-15740812D02*
X17146986Y-15721764D01*
X17146986Y-15721764D02*
X17127938Y-15693193D01*
X17127938Y-15693193D02*
X17118414Y-15683669D01*
X12052875Y-16184757D02*
X12152875Y-16084757D01*
X12052875Y-15984757D01*
X11952875Y-16084757D01*
X12052875Y-16184757D01*
X12508890Y-15976240D02*
X12413652Y-15976240D01*
X12413652Y-15976240D02*
X12404128Y-16071479D01*
X12404128Y-16071479D02*
X12413652Y-16061955D01*
X12413652Y-16061955D02*
X12432699Y-16052431D01*
X12432699Y-16052431D02*
X12480318Y-16052431D01*
X12480318Y-16052431D02*
X12499366Y-16061955D01*
X12499366Y-16061955D02*
X12508890Y-16071479D01*
X12508890Y-16071479D02*
X12518414Y-16090526D01*
X12518414Y-16090526D02*
X12518414Y-16138145D01*
X12518414Y-16138145D02*
X12508890Y-16157193D01*
X12508890Y-16157193D02*
X12499366Y-16166717D01*
X12499366Y-16166717D02*
X12480318Y-16176240D01*
X12480318Y-16176240D02*
X12432699Y-16176240D01*
X12432699Y-16176240D02*
X12413652Y-16166717D01*
X12413652Y-16166717D02*
X12404128Y-16157193D01*
X12604128Y-16157193D02*
X12613652Y-16166717D01*
X12613652Y-16166717D02*
X12604128Y-16176240D01*
X12604128Y-16176240D02*
X12594604Y-16166717D01*
X12594604Y-16166717D02*
X12604128Y-16157193D01*
X12604128Y-16157193D02*
X12604128Y-16176240D01*
X12737461Y-15976240D02*
X12756509Y-15976240D01*
X12756509Y-15976240D02*
X12775556Y-15985764D01*
X12775556Y-15985764D02*
X12785080Y-15995288D01*
X12785080Y-15995288D02*
X12794604Y-16014336D01*
X12794604Y-16014336D02*
X12804128Y-16052431D01*
X12804128Y-16052431D02*
X12804128Y-16100050D01*
X12804128Y-16100050D02*
X12794604Y-16138145D01*
X12794604Y-16138145D02*
X12785080Y-16157193D01*
X12785080Y-16157193D02*
X12775556Y-16166717D01*
X12775556Y-16166717D02*
X12756509Y-16176240D01*
X12756509Y-16176240D02*
X12737461Y-16176240D01*
X12737461Y-16176240D02*
X12718414Y-16166717D01*
X12718414Y-16166717D02*
X12708890Y-16157193D01*
X12708890Y-16157193D02*
X12699366Y-16138145D01*
X12699366Y-16138145D02*
X12689842Y-16100050D01*
X12689842Y-16100050D02*
X12689842Y-16052431D01*
X12689842Y-16052431D02*
X12699366Y-16014336D01*
X12699366Y-16014336D02*
X12708890Y-15995288D01*
X12708890Y-15995288D02*
X12718414Y-15985764D01*
X12718414Y-15985764D02*
X12737461Y-15976240D01*
X12927937Y-15976240D02*
X12946985Y-15976240D01*
X12946985Y-15976240D02*
X12966033Y-15985764D01*
X12966033Y-15985764D02*
X12975556Y-15995288D01*
X12975556Y-15995288D02*
X12985080Y-16014336D01*
X12985080Y-16014336D02*
X12994604Y-16052431D01*
X12994604Y-16052431D02*
X12994604Y-16100050D01*
X12994604Y-16100050D02*
X12985080Y-16138145D01*
X12985080Y-16138145D02*
X12975556Y-16157193D01*
X12975556Y-16157193D02*
X12966033Y-16166717D01*
X12966033Y-16166717D02*
X12946985Y-16176240D01*
X12946985Y-16176240D02*
X12927937Y-16176240D01*
X12927937Y-16176240D02*
X12908890Y-16166717D01*
X12908890Y-16166717D02*
X12899366Y-16157193D01*
X12899366Y-16157193D02*
X12889842Y-16138145D01*
X12889842Y-16138145D02*
X12880318Y-16100050D01*
X12880318Y-16100050D02*
X12880318Y-16052431D01*
X12880318Y-16052431D02*
X12889842Y-16014336D01*
X12889842Y-16014336D02*
X12899366Y-15995288D01*
X12899366Y-15995288D02*
X12908890Y-15985764D01*
X12908890Y-15985764D02*
X12927937Y-15976240D01*
X13118414Y-15976240D02*
X13137461Y-15976240D01*
X13137461Y-15976240D02*
X13156509Y-15985764D01*
X13156509Y-15985764D02*
X13166033Y-15995288D01*
X13166033Y-15995288D02*
X13175556Y-16014336D01*
X13175556Y-16014336D02*
X13185080Y-16052431D01*
X13185080Y-16052431D02*
X13185080Y-16100050D01*
X13185080Y-16100050D02*
X13175556Y-16138145D01*
X13175556Y-16138145D02*
X13166033Y-16157193D01*
X13166033Y-16157193D02*
X13156509Y-16166717D01*
X13156509Y-16166717D02*
X13137461Y-16176240D01*
X13137461Y-16176240D02*
X13118414Y-16176240D01*
X13118414Y-16176240D02*
X13099366Y-16166717D01*
X13099366Y-16166717D02*
X13089842Y-16157193D01*
X13089842Y-16157193D02*
X13080318Y-16138145D01*
X13080318Y-16138145D02*
X13070795Y-16100050D01*
X13070795Y-16100050D02*
X13070795Y-16052431D01*
X13070795Y-16052431D02*
X13080318Y-16014336D01*
X13080318Y-16014336D02*
X13089842Y-15995288D01*
X13089842Y-15995288D02*
X13099366Y-15985764D01*
X13099366Y-15985764D02*
X13118414Y-15976240D01*
X13270795Y-16176240D02*
X13270795Y-16042907D01*
X13270795Y-16061955D02*
X13280318Y-16052431D01*
X13280318Y-16052431D02*
X13299366Y-16042907D01*
X13299366Y-16042907D02*
X13327937Y-16042907D01*
X13327937Y-16042907D02*
X13346985Y-16052431D01*
X13346985Y-16052431D02*
X13356509Y-16071479D01*
X13356509Y-16071479D02*
X13356509Y-16176240D01*
X13356509Y-16071479D02*
X13366033Y-16052431D01*
X13366033Y-16052431D02*
X13385080Y-16042907D01*
X13385080Y-16042907D02*
X13413652Y-16042907D01*
X13413652Y-16042907D02*
X13432699Y-16052431D01*
X13432699Y-16052431D02*
X13442223Y-16071479D01*
X13442223Y-16071479D02*
X13442223Y-16176240D01*
X13537461Y-16176240D02*
X13537461Y-16042907D01*
X13537461Y-16061955D02*
X13546985Y-16052431D01*
X13546985Y-16052431D02*
X13566033Y-16042907D01*
X13566033Y-16042907D02*
X13594604Y-16042907D01*
X13594604Y-16042907D02*
X13613652Y-16052431D01*
X13613652Y-16052431D02*
X13623176Y-16071479D01*
X13623176Y-16071479D02*
X13623176Y-16176240D01*
X13623176Y-16071479D02*
X13632699Y-16052431D01*
X13632699Y-16052431D02*
X13651747Y-16042907D01*
X13651747Y-16042907D02*
X13680318Y-16042907D01*
X13680318Y-16042907D02*
X13699366Y-16052431D01*
X13699366Y-16052431D02*
X13708890Y-16071479D01*
X13708890Y-16071479D02*
X13708890Y-16176240D01*
X14099366Y-15966717D02*
X13927938Y-16223859D01*
X14356509Y-15976240D02*
X14375557Y-15976240D01*
X14375557Y-15976240D02*
X14394604Y-15985764D01*
X14394604Y-15985764D02*
X14404128Y-15995288D01*
X14404128Y-15995288D02*
X14413652Y-16014336D01*
X14413652Y-16014336D02*
X14423176Y-16052431D01*
X14423176Y-16052431D02*
X14423176Y-16100050D01*
X14423176Y-16100050D02*
X14413652Y-16138145D01*
X14413652Y-16138145D02*
X14404128Y-16157193D01*
X14404128Y-16157193D02*
X14394604Y-16166717D01*
X14394604Y-16166717D02*
X14375557Y-16176240D01*
X14375557Y-16176240D02*
X14356509Y-16176240D01*
X14356509Y-16176240D02*
X14337461Y-16166717D01*
X14337461Y-16166717D02*
X14327938Y-16157193D01*
X14327938Y-16157193D02*
X14318414Y-16138145D01*
X14318414Y-16138145D02*
X14308890Y-16100050D01*
X14308890Y-16100050D02*
X14308890Y-16052431D01*
X14308890Y-16052431D02*
X14318414Y-16014336D01*
X14318414Y-16014336D02*
X14327938Y-15995288D01*
X14327938Y-15995288D02*
X14337461Y-15985764D01*
X14337461Y-15985764D02*
X14356509Y-15976240D01*
X14508890Y-16157193D02*
X14518414Y-16166717D01*
X14518414Y-16166717D02*
X14508890Y-16176240D01*
X14508890Y-16176240D02*
X14499366Y-16166717D01*
X14499366Y-16166717D02*
X14508890Y-16157193D01*
X14508890Y-16157193D02*
X14508890Y-16176240D01*
X14708890Y-16176240D02*
X14594604Y-16176240D01*
X14651747Y-16176240D02*
X14651747Y-15976240D01*
X14651747Y-15976240D02*
X14632699Y-16004812D01*
X14632699Y-16004812D02*
X14613652Y-16023859D01*
X14613652Y-16023859D02*
X14594604Y-16033383D01*
X14804128Y-16176240D02*
X14842223Y-16176240D01*
X14842223Y-16176240D02*
X14861271Y-16166717D01*
X14861271Y-16166717D02*
X14870795Y-16157193D01*
X14870795Y-16157193D02*
X14889842Y-16128621D01*
X14889842Y-16128621D02*
X14899366Y-16090526D01*
X14899366Y-16090526D02*
X14899366Y-16014336D01*
X14899366Y-16014336D02*
X14889842Y-15995288D01*
X14889842Y-15995288D02*
X14880319Y-15985764D01*
X14880319Y-15985764D02*
X14861271Y-15976240D01*
X14861271Y-15976240D02*
X14823176Y-15976240D01*
X14823176Y-15976240D02*
X14804128Y-15985764D01*
X14804128Y-15985764D02*
X14794604Y-15995288D01*
X14794604Y-15995288D02*
X14785080Y-16014336D01*
X14785080Y-16014336D02*
X14785080Y-16061955D01*
X14785080Y-16061955D02*
X14794604Y-16081002D01*
X14794604Y-16081002D02*
X14804128Y-16090526D01*
X14804128Y-16090526D02*
X14823176Y-16100050D01*
X14823176Y-16100050D02*
X14861271Y-16100050D01*
X14861271Y-16100050D02*
X14880319Y-16090526D01*
X14880319Y-16090526D02*
X14889842Y-16081002D01*
X14889842Y-16081002D02*
X14899366Y-16061955D01*
X15070795Y-15976240D02*
X15032699Y-15976240D01*
X15032699Y-15976240D02*
X15013652Y-15985764D01*
X15013652Y-15985764D02*
X15004128Y-15995288D01*
X15004128Y-15995288D02*
X14985080Y-16023859D01*
X14985080Y-16023859D02*
X14975557Y-16061955D01*
X14975557Y-16061955D02*
X14975557Y-16138145D01*
X14975557Y-16138145D02*
X14985080Y-16157193D01*
X14985080Y-16157193D02*
X14994604Y-16166717D01*
X14994604Y-16166717D02*
X15013652Y-16176240D01*
X15013652Y-16176240D02*
X15051747Y-16176240D01*
X15051747Y-16176240D02*
X15070795Y-16166717D01*
X15070795Y-16166717D02*
X15080319Y-16157193D01*
X15080319Y-16157193D02*
X15089842Y-16138145D01*
X15089842Y-16138145D02*
X15089842Y-16090526D01*
X15089842Y-16090526D02*
X15080319Y-16071479D01*
X15080319Y-16071479D02*
X15070795Y-16061955D01*
X15070795Y-16061955D02*
X15051747Y-16052431D01*
X15051747Y-16052431D02*
X15013652Y-16052431D01*
X15013652Y-16052431D02*
X14994604Y-16061955D01*
X14994604Y-16061955D02*
X14985080Y-16071479D01*
X14985080Y-16071479D02*
X14975557Y-16090526D01*
X15185080Y-16176240D02*
X15223176Y-16176240D01*
X15223176Y-16176240D02*
X15242223Y-16166717D01*
X15242223Y-16166717D02*
X15251747Y-16157193D01*
X15251747Y-16157193D02*
X15270795Y-16128621D01*
X15270795Y-16128621D02*
X15280319Y-16090526D01*
X15280319Y-16090526D02*
X15280319Y-16014336D01*
X15280319Y-16014336D02*
X15270795Y-15995288D01*
X15270795Y-15995288D02*
X15261271Y-15985764D01*
X15261271Y-15985764D02*
X15242223Y-15976240D01*
X15242223Y-15976240D02*
X15204128Y-15976240D01*
X15204128Y-15976240D02*
X15185080Y-15985764D01*
X15185080Y-15985764D02*
X15175557Y-15995288D01*
X15175557Y-15995288D02*
X15166033Y-16014336D01*
X15166033Y-16014336D02*
X15166033Y-16061955D01*
X15166033Y-16061955D02*
X15175557Y-16081002D01*
X15175557Y-16081002D02*
X15185080Y-16090526D01*
X15185080Y-16090526D02*
X15204128Y-16100050D01*
X15204128Y-16100050D02*
X15242223Y-16100050D01*
X15242223Y-16100050D02*
X15261271Y-16090526D01*
X15261271Y-16090526D02*
X15270795Y-16081002D01*
X15270795Y-16081002D02*
X15280319Y-16061955D01*
X15356509Y-15976240D02*
X15356509Y-16014336D01*
X15432700Y-15976240D02*
X15432700Y-16014336D01*
X15727938Y-16252431D02*
X15718414Y-16242907D01*
X15718414Y-16242907D02*
X15699366Y-16214336D01*
X15699366Y-16214336D02*
X15689842Y-16195288D01*
X15689842Y-16195288D02*
X15680319Y-16166717D01*
X15680319Y-16166717D02*
X15670795Y-16119098D01*
X15670795Y-16119098D02*
X15670795Y-16081002D01*
X15670795Y-16081002D02*
X15680319Y-16033383D01*
X15680319Y-16033383D02*
X15689842Y-16004812D01*
X15689842Y-16004812D02*
X15699366Y-15985764D01*
X15699366Y-15985764D02*
X15718414Y-15957193D01*
X15718414Y-15957193D02*
X15727938Y-15947669D01*
X15908890Y-16176240D02*
X15794604Y-16176240D01*
X15851747Y-16176240D02*
X15851747Y-15976240D01*
X15851747Y-15976240D02*
X15832700Y-16004812D01*
X15832700Y-16004812D02*
X15813652Y-16023859D01*
X15813652Y-16023859D02*
X15794604Y-16033383D01*
X16146985Y-16176240D02*
X16146985Y-15976240D01*
X16232700Y-16176240D02*
X16232700Y-16071479D01*
X16232700Y-16071479D02*
X16223176Y-16052431D01*
X16223176Y-16052431D02*
X16204128Y-16042907D01*
X16204128Y-16042907D02*
X16175557Y-16042907D01*
X16175557Y-16042907D02*
X16156509Y-16052431D01*
X16156509Y-16052431D02*
X16146985Y-16061955D01*
X16356509Y-16176240D02*
X16337462Y-16166717D01*
X16337462Y-16166717D02*
X16327938Y-16157193D01*
X16327938Y-16157193D02*
X16318414Y-16138145D01*
X16318414Y-16138145D02*
X16318414Y-16081002D01*
X16318414Y-16081002D02*
X16327938Y-16061955D01*
X16327938Y-16061955D02*
X16337462Y-16052431D01*
X16337462Y-16052431D02*
X16356509Y-16042907D01*
X16356509Y-16042907D02*
X16385081Y-16042907D01*
X16385081Y-16042907D02*
X16404128Y-16052431D01*
X16404128Y-16052431D02*
X16413652Y-16061955D01*
X16413652Y-16061955D02*
X16423176Y-16081002D01*
X16423176Y-16081002D02*
X16423176Y-16138145D01*
X16423176Y-16138145D02*
X16413652Y-16157193D01*
X16413652Y-16157193D02*
X16404128Y-16166717D01*
X16404128Y-16166717D02*
X16385081Y-16176240D01*
X16385081Y-16176240D02*
X16356509Y-16176240D01*
X16537462Y-16176240D02*
X16518414Y-16166717D01*
X16518414Y-16166717D02*
X16508890Y-16147669D01*
X16508890Y-16147669D02*
X16508890Y-15976240D01*
X16689843Y-16166717D02*
X16670795Y-16176240D01*
X16670795Y-16176240D02*
X16632700Y-16176240D01*
X16632700Y-16176240D02*
X16613652Y-16166717D01*
X16613652Y-16166717D02*
X16604128Y-16147669D01*
X16604128Y-16147669D02*
X16604128Y-16071479D01*
X16604128Y-16071479D02*
X16613652Y-16052431D01*
X16613652Y-16052431D02*
X16632700Y-16042907D01*
X16632700Y-16042907D02*
X16670795Y-16042907D01*
X16670795Y-16042907D02*
X16689843Y-16052431D01*
X16689843Y-16052431D02*
X16699366Y-16071479D01*
X16699366Y-16071479D02*
X16699366Y-16090526D01*
X16699366Y-16090526D02*
X16604128Y-16109574D01*
X16766033Y-16252431D02*
X16775557Y-16242907D01*
X16775557Y-16242907D02*
X16794605Y-16214336D01*
X16794605Y-16214336D02*
X16804128Y-16195288D01*
X16804128Y-16195288D02*
X16813652Y-16166717D01*
X16813652Y-16166717D02*
X16823176Y-16119098D01*
X16823176Y-16119098D02*
X16823176Y-16081002D01*
X16823176Y-16081002D02*
X16813652Y-16033383D01*
X16813652Y-16033383D02*
X16804128Y-16004812D01*
X16804128Y-16004812D02*
X16794605Y-15985764D01*
X16794605Y-15985764D02*
X16775557Y-15957193D01*
X16775557Y-15957193D02*
X16766033Y-15947669D01*
M02*
