G04 #@! TF.GenerationSoftware,KiCad,Pcbnew,9.0.1*
G04 #@! TF.CreationDate,2025-04-26T15:50:14-04:00*
G04 #@! TF.ProjectId,FISH,46495348-2e6b-4696-9361-645f70636258,rev?*
G04 #@! TF.SameCoordinates,Original*
G04 #@! TF.FileFunction,Legend,Top*
G04 #@! TF.FilePolarity,Positive*
%FSLAX46Y46*%
G04 Gerber Fmt 4.6, Leading zero omitted, Abs format (unit mm)*
G04 Created by KiCad (PCBNEW 9.0.1) date 2025-04-26 15:50:14*
%MOMM*%
%LPD*%
G01*
G04 APERTURE LIST*
%ADD10C,0.150000*%
%ADD11C,0.000000*%
%ADD12C,0.120000*%
%ADD13C,1.600000*%
%ADD14O,1.600000X1.600000*%
%ADD15C,1.800000*%
%ADD16R,1.800000X1.800000*%
%ADD17C,2.000000*%
%ADD18R,1.700000X1.700000*%
%ADD19C,1.700000*%
G04 APERTURE END LIST*
D10*
X144994819Y-121508094D02*
X143994819Y-121508094D01*
X143994819Y-121508094D02*
X143994819Y-121269999D01*
X143994819Y-121269999D02*
X144042438Y-121127142D01*
X144042438Y-121127142D02*
X144137676Y-121031904D01*
X144137676Y-121031904D02*
X144232914Y-120984285D01*
X144232914Y-120984285D02*
X144423390Y-120936666D01*
X144423390Y-120936666D02*
X144566247Y-120936666D01*
X144566247Y-120936666D02*
X144756723Y-120984285D01*
X144756723Y-120984285D02*
X144851961Y-121031904D01*
X144851961Y-121031904D02*
X144947200Y-121127142D01*
X144947200Y-121127142D02*
X144994819Y-121269999D01*
X144994819Y-121269999D02*
X144994819Y-121508094D01*
X144090057Y-120555713D02*
X144042438Y-120508094D01*
X144042438Y-120508094D02*
X143994819Y-120412856D01*
X143994819Y-120412856D02*
X143994819Y-120174761D01*
X143994819Y-120174761D02*
X144042438Y-120079523D01*
X144042438Y-120079523D02*
X144090057Y-120031904D01*
X144090057Y-120031904D02*
X144185295Y-119984285D01*
X144185295Y-119984285D02*
X144280533Y-119984285D01*
X144280533Y-119984285D02*
X144423390Y-120031904D01*
X144423390Y-120031904D02*
X144994819Y-120603332D01*
X144994819Y-120603332D02*
X144994819Y-119984285D01*
X168166667Y-115907200D02*
X168309524Y-115954819D01*
X168309524Y-115954819D02*
X168547619Y-115954819D01*
X168547619Y-115954819D02*
X168642857Y-115907200D01*
X168642857Y-115907200D02*
X168690476Y-115859580D01*
X168690476Y-115859580D02*
X168738095Y-115764342D01*
X168738095Y-115764342D02*
X168738095Y-115669104D01*
X168738095Y-115669104D02*
X168690476Y-115573866D01*
X168690476Y-115573866D02*
X168642857Y-115526247D01*
X168642857Y-115526247D02*
X168547619Y-115478628D01*
X168547619Y-115478628D02*
X168357143Y-115431009D01*
X168357143Y-115431009D02*
X168261905Y-115383390D01*
X168261905Y-115383390D02*
X168214286Y-115335771D01*
X168214286Y-115335771D02*
X168166667Y-115240533D01*
X168166667Y-115240533D02*
X168166667Y-115145295D01*
X168166667Y-115145295D02*
X168214286Y-115050057D01*
X168214286Y-115050057D02*
X168261905Y-115002438D01*
X168261905Y-115002438D02*
X168357143Y-114954819D01*
X168357143Y-114954819D02*
X168595238Y-114954819D01*
X168595238Y-114954819D02*
X168738095Y-115002438D01*
X169071429Y-114954819D02*
X169309524Y-115954819D01*
X169309524Y-115954819D02*
X169500000Y-115240533D01*
X169500000Y-115240533D02*
X169690476Y-115954819D01*
X169690476Y-115954819D02*
X169928572Y-114954819D01*
X170214286Y-114954819D02*
X170833333Y-114954819D01*
X170833333Y-114954819D02*
X170500000Y-115335771D01*
X170500000Y-115335771D02*
X170642857Y-115335771D01*
X170642857Y-115335771D02*
X170738095Y-115383390D01*
X170738095Y-115383390D02*
X170785714Y-115431009D01*
X170785714Y-115431009D02*
X170833333Y-115526247D01*
X170833333Y-115526247D02*
X170833333Y-115764342D01*
X170833333Y-115764342D02*
X170785714Y-115859580D01*
X170785714Y-115859580D02*
X170738095Y-115907200D01*
X170738095Y-115907200D02*
X170642857Y-115954819D01*
X170642857Y-115954819D02*
X170357143Y-115954819D01*
X170357143Y-115954819D02*
X170261905Y-115907200D01*
X170261905Y-115907200D02*
X170214286Y-115859580D01*
X138166667Y-118907200D02*
X138309524Y-118954819D01*
X138309524Y-118954819D02*
X138547619Y-118954819D01*
X138547619Y-118954819D02*
X138642857Y-118907200D01*
X138642857Y-118907200D02*
X138690476Y-118859580D01*
X138690476Y-118859580D02*
X138738095Y-118764342D01*
X138738095Y-118764342D02*
X138738095Y-118669104D01*
X138738095Y-118669104D02*
X138690476Y-118573866D01*
X138690476Y-118573866D02*
X138642857Y-118526247D01*
X138642857Y-118526247D02*
X138547619Y-118478628D01*
X138547619Y-118478628D02*
X138357143Y-118431009D01*
X138357143Y-118431009D02*
X138261905Y-118383390D01*
X138261905Y-118383390D02*
X138214286Y-118335771D01*
X138214286Y-118335771D02*
X138166667Y-118240533D01*
X138166667Y-118240533D02*
X138166667Y-118145295D01*
X138166667Y-118145295D02*
X138214286Y-118050057D01*
X138214286Y-118050057D02*
X138261905Y-118002438D01*
X138261905Y-118002438D02*
X138357143Y-117954819D01*
X138357143Y-117954819D02*
X138595238Y-117954819D01*
X138595238Y-117954819D02*
X138738095Y-118002438D01*
X139071429Y-117954819D02*
X139309524Y-118954819D01*
X139309524Y-118954819D02*
X139500000Y-118240533D01*
X139500000Y-118240533D02*
X139690476Y-118954819D01*
X139690476Y-118954819D02*
X139928572Y-117954819D01*
X140261905Y-118050057D02*
X140309524Y-118002438D01*
X140309524Y-118002438D02*
X140404762Y-117954819D01*
X140404762Y-117954819D02*
X140642857Y-117954819D01*
X140642857Y-117954819D02*
X140738095Y-118002438D01*
X140738095Y-118002438D02*
X140785714Y-118050057D01*
X140785714Y-118050057D02*
X140833333Y-118145295D01*
X140833333Y-118145295D02*
X140833333Y-118240533D01*
X140833333Y-118240533D02*
X140785714Y-118383390D01*
X140785714Y-118383390D02*
X140214286Y-118954819D01*
X140214286Y-118954819D02*
X140833333Y-118954819D01*
X131416667Y-126407200D02*
X131559524Y-126454819D01*
X131559524Y-126454819D02*
X131797619Y-126454819D01*
X131797619Y-126454819D02*
X131892857Y-126407200D01*
X131892857Y-126407200D02*
X131940476Y-126359580D01*
X131940476Y-126359580D02*
X131988095Y-126264342D01*
X131988095Y-126264342D02*
X131988095Y-126169104D01*
X131988095Y-126169104D02*
X131940476Y-126073866D01*
X131940476Y-126073866D02*
X131892857Y-126026247D01*
X131892857Y-126026247D02*
X131797619Y-125978628D01*
X131797619Y-125978628D02*
X131607143Y-125931009D01*
X131607143Y-125931009D02*
X131511905Y-125883390D01*
X131511905Y-125883390D02*
X131464286Y-125835771D01*
X131464286Y-125835771D02*
X131416667Y-125740533D01*
X131416667Y-125740533D02*
X131416667Y-125645295D01*
X131416667Y-125645295D02*
X131464286Y-125550057D01*
X131464286Y-125550057D02*
X131511905Y-125502438D01*
X131511905Y-125502438D02*
X131607143Y-125454819D01*
X131607143Y-125454819D02*
X131845238Y-125454819D01*
X131845238Y-125454819D02*
X131988095Y-125502438D01*
X132321429Y-125454819D02*
X132559524Y-126454819D01*
X132559524Y-126454819D02*
X132750000Y-125740533D01*
X132750000Y-125740533D02*
X132940476Y-126454819D01*
X132940476Y-126454819D02*
X133178572Y-125454819D01*
X134083333Y-126454819D02*
X133511905Y-126454819D01*
X133797619Y-126454819D02*
X133797619Y-125454819D01*
X133797619Y-125454819D02*
X133702381Y-125597676D01*
X133702381Y-125597676D02*
X133607143Y-125692914D01*
X133607143Y-125692914D02*
X133511905Y-125740533D01*
X158690476Y-93334819D02*
X158690476Y-92334819D01*
X158690476Y-92334819D02*
X159023809Y-93049104D01*
X159023809Y-93049104D02*
X159357142Y-92334819D01*
X159357142Y-92334819D02*
X159357142Y-93334819D01*
X160357142Y-93334819D02*
X159785714Y-93334819D01*
X160071428Y-93334819D02*
X160071428Y-92334819D01*
X160071428Y-92334819D02*
X159976190Y-92477676D01*
X159976190Y-92477676D02*
X159880952Y-92572914D01*
X159880952Y-92572914D02*
X159785714Y-92620533D01*
X168414819Y-135733094D02*
X167414819Y-135733094D01*
X167414819Y-135733094D02*
X167414819Y-135494999D01*
X167414819Y-135494999D02*
X167462438Y-135352142D01*
X167462438Y-135352142D02*
X167557676Y-135256904D01*
X167557676Y-135256904D02*
X167652914Y-135209285D01*
X167652914Y-135209285D02*
X167843390Y-135161666D01*
X167843390Y-135161666D02*
X167986247Y-135161666D01*
X167986247Y-135161666D02*
X168176723Y-135209285D01*
X168176723Y-135209285D02*
X168271961Y-135256904D01*
X168271961Y-135256904D02*
X168367200Y-135352142D01*
X168367200Y-135352142D02*
X168414819Y-135494999D01*
X168414819Y-135494999D02*
X168414819Y-135733094D01*
X168414819Y-134209285D02*
X168414819Y-134780713D01*
X168414819Y-134494999D02*
X167414819Y-134494999D01*
X167414819Y-134494999D02*
X167557676Y-134590237D01*
X167557676Y-134590237D02*
X167652914Y-134685475D01*
X167652914Y-134685475D02*
X167700533Y-134780713D01*
D11*
G04 #@! TO.C,G*
G36*
X141101498Y-71981371D02*
G01*
X142686144Y-72063223D01*
X144200892Y-72226192D01*
X145649456Y-72471305D01*
X147035550Y-72799591D01*
X148362886Y-73212075D01*
X149635179Y-73709786D01*
X150856141Y-74293751D01*
X152029486Y-74964997D01*
X152142612Y-75035868D01*
X152686509Y-75379308D01*
X153583939Y-75248509D01*
X154131890Y-75175346D01*
X154762736Y-75102591D01*
X155450611Y-75032651D01*
X156169648Y-74967934D01*
X156893981Y-74910845D01*
X157597745Y-74863793D01*
X157907922Y-74846156D01*
X158223901Y-74832123D01*
X158599425Y-74820061D01*
X159019093Y-74810049D01*
X159467504Y-74802164D01*
X159929257Y-74796487D01*
X160388950Y-74793094D01*
X160831182Y-74792064D01*
X161240551Y-74793476D01*
X161601657Y-74797407D01*
X161899097Y-74803937D01*
X162117470Y-74813144D01*
X162235849Y-74824135D01*
X162308759Y-74840382D01*
X162372548Y-74871441D01*
X162437798Y-74930992D01*
X162515092Y-75032714D01*
X162615010Y-75190287D01*
X162748137Y-75417390D01*
X162898070Y-75680175D01*
X163965668Y-77635776D01*
X164949112Y-79593546D01*
X165845440Y-81546412D01*
X166651691Y-83487302D01*
X167364904Y-85409145D01*
X167982117Y-87304868D01*
X168428381Y-88887826D01*
X168800332Y-90432457D01*
X169104691Y-91956317D01*
X169340023Y-93448406D01*
X169504896Y-94897722D01*
X169597877Y-96293262D01*
X169617532Y-97624027D01*
X169610374Y-97960813D01*
X169575967Y-98772806D01*
X169520630Y-99501297D01*
X169440870Y-100170157D01*
X169333195Y-100803258D01*
X169194112Y-101424470D01*
X169020125Y-102057664D01*
X169002010Y-102118129D01*
X168932939Y-102353497D01*
X168843331Y-102668315D01*
X168740362Y-103036841D01*
X168631206Y-103433336D01*
X168523038Y-103832058D01*
X168491025Y-103951356D01*
X168396232Y-104304200D01*
X168309494Y-104624384D01*
X168235151Y-104896097D01*
X168177545Y-105103530D01*
X168141017Y-105230873D01*
X168131168Y-105261888D01*
X168134958Y-105291550D01*
X168180914Y-105314842D01*
X168282439Y-105333474D01*
X168452939Y-105349153D01*
X168705819Y-105363591D01*
X169041629Y-105377992D01*
X169788871Y-105409987D01*
X170594964Y-105449217D01*
X171446116Y-105494736D01*
X172328536Y-105545595D01*
X173228431Y-105600846D01*
X174132009Y-105659540D01*
X175025480Y-105720730D01*
X175895050Y-105783467D01*
X176726929Y-105846802D01*
X177507323Y-105909789D01*
X178222442Y-105971478D01*
X178858494Y-106030921D01*
X179401686Y-106087171D01*
X179473447Y-106095178D01*
X180340466Y-106201803D01*
X181245681Y-106329544D01*
X182174479Y-106475466D01*
X183112248Y-106636634D01*
X184044374Y-106810116D01*
X184956244Y-106992976D01*
X185833246Y-107182280D01*
X186660767Y-107375094D01*
X187424193Y-107568484D01*
X188108912Y-107759516D01*
X188700311Y-107945254D01*
X188719700Y-107951813D01*
X189116535Y-108104492D01*
X189527029Y-108294128D01*
X189923182Y-108505522D01*
X190276990Y-108723475D01*
X190560451Y-108932789D01*
X190616118Y-108981148D01*
X190796213Y-109152209D01*
X190940241Y-109314199D01*
X191052988Y-109482542D01*
X191139242Y-109672667D01*
X191203790Y-109900000D01*
X191251419Y-110179967D01*
X191286916Y-110527994D01*
X191315068Y-110959510D01*
X191331426Y-111286295D01*
X191343699Y-111658469D01*
X191350881Y-112132292D01*
X191353171Y-112700762D01*
X191350765Y-113356875D01*
X191343861Y-114093630D01*
X191332656Y-114904024D01*
X191317347Y-115781056D01*
X191298133Y-116717723D01*
X191275209Y-117707022D01*
X191248775Y-118741952D01*
X191219026Y-119815510D01*
X191186161Y-120920694D01*
X191150376Y-122050501D01*
X191111870Y-123197930D01*
X191070839Y-124355977D01*
X191027481Y-125517642D01*
X190981993Y-126675921D01*
X190934573Y-127823812D01*
X190885417Y-128954313D01*
X190834724Y-130060422D01*
X190782691Y-131135136D01*
X190758387Y-131616513D01*
X190730054Y-132139752D01*
X190702006Y-132569814D01*
X190671373Y-132922260D01*
X190635288Y-133212647D01*
X190590882Y-133456534D01*
X190535287Y-133669478D01*
X190465635Y-133867039D01*
X190379059Y-134064774D01*
X190272689Y-134278243D01*
X190264963Y-134293147D01*
X189924016Y-134843254D01*
X189479099Y-135384893D01*
X188934863Y-135915435D01*
X188295962Y-136432255D01*
X187567047Y-136932724D01*
X186752771Y-137414215D01*
X185857785Y-137874101D01*
X184886742Y-138309755D01*
X183844294Y-138718549D01*
X182735093Y-139097856D01*
X181563792Y-139445049D01*
X180778800Y-139650407D01*
X179743099Y-139895402D01*
X178684518Y-140120663D01*
X177595057Y-140327154D01*
X176466719Y-140515839D01*
X175291504Y-140687682D01*
X174061414Y-140843646D01*
X172768450Y-140984696D01*
X171404613Y-141111795D01*
X169961905Y-141225908D01*
X168432326Y-141327998D01*
X166807879Y-141419029D01*
X165631263Y-141475726D01*
X165301904Y-141487883D01*
X164875723Y-141499235D01*
X164364675Y-141509728D01*
X163780716Y-141519307D01*
X163135800Y-141527916D01*
X162441882Y-141535501D01*
X161710917Y-141542005D01*
X160954861Y-141547374D01*
X160185668Y-141551553D01*
X159415294Y-141554485D01*
X158655694Y-141556117D01*
X157918821Y-141556393D01*
X157216633Y-141555257D01*
X156561083Y-141552655D01*
X155964127Y-141548530D01*
X155437719Y-141542829D01*
X154993815Y-141535495D01*
X154644539Y-141526479D01*
X152596961Y-141449709D01*
X150614061Y-141357387D01*
X148699005Y-141249876D01*
X146854961Y-141127540D01*
X145085096Y-140990742D01*
X143392576Y-140839845D01*
X141780570Y-140675212D01*
X140252243Y-140497207D01*
X138810762Y-140306193D01*
X137459296Y-140102533D01*
X136201011Y-139886590D01*
X135039073Y-139658728D01*
X133976650Y-139419310D01*
X133016909Y-139168698D01*
X132355385Y-138970093D01*
X131147116Y-138539906D01*
X129992787Y-138041506D01*
X128903356Y-137480597D01*
X127889778Y-136862883D01*
X126963012Y-136194069D01*
X126849537Y-136103713D01*
X126515492Y-135818812D01*
X126153114Y-135482622D01*
X125783365Y-135116785D01*
X125427204Y-134742948D01*
X125105591Y-134382755D01*
X124839486Y-134057850D01*
X124743166Y-133928550D01*
X124502464Y-133566732D01*
X124266117Y-133165713D01*
X124051444Y-132757964D01*
X123969852Y-132580545D01*
X124539828Y-132580545D01*
X124570050Y-132668842D01*
X124654780Y-132829998D01*
X124785112Y-133048490D01*
X124952141Y-133308795D01*
X124991850Y-133368522D01*
X125588496Y-134165213D01*
X126282383Y-134918571D01*
X127070018Y-135626312D01*
X127947905Y-136286152D01*
X128912551Y-136895809D01*
X129960460Y-137452998D01*
X131088138Y-137955436D01*
X132292091Y-138400840D01*
X133066146Y-138644641D01*
X133884572Y-138867023D01*
X134804910Y-139081949D01*
X135820512Y-139288879D01*
X136924730Y-139487278D01*
X138110918Y-139676605D01*
X139372426Y-139856325D01*
X140702609Y-140025898D01*
X142094817Y-140184788D01*
X143542404Y-140332455D01*
X145038722Y-140468363D01*
X146577124Y-140591973D01*
X148150961Y-140702748D01*
X149753587Y-140800149D01*
X151378353Y-140883640D01*
X153018612Y-140952681D01*
X154667717Y-141006736D01*
X156319020Y-141045266D01*
X157965874Y-141067733D01*
X159601630Y-141073600D01*
X161219641Y-141062329D01*
X162639828Y-141037437D01*
X164553678Y-140985063D01*
X166366347Y-140916884D01*
X168084375Y-140832215D01*
X169714304Y-140730373D01*
X171262675Y-140610676D01*
X172736031Y-140472439D01*
X174140912Y-140314979D01*
X175483860Y-140137612D01*
X176771416Y-139939656D01*
X178010122Y-139720427D01*
X179206518Y-139479240D01*
X180367147Y-139215414D01*
X180584349Y-139162625D01*
X181758995Y-138850462D01*
X182877730Y-138505638D01*
X183935643Y-138130895D01*
X184927819Y-137728973D01*
X185849346Y-137302615D01*
X186695311Y-136854562D01*
X187460800Y-136387555D01*
X188140900Y-135904336D01*
X188730698Y-135407647D01*
X189225281Y-134900229D01*
X189619735Y-134384823D01*
X189847249Y-133994004D01*
X189924680Y-133829444D01*
X189984000Y-133684956D01*
X189994837Y-133653146D01*
X190010266Y-133588946D01*
X189991179Y-133570023D01*
X189919012Y-133599838D01*
X189775200Y-133681853D01*
X189744789Y-133699763D01*
X189384021Y-133901934D01*
X188939173Y-134134055D01*
X188428004Y-134387855D01*
X187868276Y-134655061D01*
X187277751Y-134927401D01*
X186674189Y-135196602D01*
X186075352Y-135454392D01*
X185499002Y-135692497D01*
X185271872Y-135783082D01*
X184807258Y-135964550D01*
X184421569Y-136110598D01*
X184093525Y-136228132D01*
X183801842Y-136324059D01*
X183525241Y-136405286D01*
X183242439Y-136478721D01*
X182932155Y-136551269D01*
X182845289Y-136570632D01*
X181793426Y-136792467D01*
X180659066Y-137011704D01*
X179456688Y-137226474D01*
X178200771Y-137434905D01*
X176905794Y-137635129D01*
X175586237Y-137825275D01*
X174256577Y-138003473D01*
X172931293Y-138167854D01*
X171624866Y-138316547D01*
X170351773Y-138447684D01*
X169126495Y-138559393D01*
X167963508Y-138649805D01*
X166877294Y-138717051D01*
X165903211Y-138758611D01*
X165190914Y-138777604D01*
X164383276Y-138793240D01*
X163492098Y-138805596D01*
X162529180Y-138814750D01*
X161506322Y-138820778D01*
X160435324Y-138823758D01*
X159327986Y-138823766D01*
X158196109Y-138820880D01*
X157051491Y-138815177D01*
X155905935Y-138806734D01*
X154771238Y-138795627D01*
X153659203Y-138781934D01*
X152581628Y-138765733D01*
X151550314Y-138747099D01*
X150577061Y-138726111D01*
X149673669Y-138702844D01*
X148851939Y-138677378D01*
X148123669Y-138649787D01*
X147927408Y-138641208D01*
X146210311Y-138545105D01*
X144508520Y-138413654D01*
X142832690Y-138248451D01*
X141193477Y-138051094D01*
X139601538Y-137823180D01*
X138067527Y-137566306D01*
X136602100Y-137282069D01*
X135215915Y-136972065D01*
X133919625Y-136637893D01*
X133227912Y-136438076D01*
X132346685Y-136158910D01*
X131443285Y-135847062D01*
X130531376Y-135508530D01*
X129624619Y-135149314D01*
X128736679Y-134775414D01*
X127881218Y-134392829D01*
X127071900Y-134007558D01*
X126322388Y-133625601D01*
X125646345Y-133252958D01*
X125057435Y-132895627D01*
X124852569Y-132760522D01*
X124698594Y-132660360D01*
X124586933Y-132595666D01*
X124540100Y-132579395D01*
X124539828Y-132580545D01*
X123969852Y-132580545D01*
X123875765Y-132375957D01*
X123777217Y-132117558D01*
X123763344Y-132075214D01*
X123750541Y-132031515D01*
X123738707Y-131981888D01*
X123727737Y-131921760D01*
X123717532Y-131846558D01*
X123707987Y-131751708D01*
X123699001Y-131632639D01*
X123690472Y-131484775D01*
X123682297Y-131303545D01*
X123674374Y-131084375D01*
X123666601Y-130822693D01*
X123658875Y-130513924D01*
X123651094Y-130153495D01*
X123643156Y-129736835D01*
X123634958Y-129259369D01*
X123626399Y-128716524D01*
X123617375Y-128103727D01*
X123607785Y-127416406D01*
X123597526Y-126649986D01*
X123586496Y-125799895D01*
X123574593Y-124861560D01*
X123561715Y-123830408D01*
X123547758Y-122701864D01*
X123532621Y-121471357D01*
X123524765Y-120831691D01*
X123508581Y-119525539D01*
X123493498Y-118323679D01*
X123479636Y-117221629D01*
X123467110Y-116214907D01*
X123456039Y-115299031D01*
X123446539Y-114469517D01*
X123438729Y-113721884D01*
X123433435Y-113131059D01*
X123930467Y-113131059D01*
X123964326Y-114751397D01*
X123969050Y-115004052D01*
X123974811Y-115357433D01*
X123981508Y-115803493D01*
X123989037Y-116334185D01*
X123997296Y-116941462D01*
X124006184Y-117617276D01*
X124015597Y-118353580D01*
X124025433Y-119142327D01*
X124035591Y-119975470D01*
X124045967Y-120844961D01*
X124056459Y-121742754D01*
X124066965Y-122660800D01*
X124077382Y-123591053D01*
X124081440Y-123959100D01*
X124164694Y-131546466D01*
X124403123Y-131769665D01*
X124737396Y-132048179D01*
X125166902Y-132350188D01*
X125681765Y-132671175D01*
X126272109Y-133006624D01*
X126928055Y-133352019D01*
X127639728Y-133702845D01*
X128397249Y-134054585D01*
X129190743Y-134402723D01*
X130010331Y-134742743D01*
X130846136Y-135070129D01*
X131688282Y-135380364D01*
X132526892Y-135668934D01*
X133352089Y-135931322D01*
X133786081Y-136059798D01*
X135246741Y-136448219D01*
X136803614Y-136800132D01*
X138457668Y-137115678D01*
X140209870Y-137395000D01*
X142061186Y-137638240D01*
X144012583Y-137845543D01*
X146065028Y-138017049D01*
X147832017Y-138131522D01*
X148282696Y-138153575D01*
X148832580Y-138174453D01*
X149472102Y-138194083D01*
X150191692Y-138212390D01*
X150981782Y-138229302D01*
X151832804Y-138244743D01*
X152735190Y-138258640D01*
X153679371Y-138270919D01*
X154655779Y-138281505D01*
X155654845Y-138290326D01*
X156667001Y-138297306D01*
X157682678Y-138302372D01*
X158692309Y-138305450D01*
X159686325Y-138306466D01*
X160655156Y-138305345D01*
X161589236Y-138302014D01*
X162478996Y-138296399D01*
X163314867Y-138288426D01*
X164087280Y-138278021D01*
X164786668Y-138265109D01*
X164869807Y-138263286D01*
X165411790Y-138249609D01*
X165960328Y-138232905D01*
X166496956Y-138213934D01*
X167003213Y-138193455D01*
X167460636Y-138172228D01*
X167850762Y-138151010D01*
X168155130Y-138130562D01*
X168214775Y-138125734D01*
X169963583Y-137966077D01*
X171712535Y-137783931D01*
X173448359Y-137581204D01*
X175157784Y-137359808D01*
X176827538Y-137121652D01*
X178444350Y-136868646D01*
X179994947Y-136602701D01*
X181466057Y-136325726D01*
X182844410Y-136039631D01*
X183095966Y-135984121D01*
X183363128Y-135913608D01*
X183713754Y-135804025D01*
X184132157Y-135661046D01*
X184602650Y-135490346D01*
X185109547Y-135297598D01*
X185637159Y-135088477D01*
X186108993Y-134894216D01*
X186380188Y-134776205D01*
X186713028Y-134624542D01*
X187091488Y-134447147D01*
X187499543Y-134251936D01*
X187921169Y-134046826D01*
X188340342Y-133839735D01*
X188741036Y-133638581D01*
X189107228Y-133451281D01*
X189422894Y-133285752D01*
X189672008Y-133149912D01*
X189838546Y-133051678D01*
X189839731Y-133050918D01*
X190171112Y-132838208D01*
X190206862Y-132415287D01*
X190225328Y-132143203D01*
X190238241Y-131850497D01*
X190242612Y-131621766D01*
X190242612Y-131251166D01*
X189766570Y-131541180D01*
X189506108Y-131693160D01*
X189205066Y-131857819D01*
X188877932Y-132028366D01*
X188539196Y-132198009D01*
X188203348Y-132359956D01*
X187884875Y-132507414D01*
X187598268Y-132633590D01*
X187358016Y-132731693D01*
X187178607Y-132794930D01*
X187074532Y-132816509D01*
X187056752Y-132811499D01*
X187055102Y-132755549D01*
X187055205Y-132596743D01*
X187056979Y-132340989D01*
X187060347Y-131994196D01*
X187065227Y-131562271D01*
X187071539Y-131051123D01*
X187079204Y-130466659D01*
X187088141Y-129814789D01*
X187098271Y-129101419D01*
X187109514Y-128332458D01*
X187121789Y-127513815D01*
X187135017Y-126651397D01*
X187149118Y-125751113D01*
X187164012Y-124818870D01*
X187169631Y-124471725D01*
X187184971Y-123526362D01*
X187199825Y-122609016D01*
X187214097Y-121725743D01*
X187227690Y-120882598D01*
X187240508Y-120085635D01*
X187252454Y-119340911D01*
X187263431Y-118654480D01*
X187273343Y-118032397D01*
X187282093Y-117480718D01*
X187289585Y-117005497D01*
X187295721Y-116612791D01*
X187300406Y-116308654D01*
X187303543Y-116099141D01*
X187305035Y-115990307D01*
X187305150Y-115977408D01*
X187323783Y-115845973D01*
X187384508Y-115801034D01*
X187393860Y-115800642D01*
X187479911Y-115783961D01*
X187642945Y-115738893D01*
X187857244Y-115672900D01*
X188032940Y-115615238D01*
X188600372Y-115401822D01*
X189171403Y-115145770D01*
X189718352Y-114861492D01*
X190213541Y-114563395D01*
X190629291Y-114265886D01*
X190636937Y-114259775D01*
X190761628Y-114148627D01*
X190821570Y-114046492D01*
X190839971Y-113904210D01*
X190840899Y-113827690D01*
X190836164Y-113669408D01*
X190815794Y-113597430D01*
X190770545Y-113589467D01*
X190745717Y-113598253D01*
X190344547Y-113752785D01*
X189851840Y-113924659D01*
X189282652Y-114109507D01*
X188652036Y-114302961D01*
X187975047Y-114500652D01*
X187266740Y-114698214D01*
X186542169Y-114891278D01*
X185816389Y-115075476D01*
X185104455Y-115246441D01*
X184912419Y-115290712D01*
X184192179Y-115449814D01*
X183415725Y-115611651D01*
X182597791Y-115773730D01*
X181753114Y-115933559D01*
X180896427Y-116088646D01*
X180042466Y-116236499D01*
X179205965Y-116374623D01*
X178401661Y-116500528D01*
X177644288Y-116611721D01*
X176948582Y-116705708D01*
X176329277Y-116779999D01*
X175801108Y-116832100D01*
X175798902Y-116832285D01*
X175331870Y-116868842D01*
X174770295Y-116908305D01*
X174128356Y-116949888D01*
X173420226Y-116992808D01*
X172660081Y-117036278D01*
X171862098Y-117079514D01*
X171040451Y-117121732D01*
X170209316Y-117162144D01*
X169382869Y-117199968D01*
X168575285Y-117234418D01*
X168432333Y-117240227D01*
X166941567Y-117295481D01*
X165408622Y-117343042D01*
X163846696Y-117382824D01*
X162268984Y-117414741D01*
X160688684Y-117438706D01*
X159118992Y-117454633D01*
X157573106Y-117462435D01*
X156064220Y-117462025D01*
X154605533Y-117453316D01*
X153210241Y-117436223D01*
X151891540Y-117410659D01*
X150662627Y-117376537D01*
X150184582Y-117359934D01*
X147604942Y-117247997D01*
X145126495Y-117106728D01*
X142749722Y-116936175D01*
X140475105Y-116736388D01*
X138303125Y-116507415D01*
X136234265Y-116249306D01*
X134269005Y-115962109D01*
X132407828Y-115645874D01*
X131338543Y-115441669D01*
X130958399Y-115366546D01*
X130547256Y-115286436D01*
X130144783Y-115208998D01*
X129790652Y-115141892D01*
X129652462Y-115116148D01*
X128619875Y-114898674D01*
X127604619Y-114633071D01*
X126626460Y-114325847D01*
X125705167Y-113983507D01*
X124860507Y-113612555D01*
X124439109Y-113400462D01*
X123930467Y-113131059D01*
X123433435Y-113131059D01*
X123432724Y-113051649D01*
X123428644Y-112454329D01*
X123426604Y-111925443D01*
X123426722Y-111460507D01*
X123429117Y-111055040D01*
X123429254Y-111045045D01*
X123949526Y-111045045D01*
X123950593Y-111318836D01*
X123953884Y-111593497D01*
X123968736Y-112553376D01*
X124403854Y-112794316D01*
X125123358Y-113158748D01*
X125928600Y-113505938D01*
X126796964Y-113828230D01*
X127705831Y-114117969D01*
X128632583Y-114367499D01*
X129554604Y-114569165D01*
X129760232Y-114607364D01*
X130042929Y-114659513D01*
X130394152Y-114726459D01*
X130775929Y-114800850D01*
X131150287Y-114875334D01*
X131284154Y-114902429D01*
X132759095Y-115183554D01*
X134332089Y-115447083D01*
X135993684Y-115692049D01*
X137734431Y-115917483D01*
X139544880Y-116122416D01*
X141415582Y-116305880D01*
X143337087Y-116466906D01*
X145299944Y-116604527D01*
X147294705Y-116717774D01*
X149311918Y-116805677D01*
X150130192Y-116833755D01*
X150590676Y-116848440D01*
X151035952Y-116862858D01*
X151449311Y-116876454D01*
X151814043Y-116888669D01*
X152113442Y-116898946D01*
X152330798Y-116906728D01*
X152414560Y-116909955D01*
X152596513Y-116914660D01*
X152878042Y-116918307D01*
X153249951Y-116920946D01*
X153703044Y-116922627D01*
X154228123Y-116923400D01*
X154815993Y-116923316D01*
X155457455Y-116922423D01*
X156143313Y-116920773D01*
X156864371Y-116918416D01*
X157611431Y-116915401D01*
X158375296Y-116911780D01*
X159146771Y-116907600D01*
X159916658Y-116902914D01*
X160675760Y-116897771D01*
X161414881Y-116892221D01*
X162124823Y-116886314D01*
X162796391Y-116880101D01*
X163420386Y-116873631D01*
X163987613Y-116866954D01*
X164488874Y-116860121D01*
X164914972Y-116853182D01*
X165256712Y-116846187D01*
X165504895Y-116839185D01*
X165522483Y-116838551D01*
X167096846Y-116778450D01*
X168562790Y-116718515D01*
X169920675Y-116658725D01*
X171170863Y-116599058D01*
X172313714Y-116539494D01*
X173349588Y-116480013D01*
X174278846Y-116420592D01*
X175101848Y-116361212D01*
X175818956Y-116301851D01*
X176430529Y-116242489D01*
X176936928Y-116183104D01*
X176998715Y-116174887D01*
X178525239Y-115956148D01*
X180028465Y-115716370D01*
X181498994Y-115457633D01*
X182927430Y-115182016D01*
X184304375Y-114891600D01*
X185620433Y-114588464D01*
X186866205Y-114274687D01*
X188032296Y-113952350D01*
X189109308Y-113623533D01*
X190087843Y-113290315D01*
X190174625Y-113258768D01*
X190840899Y-113015135D01*
X190840512Y-112082728D01*
X190838333Y-111743166D01*
X190832568Y-111411995D01*
X190823958Y-111117102D01*
X190813246Y-110886372D01*
X190806121Y-110790355D01*
X190772117Y-110430390D01*
X190167429Y-110714512D01*
X189035150Y-111213240D01*
X187814074Y-111689275D01*
X186522816Y-112137118D01*
X185179992Y-112551274D01*
X183804217Y-112926244D01*
X182414105Y-113256532D01*
X181028272Y-113536639D01*
X180044539Y-113704007D01*
X179361806Y-113800802D01*
X178573856Y-113894666D01*
X177684221Y-113985369D01*
X176696428Y-114072681D01*
X175614010Y-114156370D01*
X174440494Y-114236206D01*
X173179412Y-114311960D01*
X171834292Y-114383399D01*
X170408666Y-114450295D01*
X168906061Y-114512416D01*
X167330010Y-114569533D01*
X166256745Y-114604208D01*
X165628002Y-114622042D01*
X164934482Y-114638948D01*
X164186746Y-114654834D01*
X163395357Y-114669606D01*
X162570877Y-114683171D01*
X161723868Y-114695437D01*
X160864894Y-114706311D01*
X160004516Y-114715699D01*
X159153298Y-114723509D01*
X158321801Y-114729648D01*
X157520587Y-114734023D01*
X156760220Y-114736541D01*
X156051262Y-114737109D01*
X155404275Y-114735634D01*
X154829822Y-114732024D01*
X154338465Y-114726184D01*
X153940766Y-114718023D01*
X153801498Y-114713788D01*
X153113322Y-114688973D01*
X152366139Y-114660035D01*
X151570412Y-114627496D01*
X150736605Y-114591879D01*
X149875179Y-114553703D01*
X148996597Y-114513490D01*
X148111323Y-114471762D01*
X147229819Y-114429040D01*
X146362548Y-114385845D01*
X145519972Y-114342698D01*
X144712556Y-114300121D01*
X143950760Y-114258635D01*
X143245049Y-114218762D01*
X142605885Y-114181023D01*
X142043730Y-114145938D01*
X141569048Y-114114030D01*
X141192301Y-114085819D01*
X141183083Y-114085073D01*
X140047451Y-113983316D01*
X138869606Y-113859675D01*
X137661908Y-113716236D01*
X136436718Y-113555089D01*
X135206396Y-113378322D01*
X133983304Y-113188021D01*
X132779801Y-112986276D01*
X131608250Y-112775175D01*
X130481010Y-112556804D01*
X129410442Y-112333253D01*
X128408906Y-112106610D01*
X127488765Y-111878962D01*
X126662378Y-111652397D01*
X126501375Y-111604993D01*
X125933244Y-111427022D01*
X125395327Y-111242195D01*
X124909487Y-111058570D01*
X124497586Y-110884207D01*
X124327115Y-110803475D01*
X124154726Y-110719439D01*
X124024392Y-110658708D01*
X123962840Y-110633710D01*
X123961899Y-110633618D01*
X123955323Y-110685108D01*
X123951150Y-110828026D01*
X123949526Y-111045045D01*
X123429254Y-111045045D01*
X123433904Y-110704559D01*
X123441201Y-110404581D01*
X123451127Y-110150624D01*
X123463797Y-109938206D01*
X123470300Y-109864782D01*
X123955161Y-109864782D01*
X123972656Y-109967185D01*
X124054065Y-110042276D01*
X124212935Y-110143931D01*
X124427958Y-110262295D01*
X124677827Y-110387516D01*
X124941233Y-110509740D01*
X125196869Y-110619113D01*
X125423426Y-110705781D01*
X125599596Y-110759891D01*
X125704071Y-110771589D01*
X125709207Y-110770233D01*
X125777607Y-110742801D01*
X125924676Y-110681003D01*
X126129300Y-110593789D01*
X126370364Y-110490110D01*
X126389079Y-110482025D01*
X127093087Y-110193400D01*
X127885301Y-109896397D01*
X128660359Y-109627154D01*
X134936835Y-109627154D01*
X134955912Y-109809476D01*
X134990598Y-110054716D01*
X135037115Y-110341191D01*
X135091682Y-110647217D01*
X135150520Y-110951112D01*
X135209849Y-111231192D01*
X135265889Y-111465776D01*
X135290209Y-111554809D01*
X135399414Y-111881107D01*
X135533031Y-112202756D01*
X135678202Y-112493703D01*
X135822069Y-112727888D01*
X135937414Y-112866358D01*
X136009861Y-112920263D01*
X136111382Y-112964361D01*
X136261321Y-113003611D01*
X136479020Y-113042972D01*
X136783822Y-113087402D01*
X136817781Y-113092035D01*
X137176057Y-113139303D01*
X137579494Y-113190137D01*
X138011972Y-113242729D01*
X138457372Y-113295274D01*
X138899576Y-113345963D01*
X139322464Y-113392991D01*
X139709917Y-113434550D01*
X140045817Y-113468834D01*
X140314045Y-113494035D01*
X140498481Y-113508347D01*
X140554010Y-113510850D01*
X140822367Y-113516274D01*
X140064502Y-113073827D01*
X139463235Y-112713574D01*
X138840987Y-112323765D01*
X138214373Y-111915829D01*
X137600008Y-111501192D01*
X137014507Y-111091283D01*
X136474486Y-110697529D01*
X135996560Y-110331357D01*
X135597343Y-110004196D01*
X135580942Y-109990098D01*
X135313192Y-109765261D01*
X135115167Y-109612052D01*
X134989246Y-109532172D01*
X134937808Y-109527324D01*
X134937148Y-109529432D01*
X134936835Y-109627154D01*
X128660359Y-109627154D01*
X128746146Y-109597353D01*
X129656049Y-109302600D01*
X130595435Y-109018475D01*
X131544730Y-108751312D01*
X132484360Y-108507444D01*
X132511017Y-108500845D01*
X132848126Y-108415723D01*
X133145788Y-108337125D01*
X133389111Y-108269271D01*
X133563203Y-108216377D01*
X133653173Y-108182661D01*
X133662229Y-108174809D01*
X133623939Y-108123244D01*
X133525424Y-108004448D01*
X133378697Y-107832523D01*
X133195766Y-107621572D01*
X133033409Y-107436440D01*
X132416711Y-106736537D01*
X132081589Y-106784194D01*
X131132987Y-106925818D01*
X130282607Y-107067384D01*
X129519916Y-107211076D01*
X128834380Y-107359082D01*
X128215466Y-107513588D01*
X127652638Y-107676778D01*
X127422483Y-107751085D01*
X126730362Y-107991920D01*
X126133493Y-108222246D01*
X125619576Y-108447841D01*
X125176312Y-108674487D01*
X124791401Y-108907962D01*
X124475463Y-109135943D01*
X124277362Y-109316979D01*
X124116129Y-109512820D01*
X124004488Y-109702432D01*
X123955161Y-109864782D01*
X123470300Y-109864782D01*
X123479329Y-109762845D01*
X123497841Y-109620057D01*
X123519450Y-109505361D01*
X123544273Y-109414273D01*
X123572428Y-109342313D01*
X123604032Y-109284996D01*
X123639202Y-109237841D01*
X123678056Y-109196366D01*
X123720710Y-109156087D01*
X123767283Y-109112523D01*
X123817891Y-109061191D01*
X123833307Y-109044248D01*
X124094137Y-108785148D01*
X124405800Y-108540200D01*
X124779535Y-108302931D01*
X125226582Y-108066870D01*
X125758182Y-107825545D01*
X126385573Y-107572485D01*
X126397323Y-107567971D01*
X127158044Y-107295781D01*
X127945945Y-107054526D01*
X128779044Y-106839764D01*
X129675363Y-106647053D01*
X130652919Y-106471949D01*
X131175374Y-106389976D01*
X131454646Y-106347065D01*
X131692933Y-106308715D01*
X131870843Y-106278182D01*
X131968981Y-106258724D01*
X131981873Y-106254531D01*
X131956762Y-106208306D01*
X131875375Y-106093950D01*
X131749878Y-105927883D01*
X131592437Y-105726522D01*
X131565508Y-105692645D01*
X130819175Y-104730149D01*
X130096588Y-103747786D01*
X129406150Y-102758618D01*
X128756261Y-101775706D01*
X128155324Y-100812113D01*
X127611740Y-99880901D01*
X127133910Y-98995131D01*
X126741981Y-98193433D01*
X126451393Y-97522752D01*
X126200171Y-96853332D01*
X125984386Y-96168756D01*
X125800105Y-95452609D01*
X125643396Y-94688472D01*
X125510328Y-93859930D01*
X125396969Y-92950567D01*
X125331612Y-92304282D01*
X125226377Y-90973801D01*
X125161888Y-89684482D01*
X125137519Y-88441838D01*
X125146508Y-87734232D01*
X125660782Y-87734232D01*
X125663618Y-88925616D01*
X125684310Y-89672035D01*
X125745209Y-90940112D01*
X125831025Y-92107827D01*
X125942662Y-93180911D01*
X126081027Y-94165098D01*
X126247025Y-95066121D01*
X126441559Y-95889714D01*
X126665537Y-96641609D01*
X126875783Y-97218697D01*
X127209299Y-97987769D01*
X127618375Y-98815167D01*
X128094915Y-99689681D01*
X128630825Y-100600103D01*
X129218011Y-101535223D01*
X129848379Y-102483832D01*
X130513834Y-103434722D01*
X131206282Y-104376682D01*
X131917628Y-105298504D01*
X132639779Y-106188979D01*
X133364639Y-107036898D01*
X134084115Y-107831051D01*
X134790113Y-108560230D01*
X135474537Y-109213224D01*
X135653216Y-109373806D01*
X136078631Y-109733308D01*
X136584499Y-110131012D01*
X137154507Y-110555428D01*
X137772342Y-110995068D01*
X138421690Y-111438442D01*
X139086239Y-111874061D01*
X139749674Y-112290435D01*
X140068094Y-112483167D01*
X140406431Y-112679216D01*
X140766208Y-112877065D01*
X141131165Y-113068772D01*
X141485040Y-113246394D01*
X141811570Y-113401990D01*
X142094497Y-113527617D01*
X142317557Y-113615333D01*
X142464490Y-113657196D01*
X142474708Y-113658593D01*
X142624681Y-113671809D01*
X142874209Y-113689063D01*
X143214161Y-113709928D01*
X143635404Y-113733977D01*
X144128807Y-113760784D01*
X144685236Y-113789921D01*
X145295560Y-113820962D01*
X145950646Y-113853479D01*
X146641363Y-113887048D01*
X147358578Y-113921240D01*
X148093159Y-113955628D01*
X148835973Y-113989787D01*
X149577890Y-114023288D01*
X150309776Y-114055706D01*
X151022499Y-114086614D01*
X151706927Y-114115585D01*
X152353928Y-114142192D01*
X152954370Y-114166008D01*
X153499121Y-114186607D01*
X153979048Y-114203561D01*
X154385019Y-114216445D01*
X154454175Y-114218429D01*
X155056934Y-114235100D01*
X155559584Y-114248300D01*
X155970735Y-114258091D01*
X156299001Y-114264535D01*
X156552993Y-114267695D01*
X156741324Y-114267634D01*
X156872604Y-114264413D01*
X156955448Y-114258094D01*
X156998465Y-114248742D01*
X157010289Y-114236937D01*
X156968008Y-114177936D01*
X156854284Y-114073669D01*
X156688329Y-113938994D01*
X156489354Y-113788770D01*
X156276569Y-113637855D01*
X156069185Y-113501108D01*
X156017511Y-113469092D01*
X155755562Y-113314117D01*
X155483229Y-113163415D01*
X155190213Y-113012450D01*
X154866217Y-112856687D01*
X154500942Y-112691588D01*
X154084091Y-112512617D01*
X153605365Y-112315239D01*
X153054467Y-112094917D01*
X152421099Y-111847114D01*
X151734689Y-111582522D01*
X151298297Y-111414310D01*
X150863436Y-111245029D01*
X150448824Y-111082087D01*
X150073180Y-110932892D01*
X149755221Y-110804850D01*
X149513666Y-110705369D01*
X149450321Y-110678534D01*
X148389172Y-110178832D01*
X147371477Y-109605238D01*
X146375454Y-108944805D01*
X145752242Y-108480614D01*
X145426864Y-108213504D01*
X145051708Y-107881125D01*
X144645879Y-107502401D01*
X144228482Y-107096253D01*
X143818622Y-106681606D01*
X143435404Y-106277381D01*
X143097933Y-105902501D01*
X142846500Y-105602569D01*
X142183775Y-104716477D01*
X141573013Y-103786860D01*
X141021199Y-102828179D01*
X140535321Y-101854897D01*
X140122364Y-100881475D01*
X139789315Y-99922374D01*
X139543161Y-98992057D01*
X139465798Y-98604627D01*
X139424437Y-98376777D01*
X139388811Y-98186755D01*
X139364117Y-98061995D01*
X139357270Y-98031821D01*
X139313608Y-98008168D01*
X139196712Y-98017905D01*
X138995153Y-98062593D01*
X138849546Y-98101131D01*
X138403897Y-98214748D01*
X137889845Y-98331931D01*
X137347132Y-98444525D01*
X136815500Y-98544374D01*
X136334693Y-98623323D01*
X136233618Y-98637928D01*
X135851741Y-98689014D01*
X135495968Y-98732194D01*
X135182046Y-98765934D01*
X134925722Y-98788700D01*
X134742743Y-98798957D01*
X134648855Y-98795171D01*
X134642719Y-98792928D01*
X134617752Y-98729526D01*
X134603336Y-98597050D01*
X134601927Y-98535085D01*
X134601927Y-98299932D01*
X135023447Y-98262160D01*
X135739275Y-98181649D01*
X136515238Y-98065404D01*
X137311507Y-97920581D01*
X138088248Y-97754336D01*
X138708351Y-97600197D01*
X139252248Y-97454638D01*
X139254050Y-96141218D01*
X139745774Y-96141218D01*
X139750446Y-96463981D01*
X139760989Y-96753295D01*
X139776907Y-96991842D01*
X139797701Y-97162303D01*
X139822875Y-97247358D01*
X139832515Y-97253747D01*
X139932701Y-97232594D01*
X140114807Y-97173748D01*
X140361540Y-97084129D01*
X140655611Y-96970658D01*
X140979728Y-96840253D01*
X141316601Y-96699836D01*
X141648938Y-96556326D01*
X141959448Y-96416642D01*
X142159425Y-96322502D01*
X142768072Y-96018521D01*
X143321593Y-95717334D01*
X143836387Y-95407018D01*
X144328853Y-95075646D01*
X144815391Y-94711293D01*
X145312400Y-94302035D01*
X145836279Y-93835945D01*
X146403427Y-93301099D01*
X146667346Y-93044400D01*
X147588736Y-92093098D01*
X148446370Y-91109983D01*
X149234929Y-90103440D01*
X149949094Y-89081854D01*
X150583546Y-88053611D01*
X151132966Y-87027096D01*
X151592036Y-86010693D01*
X151955437Y-85012789D01*
X152119326Y-84449404D01*
X152188833Y-84165958D01*
X152250225Y-83881074D01*
X152295406Y-83634183D01*
X152312881Y-83506745D01*
X152347998Y-83166809D01*
X152615768Y-83166809D01*
X152883538Y-83166809D01*
X152849266Y-83425160D01*
X152711976Y-84202405D01*
X152502196Y-84998152D01*
X152215737Y-85825031D01*
X151848410Y-86695671D01*
X151573138Y-87273233D01*
X151050880Y-88263294D01*
X150487919Y-89204012D01*
X149867536Y-90120715D01*
X149173013Y-91038730D01*
X148727680Y-91584092D01*
X148386362Y-91976565D01*
X147988079Y-92409123D01*
X147548272Y-92866815D01*
X147082384Y-93334695D01*
X146605854Y-93797811D01*
X146134125Y-94241217D01*
X145682638Y-94649964D01*
X145266834Y-95009101D01*
X144902155Y-95303682D01*
X144824619Y-95362618D01*
X144307897Y-95721226D01*
X143707747Y-96089106D01*
X143047441Y-96454375D01*
X142350254Y-96805147D01*
X141639457Y-97129537D01*
X140938325Y-97415661D01*
X140476016Y-97583307D01*
X140252171Y-97662479D01*
X140066280Y-97733095D01*
X139943144Y-97785467D01*
X139908844Y-97804831D01*
X139893036Y-97880660D01*
X139902714Y-98043867D01*
X139934688Y-98276900D01*
X139985767Y-98562204D01*
X140052759Y-98882227D01*
X140132476Y-99219416D01*
X140221725Y-99556217D01*
X140236916Y-99609732D01*
X140612397Y-100732021D01*
X141089245Y-101844102D01*
X141660049Y-102936014D01*
X142317397Y-103997798D01*
X143053877Y-105019493D01*
X143862078Y-105991140D01*
X144734587Y-106902779D01*
X145663994Y-107744449D01*
X146642886Y-108506191D01*
X147084368Y-108811474D01*
X147467894Y-109060903D01*
X147840243Y-109289458D01*
X148214877Y-109503575D01*
X148605261Y-109709692D01*
X149024859Y-109914246D01*
X149487135Y-110123675D01*
X150005553Y-110344416D01*
X150593577Y-110582906D01*
X151264672Y-110845583D01*
X151641228Y-110990161D01*
X152303918Y-111244240D01*
X152876469Y-111466088D01*
X153370937Y-111660744D01*
X153799377Y-111833247D01*
X154173847Y-111988634D01*
X154506403Y-112131944D01*
X154809100Y-112268216D01*
X155093996Y-112402487D01*
X155373146Y-112539796D01*
X155487580Y-112597553D01*
X156039526Y-112896260D01*
X156534154Y-113200855D01*
X156958394Y-113502284D01*
X157299175Y-113791492D01*
X157474292Y-113973908D01*
X157690363Y-114224902D01*
X159888463Y-114196926D01*
X160403264Y-114190620D01*
X160914727Y-114184810D01*
X161405573Y-114179662D01*
X161858523Y-114175339D01*
X162256297Y-114172004D01*
X162581617Y-114169822D01*
X162817202Y-114168958D01*
X162835441Y-114168950D01*
X163137215Y-114167607D01*
X163347467Y-114162172D01*
X163483433Y-114150538D01*
X163555475Y-114132333D01*
X164119292Y-114132333D01*
X165644562Y-114098222D01*
X166121034Y-114086638D01*
X166672611Y-114071689D01*
X167265708Y-114054383D01*
X167866740Y-114035728D01*
X168442119Y-114016731D01*
X168902475Y-114000461D01*
X169328703Y-113983511D01*
X169721974Y-113965400D01*
X170068574Y-113946954D01*
X170354790Y-113928996D01*
X170566907Y-113912353D01*
X170691213Y-113897847D01*
X170716702Y-113891365D01*
X170767379Y-113854516D01*
X170715353Y-113844436D01*
X170707480Y-113844266D01*
X170604421Y-113824688D01*
X170416900Y-113771871D01*
X170161962Y-113691675D01*
X169856654Y-113589961D01*
X169518023Y-113472591D01*
X169163115Y-113345424D01*
X168808975Y-113214321D01*
X168472652Y-113085145D01*
X168301322Y-113016992D01*
X167899438Y-112848638D01*
X167439153Y-112645642D01*
X166945939Y-112420062D01*
X166445272Y-112183957D01*
X165962623Y-111949384D01*
X165523468Y-111728400D01*
X165153279Y-111533064D01*
X165073871Y-111489304D01*
X164865334Y-111374518D01*
X164732635Y-111308302D01*
X164657048Y-111285461D01*
X164619847Y-111300803D01*
X164602304Y-111349134D01*
X164600401Y-111358000D01*
X164584610Y-111444897D01*
X164554294Y-111621864D01*
X164512349Y-111871600D01*
X164461675Y-112176799D01*
X164405169Y-112520159D01*
X164380125Y-112673233D01*
X164321603Y-113028552D01*
X164267080Y-113353948D01*
X164219568Y-113631884D01*
X164182081Y-113844823D01*
X164157632Y-113975228D01*
X164152000Y-114001070D01*
X164119292Y-114132333D01*
X163555475Y-114132333D01*
X163562353Y-114130595D01*
X163601463Y-114100236D01*
X163613750Y-114073768D01*
X163635532Y-113976919D01*
X163671137Y-113787249D01*
X163718182Y-113519504D01*
X163774285Y-113188428D01*
X163837062Y-112808766D01*
X163904131Y-112395263D01*
X163973109Y-111962665D01*
X164041614Y-111525716D01*
X164107263Y-111099161D01*
X164167672Y-110697746D01*
X164220460Y-110336214D01*
X164239969Y-110198501D01*
X164439871Y-108693043D01*
X164605486Y-107269395D01*
X164738388Y-105906668D01*
X164840149Y-104583973D01*
X164912340Y-103280421D01*
X164956535Y-101975121D01*
X164974306Y-100647186D01*
X164974798Y-100435546D01*
X164968113Y-99371284D01*
X164945082Y-98401112D01*
X164904220Y-97511362D01*
X164844042Y-96688363D01*
X164763065Y-95918448D01*
X164659804Y-95187946D01*
X164532774Y-94483188D01*
X164380490Y-93790505D01*
X164201469Y-93096229D01*
X164162602Y-92956959D01*
X163601325Y-91157280D01*
X162950944Y-89419256D01*
X162209925Y-87740010D01*
X161376734Y-86116663D01*
X160449837Y-84546337D01*
X159427701Y-83026156D01*
X158308791Y-81553242D01*
X157679969Y-80795412D01*
X157219694Y-80273938D01*
X156703929Y-79719527D01*
X156147835Y-79146664D01*
X155566574Y-78569835D01*
X154975309Y-78003528D01*
X154389202Y-77462228D01*
X153823414Y-76960422D01*
X153293109Y-76512596D01*
X152813448Y-76133236D01*
X152751508Y-76086644D01*
X152368919Y-75825265D01*
X153338525Y-75825265D01*
X153364232Y-75877236D01*
X153456309Y-75970550D01*
X153561208Y-76058197D01*
X153774808Y-76232873D01*
X154051270Y-76471655D01*
X154376666Y-76761599D01*
X154737070Y-77089764D01*
X155118552Y-77443207D01*
X155507185Y-77808987D01*
X155889041Y-78174161D01*
X156250193Y-78525786D01*
X156576712Y-78850922D01*
X156684938Y-78960874D01*
X157941987Y-80317579D01*
X159102735Y-81719721D01*
X160169894Y-83171751D01*
X161146176Y-84678123D01*
X162034294Y-86243290D01*
X162836958Y-87871705D01*
X163556882Y-89567820D01*
X164165899Y-91243683D01*
X164435749Y-92077467D01*
X164669068Y-92867697D01*
X164868092Y-93629746D01*
X165035054Y-94378989D01*
X165172190Y-95130797D01*
X165281733Y-95900546D01*
X165365918Y-96703607D01*
X165426979Y-97555356D01*
X165467151Y-98471165D01*
X165488669Y-99466407D01*
X165493961Y-100381156D01*
X165465293Y-102350952D01*
X165378291Y-104269456D01*
X165230659Y-106178613D01*
X165114385Y-107315845D01*
X165014636Y-108213276D01*
X165375880Y-108580406D01*
X165535959Y-108739237D01*
X165668394Y-108863473D01*
X165754506Y-108935952D01*
X165775441Y-108947537D01*
X165820420Y-108905260D01*
X165909287Y-108791853D01*
X166026740Y-108627450D01*
X166094756Y-108527410D01*
X166308001Y-108176676D01*
X166538785Y-107740914D01*
X166768434Y-107261456D01*
X167355054Y-107261456D01*
X167526563Y-107261735D01*
X167851276Y-107267640D01*
X168271803Y-107283828D01*
X168775764Y-107309346D01*
X169350777Y-107343237D01*
X169984458Y-107384549D01*
X170664426Y-107432326D01*
X171378299Y-107485615D01*
X172113695Y-107543459D01*
X172858232Y-107604906D01*
X173599527Y-107668999D01*
X174325199Y-107734786D01*
X175022865Y-107801310D01*
X175680144Y-107867619D01*
X176284653Y-107932757D01*
X176400428Y-107945821D01*
X177332527Y-108057867D01*
X178288138Y-108184041D01*
X179258203Y-108322578D01*
X180233665Y-108471717D01*
X181205466Y-108629692D01*
X182164549Y-108794741D01*
X183101857Y-108965101D01*
X184008332Y-109139008D01*
X184874916Y-109314699D01*
X185692553Y-109490411D01*
X186452184Y-109664379D01*
X187144753Y-109834841D01*
X187761202Y-110000034D01*
X188292474Y-110158194D01*
X188729510Y-110307557D01*
X188922617Y-110383716D01*
X189097654Y-110453831D01*
X189236361Y-110503393D01*
X189300021Y-110520100D01*
X189371144Y-110499840D01*
X189519251Y-110441109D01*
X189723353Y-110352709D01*
X189962465Y-110243443D01*
X189986184Y-110232323D01*
X190225173Y-110117129D01*
X190427249Y-110014263D01*
X190572368Y-109934321D01*
X190640484Y-109887894D01*
X190642240Y-109885584D01*
X190634494Y-109803639D01*
X190559503Y-109673848D01*
X190434209Y-109517251D01*
X190275555Y-109354887D01*
X190100485Y-109207795D01*
X190090423Y-109200351D01*
X189851523Y-109046673D01*
X189537273Y-108876086D01*
X189176671Y-108702411D01*
X188798717Y-108539468D01*
X188432407Y-108401078D01*
X188366166Y-108378583D01*
X187968476Y-108255581D01*
X187479688Y-108119654D01*
X186916205Y-107974511D01*
X186294430Y-107823861D01*
X185630765Y-107671411D01*
X184941613Y-107520871D01*
X184243377Y-107375949D01*
X183552459Y-107240354D01*
X182885261Y-107117793D01*
X182487350Y-107049419D01*
X181899976Y-106953422D01*
X181339804Y-106866272D01*
X180794966Y-106786723D01*
X180253594Y-106713527D01*
X179703820Y-106645437D01*
X179133777Y-106581207D01*
X178531595Y-106519589D01*
X177885409Y-106459336D01*
X177183349Y-106399201D01*
X176413548Y-106337937D01*
X175564138Y-106274297D01*
X174623252Y-106207034D01*
X174170449Y-106175501D01*
X173777374Y-106149283D01*
X173333321Y-106121345D01*
X172849311Y-106092245D01*
X172336362Y-106062542D01*
X171805494Y-106032796D01*
X171267727Y-106003565D01*
X170734080Y-105975410D01*
X170215574Y-105948890D01*
X169723228Y-105924562D01*
X169268062Y-105902988D01*
X168861094Y-105884725D01*
X168513346Y-105870334D01*
X168235836Y-105860373D01*
X168039585Y-105855402D01*
X167935611Y-105855980D01*
X167921715Y-105858395D01*
X167899600Y-105911915D01*
X167844497Y-106047562D01*
X167764014Y-106246544D01*
X167665763Y-106490069D01*
X167634369Y-106567987D01*
X167355054Y-107261456D01*
X166768434Y-107261456D01*
X166778394Y-107240661D01*
X167018114Y-106696452D01*
X167249233Y-106128824D01*
X167463036Y-105558314D01*
X167650811Y-105005457D01*
X167797296Y-104514775D01*
X167878834Y-104218960D01*
X167980126Y-103853562D01*
X168091407Y-103453694D01*
X168202909Y-103054471D01*
X168273814Y-102801498D01*
X168372930Y-102448243D01*
X168471989Y-102094749D01*
X168563311Y-101768447D01*
X168639220Y-101496767D01*
X168684860Y-101332976D01*
X168786954Y-100932133D01*
X168870293Y-100524673D01*
X168936700Y-100093715D01*
X168988000Y-99622380D01*
X169026019Y-99093787D01*
X169052581Y-98491058D01*
X169069511Y-97797312D01*
X169069963Y-97770449D01*
X169077375Y-97192971D01*
X169078376Y-96701296D01*
X169072424Y-96272606D01*
X169058974Y-95884083D01*
X169037482Y-95512908D01*
X169007404Y-95136263D01*
X169007072Y-95132548D01*
X168793284Y-93302995D01*
X168476939Y-91442755D01*
X168058984Y-89554612D01*
X167540366Y-87641349D01*
X166922030Y-85705748D01*
X166204923Y-83750593D01*
X165389992Y-81778666D01*
X164478182Y-79792750D01*
X163470439Y-77795628D01*
X162522112Y-76061258D01*
X162117327Y-75346500D01*
X161406523Y-75306964D01*
X160981074Y-75292137D01*
X160464916Y-75288763D01*
X159875427Y-75296040D01*
X159229985Y-75313168D01*
X158545968Y-75339346D01*
X157840755Y-75373774D01*
X157131723Y-75415651D01*
X156436251Y-75464176D01*
X155771716Y-75518549D01*
X155155498Y-75577970D01*
X154889293Y-75607208D01*
X154443842Y-75658450D01*
X154094525Y-75699059D01*
X153829398Y-75730715D01*
X153636515Y-75755096D01*
X153503930Y-75773884D01*
X153419698Y-75788757D01*
X153371872Y-75801396D01*
X153348509Y-75813479D01*
X153338525Y-75825265D01*
X152368919Y-75825265D01*
X151700724Y-75368765D01*
X150574676Y-74727865D01*
X149375756Y-74164749D01*
X148106359Y-73680223D01*
X146768876Y-73275094D01*
X145365701Y-72950165D01*
X143899226Y-72706244D01*
X142371845Y-72544135D01*
X142189293Y-72530553D01*
X141699785Y-72495727D01*
X142277774Y-73085765D01*
X142941142Y-73812888D01*
X143499522Y-74533992D01*
X143956125Y-75254309D01*
X144314157Y-75979072D01*
X144576828Y-76713512D01*
X144636303Y-76931734D01*
X144751552Y-77517657D01*
X144803703Y-78102148D01*
X144792805Y-78661549D01*
X144718904Y-79172198D01*
X144631218Y-79483713D01*
X144592372Y-79610924D01*
X144596477Y-79700049D01*
X144654946Y-79794062D01*
X144739559Y-79891636D01*
X145066129Y-80328512D01*
X145296229Y-80804308D01*
X145433061Y-81327828D01*
X145479826Y-81907874D01*
X145479871Y-81927605D01*
X145442649Y-82523254D01*
X145328037Y-83049837D01*
X145131613Y-83518962D01*
X144848956Y-83942239D01*
X144613947Y-84201202D01*
X144259887Y-84500420D01*
X143868702Y-84741664D01*
X143464596Y-84913493D01*
X143071771Y-85004466D01*
X142890260Y-85016059D01*
X142822196Y-85014578D01*
X142766015Y-85016623D01*
X142716368Y-85031934D01*
X142667910Y-85070246D01*
X142615291Y-85141296D01*
X142553165Y-85254822D01*
X142476185Y-85420560D01*
X142379002Y-85648248D01*
X142256270Y-85947622D01*
X142102641Y-86328419D01*
X141919474Y-86783725D01*
X141388042Y-88165069D01*
X140934157Y-89479333D01*
X140555954Y-90733782D01*
X140251568Y-91935676D01*
X140019133Y-93092279D01*
X139856785Y-94210854D01*
X139771962Y-95145423D01*
X139756035Y-95464620D01*
X139747471Y-95802325D01*
X139745774Y-96141218D01*
X139254050Y-96141218D01*
X139254158Y-96062437D01*
X139258840Y-95476491D01*
X139272996Y-94969833D01*
X139299408Y-94513178D01*
X139340859Y-94077241D01*
X139400130Y-93632736D01*
X139480004Y-93150379D01*
X139582765Y-92603426D01*
X139844858Y-91414668D01*
X140175472Y-90183415D01*
X140577099Y-88901787D01*
X141052229Y-87561907D01*
X141603351Y-86155896D01*
X141677864Y-85974726D01*
X141796440Y-85680402D01*
X141895192Y-85420756D01*
X141968324Y-85212276D01*
X142010041Y-85071447D01*
X142015119Y-85015169D01*
X141940641Y-84981046D01*
X141798358Y-84936642D01*
X141699785Y-84911145D01*
X141316110Y-84783311D01*
X140902482Y-84584769D01*
X140490074Y-84334792D01*
X140110058Y-84052654D01*
X139793606Y-83757630D01*
X139742659Y-83701043D01*
X139516246Y-83384399D01*
X139319442Y-83002411D01*
X139171609Y-82598030D01*
X139099759Y-82274725D01*
X139086341Y-81916797D01*
X139636136Y-81916797D01*
X139636961Y-82180980D01*
X139646983Y-82369665D01*
X139672334Y-82516088D01*
X139719147Y-82653489D01*
X139793554Y-82815104D01*
X139806900Y-82842323D01*
X140062398Y-83249449D01*
X140398732Y-83614526D01*
X140798587Y-83929285D01*
X141244646Y-84185456D01*
X141719594Y-84374770D01*
X142206114Y-84488959D01*
X142686891Y-84519754D01*
X143144609Y-84458885D01*
X143175466Y-84450943D01*
X143484664Y-84342903D01*
X143798886Y-84189300D01*
X144081665Y-84010644D01*
X144296532Y-83827443D01*
X144309894Y-83812985D01*
X144547333Y-83486534D01*
X144746184Y-83089131D01*
X144893477Y-82655543D01*
X144976239Y-82220540D01*
X144989559Y-81991256D01*
X144941055Y-81457308D01*
X144796215Y-80960875D01*
X144560812Y-80512406D01*
X144240619Y-80122351D01*
X143841406Y-79801160D01*
X143747790Y-79743270D01*
X143352334Y-79533507D01*
X142991707Y-79398052D01*
X142631230Y-79327540D01*
X142236225Y-79312601D01*
X142162098Y-79314957D01*
X141891320Y-79331030D01*
X141687292Y-79359812D01*
X141508040Y-79410552D01*
X141311590Y-79492495D01*
X141271318Y-79511199D01*
X140762666Y-79803767D01*
X140338568Y-80164543D01*
X139999357Y-80593191D01*
X139760809Y-81051367D01*
X139700940Y-81219017D01*
X139663418Y-81393356D01*
X139643458Y-81607611D01*
X139636273Y-81895007D01*
X139636136Y-81916797D01*
X139086341Y-81916797D01*
X139081866Y-81797441D01*
X139156947Y-81293020D01*
X139320880Y-80783371D01*
X139422695Y-80557846D01*
X139691665Y-80125757D01*
X140043589Y-79732876D01*
X140459919Y-79390925D01*
X140922104Y-79111625D01*
X141411593Y-78906696D01*
X141909836Y-78787858D01*
X142264703Y-78762186D01*
X142664119Y-78799628D01*
X143100616Y-78902068D01*
X143533143Y-79058818D01*
X143697433Y-79135122D01*
X143889376Y-79226055D01*
X144041279Y-79289053D01*
X144129919Y-79314878D01*
X144142777Y-79312292D01*
X144190050Y-79179895D01*
X144229058Y-78964465D01*
X144257375Y-78691594D01*
X144272575Y-78386870D01*
X144272234Y-78075886D01*
X144268683Y-77984070D01*
X144192923Y-77326940D01*
X144027736Y-76675065D01*
X143769823Y-76020905D01*
X143415882Y-75356920D01*
X142962613Y-74675569D01*
X142629844Y-74240591D01*
X142353243Y-73912874D01*
X142045482Y-73577751D01*
X141727528Y-73256000D01*
X141420348Y-72968399D01*
X141144911Y-72735727D01*
X141010604Y-72635961D01*
X140784419Y-72479229D01*
X139909554Y-72494458D01*
X139175293Y-72519171D01*
X138417818Y-72566787D01*
X137654177Y-72634963D01*
X136901416Y-72721353D01*
X136176581Y-72823614D01*
X135496720Y-72939403D01*
X134878879Y-73066374D01*
X134340104Y-73202184D01*
X134003640Y-73306549D01*
X133546001Y-73477124D01*
X133070286Y-73678354D01*
X132598659Y-73899092D01*
X132153289Y-74128193D01*
X131756342Y-74354512D01*
X131429983Y-74566902D01*
X131295306Y-74668322D01*
X131147091Y-74788823D01*
X131040857Y-74889053D01*
X130975273Y-74987029D01*
X130949004Y-75100765D01*
X130960719Y-75248277D01*
X131009085Y-75447580D01*
X131092770Y-75716689D01*
X131194850Y-76026400D01*
X131390009Y-76638251D01*
X131591127Y-77307930D01*
X131793649Y-78017546D01*
X131993021Y-78749209D01*
X132184687Y-79485027D01*
X132364093Y-80207112D01*
X132526685Y-80897572D01*
X132667908Y-81538517D01*
X132783206Y-82112056D01*
X132867316Y-82595717D01*
X132900849Y-82883826D01*
X132923340Y-83227194D01*
X132934799Y-83599044D01*
X132935236Y-83972596D01*
X132924660Y-84321070D01*
X132903083Y-84617688D01*
X132870514Y-84835671D01*
X132866462Y-84852890D01*
X132746791Y-85222250D01*
X132597217Y-85500241D01*
X132424573Y-85684211D01*
X132235692Y-85771506D01*
X132037406Y-85759473D01*
X131836547Y-85645458D01*
X131639949Y-85426809D01*
X131588315Y-85349220D01*
X131440603Y-85066155D01*
X131290892Y-84689841D01*
X131143724Y-84235614D01*
X131003641Y-83718807D01*
X130875187Y-83154756D01*
X130764554Y-82568522D01*
X130680532Y-82159680D01*
X130565788Y-81727246D01*
X130426292Y-81284690D01*
X130268009Y-80845479D01*
X130096909Y-80423082D01*
X129918959Y-80030968D01*
X129740127Y-79682604D01*
X129566380Y-79391459D01*
X129403688Y-79171002D01*
X129258017Y-79034700D01*
X129183044Y-78999352D01*
X129012637Y-79002394D01*
X128783402Y-79072788D01*
X128513223Y-79200758D01*
X128219984Y-79376534D01*
X127921571Y-79590341D01*
X127635867Y-79832407D01*
X127603959Y-79862253D01*
X127261393Y-80252017D01*
X126949450Y-80741965D01*
X126669000Y-81327646D01*
X126420913Y-82004611D01*
X126206060Y-82768412D01*
X126025313Y-83614600D01*
X125879540Y-84538725D01*
X125769614Y-85536338D01*
X125696405Y-86602990D01*
X125660782Y-87734232D01*
X125146508Y-87734232D01*
X125152642Y-87251381D01*
X125206631Y-86118626D01*
X125298857Y-85049084D01*
X125428694Y-84048270D01*
X125595515Y-83121695D01*
X125798693Y-82274874D01*
X126037599Y-81513320D01*
X126311608Y-80842545D01*
X126620091Y-80268062D01*
X126718081Y-80117061D01*
X127034966Y-79710479D01*
X127400493Y-79343337D01*
X127797382Y-79027537D01*
X128208349Y-78774979D01*
X128616115Y-78597562D01*
X129003398Y-78507187D01*
X129064262Y-78501457D01*
X129427883Y-78475179D01*
X129725851Y-78773147D01*
X129941717Y-79034442D01*
X130164852Y-79387496D01*
X130388671Y-79816174D01*
X130606592Y-80304341D01*
X130812030Y-80835863D01*
X130998402Y-81394604D01*
X131159125Y-81964430D01*
X131287613Y-82529205D01*
X131313072Y-82663022D01*
X131379952Y-83005065D01*
X131459449Y-83374278D01*
X131541339Y-83724950D01*
X131611578Y-83997617D01*
X131699159Y-84286238D01*
X131798223Y-84566862D01*
X131900558Y-84820661D01*
X131997950Y-85028812D01*
X132082187Y-85172488D01*
X132145056Y-85232865D01*
X132150801Y-85233618D01*
X132194167Y-85186616D01*
X132254317Y-85065384D01*
X132299590Y-84948072D01*
X132337440Y-84821537D01*
X132364373Y-84679924D01*
X132381937Y-84503126D01*
X132391676Y-84271039D01*
X132395137Y-83963556D01*
X132394738Y-83710706D01*
X132391000Y-83337078D01*
X132381470Y-83038884D01*
X132362807Y-82782806D01*
X132331672Y-82535527D01*
X132284726Y-82263730D01*
X132218630Y-81934096D01*
X132214835Y-81915845D01*
X132060317Y-81202043D01*
X131888955Y-80461021D01*
X131704861Y-79707716D01*
X131512148Y-78957068D01*
X131314928Y-78224013D01*
X131117313Y-77523490D01*
X130923414Y-76870436D01*
X130737345Y-76279789D01*
X130563217Y-75766487D01*
X130408238Y-75353183D01*
X130366772Y-75147252D01*
X130411730Y-74936702D01*
X130547954Y-74710445D01*
X130780285Y-74457393D01*
X130812806Y-74426613D01*
X131113492Y-74173916D01*
X131472914Y-73926018D01*
X131901005Y-73677507D01*
X132407696Y-73422970D01*
X133002919Y-73156995D01*
X133568522Y-72924777D01*
X134096090Y-72742463D01*
X134717496Y-72575169D01*
X135418610Y-72424663D01*
X136185299Y-72292715D01*
X137003432Y-72181096D01*
X137858879Y-72091574D01*
X138737507Y-72025920D01*
X139625187Y-71985903D01*
X140507785Y-71973294D01*
X141101498Y-71981371D01*
G37*
G36*
X174534936Y-123291887D02*
G01*
X174799061Y-123307623D01*
X175117276Y-123334180D01*
X175472188Y-123369475D01*
X175846404Y-123411421D01*
X176222534Y-123457934D01*
X176583184Y-123506929D01*
X176910962Y-123556321D01*
X177188476Y-123604024D01*
X177398333Y-123647953D01*
X177523142Y-123686025D01*
X177543298Y-123697409D01*
X177646815Y-123834944D01*
X177727204Y-124052055D01*
X177776188Y-124320553D01*
X177787366Y-124528629D01*
X177773683Y-124900551D01*
X177734629Y-125358127D01*
X177673197Y-125881992D01*
X177592379Y-126452784D01*
X177495169Y-127051139D01*
X177384557Y-127657694D01*
X177263538Y-128253085D01*
X177135103Y-128817949D01*
X177106259Y-128935760D01*
X176995153Y-129379990D01*
X176904818Y-129731295D01*
X176830974Y-130002606D01*
X176769338Y-130206854D01*
X176715631Y-130356969D01*
X176665570Y-130465882D01*
X176614875Y-130546523D01*
X176559265Y-130611823D01*
X176547287Y-130624069D01*
X176473070Y-130693733D01*
X176402081Y-130735240D01*
X176306991Y-130753487D01*
X176160469Y-130753374D01*
X175935184Y-130739800D01*
X175910920Y-130738141D01*
X175660497Y-130719519D01*
X175424163Y-130699432D01*
X175242781Y-130681426D01*
X175203854Y-130676790D01*
X175094782Y-130664514D01*
X175080015Y-130669392D01*
X175163946Y-130694634D01*
X175264580Y-130721168D01*
X175665873Y-130878187D01*
X176040790Y-131125816D01*
X176368291Y-131446016D01*
X176627333Y-131820748D01*
X176689217Y-131942529D01*
X176760879Y-132111568D01*
X176804635Y-132267381D01*
X176827033Y-132447155D01*
X176834622Y-132688076D01*
X176834984Y-132770235D01*
X176831631Y-133027523D01*
X176815998Y-133214447D01*
X176780721Y-133369309D01*
X176718436Y-133530414D01*
X176667669Y-133640471D01*
X176414003Y-134057851D01*
X176091184Y-134395859D01*
X175708311Y-134648298D01*
X175274481Y-134808971D01*
X174863877Y-134869224D01*
X174579731Y-134870495D01*
X174323499Y-134847323D01*
X174193801Y-134820573D01*
X173775516Y-134649154D01*
X173408413Y-134395031D01*
X173102231Y-134073324D01*
X172866706Y-133699151D01*
X172711576Y-133287632D01*
X172646580Y-132853886D01*
X172661827Y-132624645D01*
X173187815Y-132624645D01*
X173190140Y-132943715D01*
X173235248Y-133241377D01*
X173314797Y-133462192D01*
X173556814Y-133815702D01*
X173856122Y-134086975D01*
X174199115Y-134270861D01*
X174572190Y-134362209D01*
X174961743Y-134355871D01*
X175354168Y-134246696D01*
X175369786Y-134240094D01*
X175681163Y-134055227D01*
X175961318Y-133791331D01*
X176144155Y-133537829D01*
X176214770Y-133406628D01*
X176258549Y-133284311D01*
X176281745Y-133138340D01*
X176290608Y-132936179D01*
X176291648Y-132770235D01*
X176288525Y-132517801D01*
X176274945Y-132341432D01*
X176244586Y-132208492D01*
X176191131Y-132086345D01*
X176142460Y-131999748D01*
X175890355Y-131668908D01*
X175580049Y-131420507D01*
X175227215Y-131259332D01*
X174847530Y-131190171D01*
X174456669Y-131217810D01*
X174070307Y-131347038D01*
X174045341Y-131359258D01*
X173753261Y-131535634D01*
X173528737Y-131749969D01*
X173338372Y-132035266D01*
X173311864Y-132084029D01*
X173228361Y-132324604D01*
X173187815Y-132624645D01*
X172661827Y-132624645D01*
X172672842Y-132459025D01*
X172805009Y-131998608D01*
X173026136Y-131588239D01*
X173324876Y-131238770D01*
X173689883Y-130961054D01*
X174109811Y-130765944D01*
X174545993Y-130667376D01*
X174877515Y-130627828D01*
X174349748Y-130564762D01*
X174020780Y-130514553D01*
X173785653Y-130450357D01*
X173629664Y-130365315D01*
X173538109Y-130252565D01*
X173508905Y-130172438D01*
X173499502Y-130065723D01*
X173498466Y-129862030D01*
X173501909Y-129712371D01*
X173996298Y-129712371D01*
X173997108Y-129884207D01*
X174007890Y-129984669D01*
X174017596Y-130000753D01*
X174083317Y-130008730D01*
X174238954Y-130028203D01*
X174466517Y-130056904D01*
X174748018Y-130092564D01*
X175040685Y-130129761D01*
X175360143Y-130170179D01*
X175646225Y-130205913D01*
X175879814Y-130234613D01*
X176041797Y-130253928D01*
X176110510Y-130261341D01*
X176186550Y-130221578D01*
X176258944Y-130084474D01*
X176285140Y-130009957D01*
X176430620Y-129523988D01*
X176573331Y-128977051D01*
X176710085Y-128387407D01*
X176837691Y-127773322D01*
X176952961Y-127153058D01*
X177052706Y-126544879D01*
X177133736Y-125967050D01*
X177192863Y-125437834D01*
X177226896Y-124975494D01*
X177232647Y-124598294D01*
X177232269Y-124586006D01*
X177216273Y-124097923D01*
X175843605Y-123937190D01*
X175469807Y-123894419D01*
X175132895Y-123857781D01*
X174847537Y-123828715D01*
X174628402Y-123808660D01*
X174490159Y-123799056D01*
X174447227Y-123800166D01*
X174431595Y-123864907D01*
X174409966Y-124027076D01*
X174383291Y-124275544D01*
X174352521Y-124599182D01*
X174318606Y-124986859D01*
X174282496Y-125427447D01*
X174245141Y-125909816D01*
X174207493Y-126422837D01*
X174170502Y-126955381D01*
X174145673Y-127331263D01*
X174117066Y-127774058D01*
X174089080Y-128207268D01*
X174062943Y-128611872D01*
X174039883Y-128968849D01*
X174021129Y-129259179D01*
X174007910Y-129463843D01*
X174006011Y-129493254D01*
X173996298Y-129712371D01*
X173501909Y-129712371D01*
X173505120Y-129572781D01*
X173518787Y-129209400D01*
X173538789Y-128783311D01*
X173564449Y-128305938D01*
X173595090Y-127788703D01*
X173630034Y-127243032D01*
X173668604Y-126680347D01*
X173710123Y-126112072D01*
X173753914Y-125549630D01*
X173799299Y-125004446D01*
X173845601Y-124487943D01*
X173846496Y-124478361D01*
X173884736Y-124104310D01*
X173923218Y-123823542D01*
X173967066Y-123620670D01*
X174021406Y-123480305D01*
X174091360Y-123387060D01*
X174182054Y-123325549D01*
X174238523Y-123301221D01*
X174342292Y-123289058D01*
X174534936Y-123291887D01*
G37*
G36*
X183655019Y-131406097D02*
G01*
X183868986Y-131526393D01*
X184015360Y-131652754D01*
X184223164Y-131919247D01*
X184334422Y-132195506D01*
X184350955Y-132466756D01*
X184274583Y-132718219D01*
X184107127Y-132935121D01*
X183850407Y-133102683D01*
X183835917Y-133109211D01*
X183559591Y-133182213D01*
X183280668Y-133169908D01*
X183035791Y-133074093D01*
X183028863Y-133069626D01*
X182961756Y-133032122D01*
X182924299Y-133045567D01*
X182903716Y-133129689D01*
X182888739Y-133286010D01*
X182814905Y-133596727D01*
X182648613Y-133851613D01*
X182388250Y-134052851D01*
X182280883Y-134108105D01*
X182009287Y-134207701D01*
X181766162Y-134228565D01*
X181507864Y-134173401D01*
X181464953Y-134158679D01*
X181201665Y-134012087D01*
X180967436Y-133783790D01*
X180779991Y-133500272D01*
X180657057Y-133188018D01*
X180616162Y-132890572D01*
X180640157Y-132724977D01*
X180700985Y-132521580D01*
X180749634Y-132403104D01*
X180832352Y-132239624D01*
X180901569Y-132153714D01*
X180982584Y-132121318D01*
X181049954Y-132117558D01*
X181188000Y-132143597D01*
X181251394Y-132228588D01*
X181243625Y-132382847D01*
X181194816Y-132545705D01*
X181117319Y-132881406D01*
X181132192Y-133185575D01*
X181237026Y-133445847D01*
X181406528Y-133632520D01*
X181607648Y-133756293D01*
X181797748Y-133786507D01*
X182012083Y-133726840D01*
X182067163Y-133701448D01*
X182248757Y-133588002D01*
X182368680Y-133437017D01*
X182417426Y-133338318D01*
X182479338Y-133178092D01*
X182499091Y-133043668D01*
X182481270Y-132881207D01*
X182463902Y-132792711D01*
X182431701Y-132599785D01*
X182434742Y-132480872D01*
X182467124Y-132414000D01*
X182551007Y-132348982D01*
X182654879Y-132351173D01*
X182798775Y-132425202D01*
X182933492Y-132521826D01*
X183172859Y-132678396D01*
X183374494Y-132746538D01*
X183557902Y-132730325D01*
X183675905Y-132676877D01*
X183796858Y-132586196D01*
X183852535Y-132471315D01*
X183868194Y-132353201D01*
X183866081Y-132194412D01*
X183813949Y-132084435D01*
X183714449Y-131988756D01*
X183554305Y-131889104D01*
X183397136Y-131845842D01*
X183387247Y-131845610D01*
X183237416Y-131804857D01*
X183152710Y-131701527D01*
X183152247Y-131564014D01*
X183169977Y-131522955D01*
X183288096Y-131401703D01*
X183455583Y-131363642D01*
X183655019Y-131406097D01*
G37*
G36*
X140491529Y-121249416D02*
G01*
X140706550Y-121276275D01*
X140985754Y-121317247D01*
X141312022Y-121369261D01*
X141668233Y-121429245D01*
X142037268Y-121494128D01*
X142402007Y-121560836D01*
X142745329Y-121626298D01*
X143050114Y-121687443D01*
X143299243Y-121741199D01*
X143475596Y-121784493D01*
X143562052Y-121814254D01*
X143563004Y-121814857D01*
X143673055Y-121921212D01*
X143770550Y-122068400D01*
X143776806Y-122081099D01*
X143809455Y-122158081D01*
X143827885Y-122237146D01*
X143830905Y-122338093D01*
X143817325Y-122480723D01*
X143785954Y-122684836D01*
X143735601Y-122970232D01*
X143717274Y-123071049D01*
X143664027Y-123359839D01*
X143615901Y-123614803D01*
X143576982Y-123814747D01*
X143551353Y-123938479D01*
X143545190Y-123963835D01*
X143552656Y-124013143D01*
X143619940Y-124053126D01*
X143765163Y-124091428D01*
X143915314Y-124119997D01*
X144213611Y-124182853D01*
X144422067Y-124253928D01*
X144559620Y-124342311D01*
X144645205Y-124457091D01*
X144653436Y-124474283D01*
X144684347Y-124552258D01*
X144703598Y-124636449D01*
X144709675Y-124740853D01*
X144701065Y-124879463D01*
X144676255Y-125066276D01*
X144633732Y-125315286D01*
X144571984Y-125640489D01*
X144489497Y-126055880D01*
X144474233Y-126131846D01*
X144383535Y-126577808D01*
X144306837Y-126928175D01*
X144237073Y-127194074D01*
X144167179Y-127386629D01*
X144090087Y-127516966D01*
X143998735Y-127596212D01*
X143886055Y-127635492D01*
X143744982Y-127645931D01*
X143568452Y-127638656D01*
X143519363Y-127635467D01*
X143308306Y-127617952D01*
X143132721Y-127596957D01*
X143027177Y-127576703D01*
X143021015Y-127574583D01*
X142971968Y-127572970D01*
X142938190Y-127626598D01*
X142912192Y-127755045D01*
X142893860Y-127906944D01*
X142876575Y-128232322D01*
X142885866Y-128589755D01*
X142918857Y-128934531D01*
X142972672Y-129221935D01*
X142980236Y-129249889D01*
X143058284Y-129416463D01*
X143183320Y-129584551D01*
X143228936Y-129630617D01*
X143386462Y-129775099D01*
X143543141Y-129918250D01*
X143579530Y-129951383D01*
X143710361Y-130122301D01*
X143739400Y-130251458D01*
X143712324Y-130350569D01*
X143637590Y-130524573D01*
X143524937Y-130755959D01*
X143384107Y-131027218D01*
X143224839Y-131320837D01*
X143056875Y-131619308D01*
X142889953Y-131905119D01*
X142733815Y-132160760D01*
X142598200Y-132368721D01*
X142492850Y-132511491D01*
X142464665Y-132543090D01*
X142304503Y-132674581D01*
X142130859Y-132741515D01*
X141923581Y-132744842D01*
X141662514Y-132685513D01*
X141400642Y-132593286D01*
X140836941Y-132338797D01*
X140352071Y-132039094D01*
X139942997Y-131688306D01*
X139606689Y-131280562D01*
X139340115Y-130809989D01*
X139140241Y-130270716D01*
X139004037Y-129656871D01*
X138928469Y-128962581D01*
X138910506Y-128181976D01*
X138920804Y-127790981D01*
X138957825Y-126863761D01*
X138533944Y-126792625D01*
X138222990Y-126729766D01*
X138001983Y-126656350D01*
X137852093Y-126562763D01*
X137754492Y-126439391D01*
X137726116Y-126380126D01*
X137703850Y-126316306D01*
X137691467Y-126242959D01*
X137690935Y-126176526D01*
X138213045Y-126176526D01*
X138214487Y-126182030D01*
X138276764Y-126208873D01*
X138423566Y-126246064D01*
X138631765Y-126288332D01*
X138836180Y-126323743D01*
X139081312Y-126365394D01*
X139287821Y-126404610D01*
X139431248Y-126436490D01*
X139484587Y-126453693D01*
X139510796Y-126530129D01*
X139511806Y-126708275D01*
X139494193Y-126923340D01*
X139478497Y-127128596D01*
X139464841Y-127412843D01*
X139454253Y-127746297D01*
X139447763Y-128099176D01*
X139446259Y-128310278D01*
X139460485Y-128960157D01*
X139508961Y-129518616D01*
X139595488Y-129998670D01*
X139723869Y-130413330D01*
X139897906Y-130775610D01*
X140121401Y-131098521D01*
X140327578Y-131326516D01*
X140697150Y-131636035D01*
X141147734Y-131913340D01*
X141652738Y-132142156D01*
X141672590Y-132149656D01*
X141804937Y-132196164D01*
X141912657Y-132217778D01*
X142006800Y-132204554D01*
X142098414Y-132146544D01*
X142198547Y-132033803D01*
X142318248Y-131856385D01*
X142468566Y-131604342D01*
X142660549Y-131267730D01*
X142669162Y-131252522D01*
X143205292Y-130305902D01*
X142954225Y-130091296D01*
X142750657Y-129889071D01*
X142598160Y-129665503D01*
X142491089Y-129402928D01*
X142423797Y-129083688D01*
X142390638Y-128690120D01*
X142384892Y-128310278D01*
X142391008Y-127970624D01*
X142404369Y-127653861D01*
X142423493Y-127378439D01*
X142446901Y-127162807D01*
X142473112Y-127025415D01*
X142491096Y-126986673D01*
X142551358Y-126986321D01*
X142696017Y-127002178D01*
X142902374Y-127031382D01*
X143110938Y-127064833D01*
X143352023Y-127103006D01*
X143550803Y-127129975D01*
X143684606Y-127142957D01*
X143730387Y-127140847D01*
X143751834Y-127077981D01*
X143787685Y-126927965D01*
X143834466Y-126709408D01*
X143888701Y-126440919D01*
X143946919Y-126141108D01*
X144005643Y-125828584D01*
X144061401Y-125521957D01*
X144110719Y-125239834D01*
X144150122Y-125000827D01*
X144176137Y-124823544D01*
X144185290Y-124726594D01*
X144183358Y-124714383D01*
X144117967Y-124692354D01*
X143968688Y-124658454D01*
X143759100Y-124617662D01*
X143560148Y-124582791D01*
X143321026Y-124540352D01*
X143125150Y-124500979D01*
X142995240Y-124469537D01*
X142953815Y-124452990D01*
X142957334Y-124391991D01*
X142978743Y-124241627D01*
X143015193Y-124019316D01*
X143063832Y-123742477D01*
X143119194Y-123442398D01*
X143193226Y-123043873D01*
X143246635Y-122739901D01*
X143280742Y-122518495D01*
X143296869Y-122367665D01*
X143296338Y-122275422D01*
X143280470Y-122229777D01*
X143254094Y-122218629D01*
X143189053Y-122209704D01*
X143031433Y-122184550D01*
X142795823Y-122145604D01*
X142496812Y-122095299D01*
X142148987Y-122036070D01*
X141781896Y-121972937D01*
X141401548Y-121908418D01*
X141056454Y-121852166D01*
X140761074Y-121806353D01*
X140529871Y-121773152D01*
X140377305Y-121754736D01*
X140318152Y-121753038D01*
X140301594Y-121776521D01*
X140281384Y-121835068D01*
X140255303Y-121939507D01*
X140221133Y-122100668D01*
X140176658Y-122329381D01*
X140119660Y-122636474D01*
X140047921Y-123032777D01*
X139991243Y-123349465D01*
X139948157Y-123582367D01*
X139910243Y-123771724D01*
X139882329Y-123894301D01*
X139870948Y-123928356D01*
X139812508Y-123926628D01*
X139670458Y-123906982D01*
X139467834Y-123872926D01*
X139287183Y-123839501D01*
X139051479Y-123799102D01*
X138856044Y-123774576D01*
X138724914Y-123768400D01*
X138683214Y-123777313D01*
X138659064Y-123844609D01*
X138620127Y-123998854D01*
X138570093Y-124221119D01*
X138512650Y-124492477D01*
X138451488Y-124793997D01*
X138390298Y-125106751D01*
X138332768Y-125411810D01*
X138282588Y-125690247D01*
X138243448Y-125923130D01*
X138219037Y-126091533D01*
X138213045Y-126176526D01*
X137690935Y-126176526D01*
X137690691Y-126146031D01*
X137703245Y-126011464D01*
X137730851Y-125825203D01*
X137775233Y-125573191D01*
X137838113Y-125241371D01*
X137912353Y-124860806D01*
X138013831Y-124359733D01*
X138100562Y-123965500D01*
X138172771Y-123677203D01*
X138230682Y-123493938D01*
X138268753Y-123420153D01*
X138408376Y-123300454D01*
X138571648Y-123239466D01*
X138784286Y-123232281D01*
X139053544Y-123270466D01*
X139279129Y-123307231D01*
X139413545Y-123313632D01*
X139469940Y-123290134D01*
X139472097Y-123285305D01*
X139488926Y-123210699D01*
X139519799Y-123052070D01*
X139560340Y-122832602D01*
X139606170Y-122575479D01*
X139606751Y-122572162D01*
X139656357Y-122297077D01*
X139704841Y-122042190D01*
X139746366Y-121837388D01*
X139773251Y-121719495D01*
X139878459Y-121501519D01*
X140051821Y-121336864D01*
X140265294Y-121248545D01*
X140357813Y-121239743D01*
X140491529Y-121249416D01*
G37*
G36*
X151865980Y-124751588D02*
G01*
X152167070Y-124758383D01*
X152623766Y-124770537D01*
X152984448Y-124784485D01*
X153261882Y-124802473D01*
X153468831Y-124826745D01*
X153618060Y-124859547D01*
X153722335Y-124903122D01*
X153794420Y-124959716D01*
X153847080Y-125031574D01*
X153860894Y-125056249D01*
X153874254Y-125137291D01*
X153883879Y-125315542D01*
X153890010Y-125579506D01*
X153892891Y-125917685D01*
X153892764Y-126318584D01*
X153889870Y-126770704D01*
X153884453Y-127262550D01*
X153876755Y-127782623D01*
X153867019Y-128319428D01*
X153855485Y-128861467D01*
X153842399Y-129397243D01*
X153828000Y-129915259D01*
X153812532Y-130404018D01*
X153796238Y-130852024D01*
X153779359Y-131247779D01*
X153762138Y-131579786D01*
X153744818Y-131836549D01*
X153727640Y-132006570D01*
X153712914Y-132075154D01*
X153664895Y-132159215D01*
X153608453Y-132224043D01*
X153530135Y-132271733D01*
X153416488Y-132304379D01*
X153254059Y-132324078D01*
X153029394Y-132332924D01*
X152729040Y-132333012D01*
X152339544Y-132326437D01*
X152129069Y-132321805D01*
X151693486Y-132313347D01*
X151351739Y-132310468D01*
X151089001Y-132313645D01*
X150890447Y-132323357D01*
X150741253Y-132340082D01*
X150626593Y-132364297D01*
X150603532Y-132370981D01*
X150036615Y-132512465D01*
X149454517Y-132600146D01*
X148891678Y-132630449D01*
X148389721Y-132600743D01*
X147797280Y-132475011D01*
X147267497Y-132261296D01*
X146802519Y-131962011D01*
X146404492Y-131579569D01*
X146075562Y-131116382D01*
X145817877Y-130574863D01*
X145633581Y-129957424D01*
X145538744Y-129396293D01*
X145511557Y-129130755D01*
X145484400Y-128801989D01*
X145458004Y-128426226D01*
X145433099Y-128019695D01*
X145410418Y-127598628D01*
X145390690Y-127179253D01*
X145374648Y-126777802D01*
X145363022Y-126410505D01*
X145356544Y-126093592D01*
X145356501Y-126075606D01*
X145869462Y-126075606D01*
X145875512Y-126364678D01*
X145889754Y-126747617D01*
X145908383Y-127153798D01*
X145941584Y-127804001D01*
X145974065Y-128357111D01*
X146007650Y-128824785D01*
X146044165Y-129218680D01*
X146085436Y-129550453D01*
X146133288Y-129831760D01*
X146189545Y-130074258D01*
X146256034Y-130289603D01*
X146334580Y-130489454D01*
X146427008Y-130685466D01*
X146476297Y-130780588D01*
X146758256Y-131201913D01*
X147113342Y-131546316D01*
X147535559Y-131811528D01*
X148018911Y-131995276D01*
X148557402Y-132095291D01*
X149145037Y-132109301D01*
X149775821Y-132035036D01*
X149784248Y-132033485D01*
X150037231Y-131982043D01*
X150287505Y-131923438D01*
X150486420Y-131869178D01*
X150508947Y-131862084D01*
X150613586Y-131833348D01*
X150734334Y-131812711D01*
X150887319Y-131799585D01*
X151088673Y-131793383D01*
X151354525Y-131793516D01*
X151701006Y-131799398D01*
X152018261Y-131807091D01*
X152372596Y-131815891D01*
X152687830Y-131822869D01*
X152948642Y-131827756D01*
X153139712Y-131830282D01*
X153245717Y-131830180D01*
X153262205Y-131828921D01*
X153265399Y-131771401D01*
X153270266Y-131616940D01*
X153276579Y-131377066D01*
X153284112Y-131063303D01*
X153292639Y-130687177D01*
X153301932Y-130260215D01*
X153311767Y-129793944D01*
X153321916Y-129299888D01*
X153332153Y-128789573D01*
X153342251Y-128274527D01*
X153351985Y-127766275D01*
X153361128Y-127276343D01*
X153369453Y-126816258D01*
X153376734Y-126397544D01*
X153382744Y-126031729D01*
X153387258Y-125730338D01*
X153390049Y-125504897D01*
X153390891Y-125366933D01*
X153389912Y-125327060D01*
X153333288Y-125320319D01*
X153183557Y-125311909D01*
X152956370Y-125302448D01*
X152667375Y-125292554D01*
X152332223Y-125282843D01*
X152154779Y-125278312D01*
X150935810Y-125248543D01*
X150900131Y-125508843D01*
X150887724Y-125654178D01*
X150877174Y-125882220D01*
X150869301Y-126166901D01*
X150864928Y-126482153D01*
X150864310Y-126645385D01*
X150862244Y-126996783D01*
X150856609Y-127418333D01*
X150848106Y-127871490D01*
X150837435Y-128317712D01*
X150828255Y-128630084D01*
X150792342Y-129738542D01*
X150510485Y-129867580D01*
X150088283Y-130022984D01*
X149712029Y-130080830D01*
X149379415Y-130041049D01*
X149088134Y-129903573D01*
X148984089Y-129822454D01*
X148859585Y-129702344D01*
X148756578Y-129572951D01*
X148671665Y-129421431D01*
X148601445Y-129234940D01*
X148542515Y-129000633D01*
X148491473Y-128705668D01*
X148444916Y-128337199D01*
X148399443Y-127882384D01*
X148364578Y-127483726D01*
X148331770Y-127095794D01*
X148299569Y-126718841D01*
X148269884Y-126374922D01*
X148244623Y-126086096D01*
X148225695Y-125874419D01*
X148220129Y-125814205D01*
X148182297Y-125412136D01*
X147633332Y-125447576D01*
X147279330Y-125474731D01*
X146930266Y-125509237D01*
X146604327Y-125548521D01*
X146319701Y-125590011D01*
X146094575Y-125631133D01*
X145947136Y-125669314D01*
X145900015Y-125692789D01*
X145881758Y-125747544D01*
X145871559Y-125872522D01*
X145869462Y-126075606D01*
X145356501Y-126075606D01*
X145355944Y-125843293D01*
X145361954Y-125675838D01*
X145368768Y-125623019D01*
X145458679Y-125392520D01*
X145613066Y-125233535D01*
X145846260Y-125134237D01*
X145999039Y-125102941D01*
X146271523Y-125064610D01*
X146586858Y-125026614D01*
X146924280Y-124990752D01*
X147263023Y-124958826D01*
X147582322Y-124932634D01*
X147861413Y-124913979D01*
X148079530Y-124904659D01*
X148215910Y-124906476D01*
X148235559Y-124909021D01*
X148392028Y-124974520D01*
X148534322Y-125089410D01*
X148542030Y-125098297D01*
X148584072Y-125156357D01*
X148620572Y-125229946D01*
X148653066Y-125329767D01*
X148683085Y-125466527D01*
X148712164Y-125650928D01*
X148741835Y-125893675D01*
X148773634Y-126205472D01*
X148809092Y-126597025D01*
X148849744Y-127079036D01*
X148881404Y-127467237D01*
X148925257Y-127974913D01*
X148968166Y-128385769D01*
X149013015Y-128711698D01*
X149062685Y-128964592D01*
X149120061Y-129156343D01*
X149188024Y-129298845D01*
X149269458Y-129403989D01*
X149367245Y-129483667D01*
X149370752Y-129485980D01*
X149530350Y-129539948D01*
X149749993Y-129549763D01*
X149990805Y-129516525D01*
X150162954Y-129463590D01*
X150304496Y-129406871D01*
X150342424Y-127267675D01*
X150352425Y-126723966D01*
X150361703Y-126278466D01*
X150370889Y-125920614D01*
X150380610Y-125639849D01*
X150391497Y-125425609D01*
X150404180Y-125267333D01*
X150419289Y-125154459D01*
X150437452Y-125076425D01*
X150459300Y-125022672D01*
X150478074Y-124992505D01*
X150540071Y-124912774D01*
X150606725Y-124850989D01*
X150691636Y-124805266D01*
X150808401Y-124773718D01*
X150970619Y-124754461D01*
X151191889Y-124745611D01*
X151485810Y-124745281D01*
X151865980Y-124751588D01*
G37*
G36*
X155759528Y-123753102D02*
G01*
X155914017Y-123767976D01*
X156157221Y-123782283D01*
X156469078Y-123795267D01*
X156829524Y-123806175D01*
X157218495Y-123814249D01*
X157472804Y-123817579D01*
X157965581Y-123824586D01*
X158368513Y-123836315D01*
X158700508Y-123855066D01*
X158980474Y-123883141D01*
X159227319Y-123922843D01*
X159459951Y-123976472D01*
X159697278Y-124046331D01*
X159894370Y-124112372D01*
X160520268Y-124381228D01*
X161086831Y-124728737D01*
X161585851Y-125146403D01*
X162009120Y-125625729D01*
X162348430Y-126158219D01*
X162595575Y-126735376D01*
X162668737Y-126984433D01*
X162710053Y-127166973D01*
X162739636Y-127356291D01*
X162759220Y-127575151D01*
X162770536Y-127846321D01*
X162775319Y-128192567D01*
X162775802Y-128390874D01*
X162778789Y-128808657D01*
X162790509Y-129136661D01*
X162815100Y-129393789D01*
X162856702Y-129598945D01*
X162919453Y-129771030D01*
X163007494Y-129928950D01*
X163124961Y-130091606D01*
X163157102Y-130132334D01*
X163359034Y-130409707D01*
X163475741Y-130635941D01*
X163509500Y-130824524D01*
X163462586Y-130988943D01*
X163337277Y-131142687D01*
X163328897Y-131150425D01*
X163214171Y-131240889D01*
X163029047Y-131371296D01*
X162796886Y-131526724D01*
X162541050Y-131692249D01*
X162284901Y-131852949D01*
X162051800Y-131993901D01*
X161865109Y-132100181D01*
X161761519Y-132151632D01*
X161599491Y-132207040D01*
X161456576Y-132216659D01*
X161289951Y-132178546D01*
X161138780Y-132123409D01*
X160719691Y-131910491D01*
X160312691Y-131613492D01*
X159943735Y-131256224D01*
X159638779Y-130862498D01*
X159496272Y-130616584D01*
X159385997Y-130389079D01*
X159303112Y-130189451D01*
X159243673Y-129995695D01*
X159203740Y-129785809D01*
X159179372Y-129537789D01*
X159166627Y-129229631D01*
X159161565Y-128839333D01*
X159161111Y-128745396D01*
X159155773Y-128321455D01*
X159140626Y-127989073D01*
X159111284Y-127731165D01*
X159063359Y-127530644D01*
X158992464Y-127370425D01*
X158894211Y-127233423D01*
X158764214Y-127102552D01*
X158731842Y-127073698D01*
X158578894Y-126959883D01*
X158424160Y-126876870D01*
X158297690Y-126838172D01*
X158234892Y-126850189D01*
X158224317Y-126907139D01*
X158203166Y-127060645D01*
X158172842Y-127299141D01*
X158134751Y-127611067D01*
X158090297Y-127984858D01*
X158040884Y-128408951D01*
X157987917Y-128871783D01*
X157968221Y-129045907D01*
X157723047Y-131220128D01*
X157553689Y-131372011D01*
X157446423Y-131458333D01*
X157347941Y-131498547D01*
X157215546Y-131503223D01*
X157075034Y-131490492D01*
X156460767Y-131423969D01*
X155945630Y-131367123D01*
X155520597Y-131317998D01*
X155176643Y-131274639D01*
X154904742Y-131235091D01*
X154695867Y-131197401D01*
X154540995Y-131159611D01*
X154431097Y-131119768D01*
X154357150Y-131075917D01*
X154310126Y-131026102D01*
X154281001Y-130968368D01*
X154260749Y-130900761D01*
X154255431Y-130879767D01*
X154255830Y-130805581D01*
X154263147Y-130696618D01*
X154758458Y-130696618D01*
X154816999Y-130710358D01*
X154964629Y-130732255D01*
X155182501Y-130760282D01*
X155451772Y-130792414D01*
X155753596Y-130826623D01*
X156069126Y-130860882D01*
X156379519Y-130893166D01*
X156665928Y-130921447D01*
X156909508Y-130943698D01*
X157091415Y-130957893D01*
X157192802Y-130962005D01*
X157207198Y-130959968D01*
X157218789Y-130901928D01*
X157240795Y-130747370D01*
X157271793Y-130507911D01*
X157310360Y-130195165D01*
X157355072Y-129820750D01*
X157404506Y-129396281D01*
X157457238Y-128933372D01*
X157476109Y-128765326D01*
X157530182Y-128284175D01*
X157581582Y-127830918D01*
X157628828Y-127418312D01*
X157670439Y-127059112D01*
X157704935Y-126766075D01*
X157730835Y-126551957D01*
X157746659Y-126429514D01*
X157749144Y-126413020D01*
X157779584Y-126229038D01*
X158075071Y-126259535D01*
X158498478Y-126355358D01*
X158878562Y-126545182D01*
X159201000Y-126818865D01*
X159451466Y-127166265D01*
X159505260Y-127272169D01*
X159553500Y-127380929D01*
X159590055Y-127484383D01*
X159617123Y-127600530D01*
X159636901Y-127747373D01*
X159651586Y-127942913D01*
X159663374Y-128205151D01*
X159674463Y-128552087D01*
X159678421Y-128691006D01*
X159693334Y-129127363D01*
X159711357Y-129467554D01*
X159733585Y-129724174D01*
X159761111Y-129909819D01*
X159795029Y-130037083D01*
X159795444Y-130038211D01*
X159955608Y-130385262D01*
X160169426Y-130726370D01*
X160408571Y-131018486D01*
X160497663Y-131105407D01*
X160680527Y-131252831D01*
X160895577Y-131399508D01*
X161115621Y-131529701D01*
X161313464Y-131627674D01*
X161461914Y-131677694D01*
X161492367Y-131680991D01*
X161573686Y-131653097D01*
X161725958Y-131575509D01*
X161929727Y-131459025D01*
X162165534Y-131314441D01*
X162249365Y-131260920D01*
X162487736Y-131107102D01*
X162695225Y-130973092D01*
X162853768Y-130870567D01*
X162945300Y-130811204D01*
X162958194Y-130802763D01*
X162956638Y-130744992D01*
X162886811Y-130633222D01*
X162806835Y-130537342D01*
X162586387Y-130248572D01*
X162425056Y-129928153D01*
X162318767Y-129560229D01*
X162263442Y-129128945D01*
X162255007Y-128618444D01*
X162262333Y-128419057D01*
X162267515Y-127867269D01*
X162222813Y-127388138D01*
X162123880Y-126955531D01*
X161966366Y-126543315D01*
X161941314Y-126489766D01*
X161640473Y-125982875D01*
X161254545Y-125535330D01*
X160792140Y-125151214D01*
X160261867Y-124834609D01*
X159672334Y-124589597D01*
X159032151Y-124420262D01*
X158349927Y-124330685D01*
X157634271Y-124324949D01*
X157409218Y-124340636D01*
X157052988Y-124362014D01*
X156714354Y-124358090D01*
X156341612Y-124327538D01*
X156184250Y-124309163D01*
X155928514Y-124280410D01*
X155713551Y-124261721D01*
X155561443Y-124254632D01*
X155494269Y-124260679D01*
X155493734Y-124261141D01*
X155482233Y-124319027D01*
X155460263Y-124473355D01*
X155429140Y-124712612D01*
X155390181Y-125025280D01*
X155344700Y-125399847D01*
X155294013Y-125824796D01*
X155239436Y-126288613D01*
X155182284Y-126779782D01*
X155123873Y-127286790D01*
X155065519Y-127798121D01*
X155008537Y-128302259D01*
X154954243Y-128787691D01*
X154903953Y-129242901D01*
X154858982Y-129656374D01*
X154820645Y-130016595D01*
X154790259Y-130312049D01*
X154769139Y-130531222D01*
X154758601Y-130662598D01*
X154758458Y-130696618D01*
X154263147Y-130696618D01*
X154267293Y-130634882D01*
X154288603Y-130379240D01*
X154318544Y-130050226D01*
X154355899Y-129659411D01*
X154399449Y-129218364D01*
X154447979Y-128738656D01*
X154500270Y-128231858D01*
X154555107Y-127709540D01*
X154611271Y-127183273D01*
X154667545Y-126664627D01*
X154722713Y-126165173D01*
X154775557Y-125696482D01*
X154824860Y-125270124D01*
X154869405Y-124897669D01*
X154907975Y-124590687D01*
X154939353Y-124360751D01*
X154945580Y-124318962D01*
X155009575Y-124045891D01*
X155113117Y-123863574D01*
X155270728Y-123761913D01*
X155496934Y-123730811D01*
X155759528Y-123753102D01*
G37*
G36*
X167163393Y-124144805D02*
G01*
X167661884Y-124198699D01*
X168119359Y-124297542D01*
X168233521Y-124332520D01*
X168468059Y-124391282D01*
X168637143Y-124387989D01*
X168664668Y-124380228D01*
X168771950Y-124368613D01*
X168979604Y-124369916D01*
X169280033Y-124383792D01*
X169665643Y-124409894D01*
X170101884Y-124445523D01*
X170589419Y-124488070D01*
X170978409Y-124528510D01*
X171278376Y-124577179D01*
X171498840Y-124644413D01*
X171649323Y-124740549D01*
X171739345Y-124875924D01*
X171778428Y-125060875D01*
X171776092Y-125305738D01*
X171741859Y-125620851D01*
X171685249Y-126016550D01*
X171666532Y-126144239D01*
X171601522Y-126614640D01*
X171555675Y-127012976D01*
X171526217Y-127373725D01*
X171510373Y-127731366D01*
X171505369Y-128120379D01*
X171505353Y-128147109D01*
X171508728Y-128533273D01*
X171521651Y-128827708D01*
X171548314Y-129047332D01*
X171592912Y-129209063D01*
X171659638Y-129329819D01*
X171752686Y-129426518D01*
X171838443Y-129490819D01*
X172053119Y-129654889D01*
X172180502Y-129798737D01*
X172234996Y-129940749D01*
X172239614Y-130002955D01*
X172212936Y-130123416D01*
X172139833Y-130316613D01*
X172030703Y-130562526D01*
X171895943Y-130841131D01*
X171745950Y-131132408D01*
X171591121Y-131416333D01*
X171441853Y-131672886D01*
X171308545Y-131882044D01*
X171201592Y-132023784D01*
X171176830Y-132049571D01*
X171042768Y-132155571D01*
X170902895Y-132211180D01*
X170734661Y-132216941D01*
X170515517Y-132173399D01*
X170222913Y-132081097D01*
X170199999Y-132073139D01*
X169942984Y-131971214D01*
X169676726Y-131846020D01*
X169456210Y-131723542D01*
X169444373Y-131716040D01*
X169123865Y-131510685D01*
X168601333Y-131687221D01*
X168353229Y-131766360D01*
X168140164Y-131820033D01*
X167924948Y-131854405D01*
X167670391Y-131875642D01*
X167389162Y-131888190D01*
X166761036Y-131879754D01*
X166197808Y-131802802D01*
X165675082Y-131650940D01*
X165168460Y-131417778D01*
X164835470Y-131219103D01*
X164311336Y-130820341D01*
X163875402Y-130363594D01*
X163529849Y-129857464D01*
X163276860Y-129310556D01*
X163118616Y-128731471D01*
X163057301Y-128128814D01*
X163064502Y-128011134D01*
X163574230Y-128011134D01*
X163615195Y-128581146D01*
X163747406Y-129102220D01*
X163975702Y-129585839D01*
X164304922Y-130043487D01*
X164536049Y-130293584D01*
X164913312Y-130633237D01*
X165301492Y-130898239D01*
X165734814Y-131109020D01*
X166147965Y-131255771D01*
X166370533Y-131317396D01*
X166584053Y-131355868D01*
X166826037Y-131375753D01*
X167133997Y-131381619D01*
X167181370Y-131381589D01*
X167654826Y-131363099D01*
X168064198Y-131304344D01*
X168449413Y-131196908D01*
X168850398Y-131032375D01*
X168860552Y-131027652D01*
X169207187Y-130866041D01*
X169416094Y-131054776D01*
X169590470Y-131191343D01*
X169802055Y-131329059D01*
X169912500Y-131390419D01*
X170106689Y-131480846D01*
X170320553Y-131566804D01*
X170527312Y-131639229D01*
X170700184Y-131689054D01*
X170812389Y-131707214D01*
X170835564Y-131702882D01*
X170871855Y-131649280D01*
X170948442Y-131515386D01*
X171056214Y-131317817D01*
X171186056Y-131073191D01*
X171284280Y-130884628D01*
X171421746Y-130616800D01*
X171539632Y-130383374D01*
X171629621Y-130201122D01*
X171683399Y-130086814D01*
X171695043Y-130056223D01*
X171653296Y-130009108D01*
X171549661Y-129930711D01*
X171505672Y-129901328D01*
X171298359Y-129704035D01*
X171136992Y-129414428D01*
X171023485Y-129039665D01*
X170959748Y-128586899D01*
X170947694Y-128063286D01*
X170957017Y-127847965D01*
X170974550Y-127627387D01*
X171003977Y-127334111D01*
X171042351Y-126991405D01*
X171086722Y-126622537D01*
X171134142Y-126250773D01*
X171181661Y-125899381D01*
X171226330Y-125591628D01*
X171265201Y-125350781D01*
X171289476Y-125224881D01*
X171297934Y-125173411D01*
X171288701Y-125133284D01*
X171248701Y-125101496D01*
X171164860Y-125075044D01*
X171024100Y-125050926D01*
X170813346Y-125026139D01*
X170519521Y-124997679D01*
X170158314Y-124965110D01*
X169729813Y-124928206D01*
X169396621Y-124903233D01*
X169145924Y-124890168D01*
X168964909Y-124888992D01*
X168840763Y-124899683D01*
X168760673Y-124922220D01*
X168711827Y-124956582D01*
X168706420Y-124962734D01*
X168654776Y-125003651D01*
X168578700Y-125005245D01*
X168447866Y-124964840D01*
X168363706Y-124932503D01*
X167795201Y-124758145D01*
X167189687Y-124671864D01*
X166830070Y-124660533D01*
X166267308Y-124696916D01*
X165772596Y-124806610D01*
X165327381Y-124997100D01*
X164913111Y-125275875D01*
X164597524Y-125561432D01*
X164214240Y-126021345D01*
X163914022Y-126540649D01*
X163704121Y-127101993D01*
X163591785Y-127688023D01*
X163574230Y-128011134D01*
X163064502Y-128011134D01*
X163095097Y-127511187D01*
X163234185Y-126887194D01*
X163476749Y-126265438D01*
X163544424Y-126129404D01*
X163884012Y-125585239D01*
X164297780Y-125116436D01*
X164778568Y-124729009D01*
X165319217Y-124428969D01*
X165767328Y-124262609D01*
X166181564Y-124175780D01*
X166658436Y-124136839D01*
X167163393Y-124144805D01*
G37*
G36*
X124499036Y-128708483D02*
G01*
X124571886Y-128740087D01*
X124723863Y-128806282D01*
X124934411Y-128898107D01*
X125182976Y-129006603D01*
X125246894Y-129034515D01*
X125846844Y-129277620D01*
X126525618Y-129519413D01*
X127253595Y-129750076D01*
X128001152Y-129959792D01*
X128170342Y-130003422D01*
X128891006Y-130186137D01*
X128891006Y-130825509D01*
X128887834Y-131115728D01*
X128877424Y-131309856D01*
X128858434Y-131420424D01*
X128829522Y-131459959D01*
X128823019Y-131460489D01*
X128743958Y-131449670D01*
X128583160Y-131423834D01*
X128365960Y-131387146D01*
X128175907Y-131354069D01*
X127216033Y-131152966D01*
X126342652Y-130903552D01*
X125559644Y-130607174D01*
X124870890Y-130265180D01*
X124637908Y-130125579D01*
X124431049Y-129994995D01*
X124431049Y-129337181D01*
X124433659Y-129049164D01*
X124442428Y-128856816D01*
X124458761Y-128747134D01*
X124484066Y-128707112D01*
X124499036Y-128708483D01*
G37*
G36*
X180952132Y-130508847D02*
G01*
X181032881Y-130567142D01*
X181084633Y-130624277D01*
X181186574Y-130815579D01*
X181197759Y-131021154D01*
X181125823Y-131211725D01*
X180978403Y-131358015D01*
X180881116Y-131404595D01*
X180763252Y-131444624D01*
X180704039Y-131462676D01*
X180702697Y-131462753D01*
X180654867Y-131442117D01*
X180544735Y-131394294D01*
X180524732Y-131385594D01*
X180343977Y-131255406D01*
X180247245Y-131073472D01*
X180241921Y-130865245D01*
X180319687Y-130678981D01*
X180414709Y-130586665D01*
X180569765Y-130530699D01*
X180679910Y-130511701D01*
X180848465Y-130494258D01*
X180952132Y-130508847D01*
G37*
G36*
X183314370Y-129574957D02*
G01*
X183416882Y-129595213D01*
X183472730Y-129644332D01*
X183505716Y-129715252D01*
X183547472Y-129938493D01*
X183508584Y-130140872D01*
X183406718Y-130308341D01*
X183259539Y-130426849D01*
X183084713Y-130482349D01*
X182899904Y-130460790D01*
X182722778Y-130348124D01*
X182717052Y-130342476D01*
X182602212Y-130164599D01*
X182570329Y-129965416D01*
X182622485Y-129778720D01*
X182696038Y-129685396D01*
X182805846Y-129614325D01*
X182958107Y-129579540D01*
X183134189Y-129571575D01*
X183314370Y-129574957D01*
G37*
G36*
X124889616Y-123924773D02*
G01*
X125012125Y-123975902D01*
X125096561Y-124012741D01*
X125296098Y-124085964D01*
X125569273Y-124166055D01*
X125882033Y-124244522D01*
X126200325Y-124312873D01*
X126490097Y-124362616D01*
X126511455Y-124365596D01*
X126769807Y-124400883D01*
X126769807Y-124642304D01*
X126769807Y-124883725D01*
X126565845Y-124878845D01*
X126409897Y-124866502D01*
X126192843Y-124838671D01*
X125960237Y-124801235D01*
X125948214Y-124799072D01*
X125765637Y-124759023D01*
X125542166Y-124699747D01*
X125300455Y-124628593D01*
X125063155Y-124552914D01*
X124852918Y-124480059D01*
X124692397Y-124417379D01*
X124604243Y-124372223D01*
X124594218Y-124359712D01*
X124616766Y-124297847D01*
X124671400Y-124184262D01*
X124738607Y-124056116D01*
X124798873Y-123950568D01*
X124832684Y-123904774D01*
X124833163Y-123904710D01*
X124889616Y-123924773D01*
G37*
G36*
X124888617Y-122892315D02*
G01*
X125015902Y-122948179D01*
X125193257Y-123028156D01*
X125252832Y-123055357D01*
X125703120Y-123233363D01*
X126202344Y-123383099D01*
X126713083Y-123495898D01*
X127197918Y-123563093D01*
X127511192Y-123578372D01*
X127803211Y-123578372D01*
X127803211Y-123850321D01*
X127803211Y-124122269D01*
X127599250Y-124116665D01*
X127453838Y-124106508D01*
X127238050Y-124084104D01*
X126989066Y-124053486D01*
X126878586Y-124038454D01*
X126063022Y-123883950D01*
X125328888Y-123660784D01*
X125118715Y-123578116D01*
X124871359Y-123470204D01*
X124714936Y-123383883D01*
X124637746Y-123304695D01*
X124628091Y-123218181D01*
X124674271Y-123109884D01*
X124702048Y-123063205D01*
X124778761Y-122944365D01*
X124828564Y-122877019D01*
X124835748Y-122871306D01*
X124888617Y-122892315D01*
G37*
G36*
X125012535Y-120114513D02*
G01*
X125331205Y-120291923D01*
X125729591Y-120469242D01*
X126179140Y-120635862D01*
X126651299Y-120781173D01*
X127104976Y-120891958D01*
X127312549Y-120936341D01*
X127474682Y-120972856D01*
X127565634Y-120995632D01*
X127576135Y-120999432D01*
X127587074Y-121061993D01*
X127571797Y-121184020D01*
X127539711Y-121325400D01*
X127500224Y-121446020D01*
X127462743Y-121505769D01*
X127457100Y-121506977D01*
X127378074Y-121493462D01*
X127222491Y-121461576D01*
X127019784Y-121417421D01*
X126954904Y-121402857D01*
X126454186Y-121272956D01*
X125954532Y-121112814D01*
X125491214Y-120934867D01*
X125099505Y-120751549D01*
X125083725Y-120743158D01*
X124843454Y-120612674D01*
X124688701Y-120517945D01*
X124608796Y-120443928D01*
X124593068Y-120375581D01*
X124630843Y-120297861D01*
X124702805Y-120206209D01*
X124859760Y-120015845D01*
X125012535Y-120114513D01*
G37*
G36*
X184386653Y-117104398D02*
G01*
X184399257Y-117256416D01*
X184409495Y-117498120D01*
X184417054Y-117819968D01*
X184421619Y-118212421D01*
X184422912Y-118599616D01*
X184422912Y-120147627D01*
X184218950Y-120201010D01*
X183389290Y-120403666D01*
X182480266Y-120599336D01*
X181521286Y-120782165D01*
X180541761Y-120946297D01*
X180257564Y-120989636D01*
X179823543Y-121051308D01*
X179338667Y-121115028D01*
X178818598Y-121179164D01*
X178279002Y-121242085D01*
X177735540Y-121302159D01*
X177203878Y-121357755D01*
X176699677Y-121407240D01*
X176238603Y-121448983D01*
X175836319Y-121481352D01*
X175508489Y-121502715D01*
X175270775Y-121511442D01*
X175247371Y-121511563D01*
X175067879Y-121511563D01*
X175067879Y-119966236D01*
X175067879Y-119924487D01*
X175557387Y-119924487D01*
X175557387Y-120981696D01*
X176060492Y-120944024D01*
X176282765Y-120925715D01*
X176583955Y-120898548D01*
X176934823Y-120865282D01*
X177306128Y-120828679D01*
X177597001Y-120798976D01*
X178579445Y-120688365D01*
X179553533Y-120562237D01*
X180501782Y-120423424D01*
X181406711Y-120274755D01*
X182250838Y-120119061D01*
X183016681Y-119959172D01*
X183525481Y-119839129D01*
X183906209Y-119743897D01*
X183921071Y-118741670D01*
X183923603Y-118421580D01*
X183921636Y-118139285D01*
X183915634Y-117912675D01*
X183906064Y-117759644D01*
X183893876Y-117698487D01*
X183826148Y-117690850D01*
X183675774Y-117702148D01*
X183466766Y-117729930D01*
X183280727Y-117761060D01*
X182788402Y-117847135D01*
X182207764Y-117943318D01*
X181558503Y-118046721D01*
X180860306Y-118154454D01*
X180132862Y-118263630D01*
X179395858Y-118371359D01*
X178668983Y-118474752D01*
X177971925Y-118570921D01*
X177324373Y-118656977D01*
X176746014Y-118730031D01*
X176386830Y-118772577D01*
X175557387Y-118867277D01*
X175557387Y-119924487D01*
X175067879Y-119924487D01*
X175067879Y-118867277D01*
X175067879Y-118420910D01*
X175271841Y-118390179D01*
X175392818Y-118373675D01*
X175599328Y-118347332D01*
X175868858Y-118313948D01*
X176178899Y-118276318D01*
X176427622Y-118246618D01*
X177978993Y-118050340D01*
X179614670Y-117819196D01*
X181340896Y-117552266D01*
X182889878Y-117295560D01*
X183272271Y-117230693D01*
X183619939Y-117172315D01*
X183918327Y-117122822D01*
X184152880Y-117084609D01*
X184309042Y-117060073D01*
X184371997Y-117051605D01*
X184386653Y-117104398D01*
G37*
G36*
X124498351Y-114620838D02*
G01*
X124572667Y-114653551D01*
X124723986Y-114721120D01*
X124930172Y-114813635D01*
X125165310Y-114919479D01*
X125949269Y-115251642D01*
X126673601Y-115514974D01*
X127300106Y-115698803D01*
X127803211Y-115826165D01*
X127803211Y-117771434D01*
X127802926Y-118283499D01*
X127801731Y-118697176D01*
X127799117Y-119022854D01*
X127794573Y-119270924D01*
X127787592Y-119451775D01*
X127777661Y-119575798D01*
X127764274Y-119653382D01*
X127746919Y-119694918D01*
X127725088Y-119710795D01*
X127708029Y-119712268D01*
X127609015Y-119699147D01*
X127439958Y-119668940D01*
X127237017Y-119628117D01*
X127232119Y-119627079D01*
X126738063Y-119500861D01*
X126197307Y-119325919D01*
X125651406Y-119117122D01*
X125141916Y-118889338D01*
X125067422Y-118852560D01*
X124458243Y-118547323D01*
X124443961Y-116569614D01*
X124440803Y-116036591D01*
X124439955Y-115603634D01*
X124441659Y-115262047D01*
X124446158Y-115003135D01*
X124453695Y-114818203D01*
X124464512Y-114698556D01*
X124478851Y-114635500D01*
X124496957Y-114620338D01*
X124498351Y-114620838D01*
G37*
G36*
X143747044Y-80000710D02*
G01*
X144011727Y-80202409D01*
X144047232Y-80238721D01*
X144220811Y-80489929D01*
X144311757Y-80772982D01*
X144322856Y-81065478D01*
X144256894Y-81345013D01*
X144116656Y-81589184D01*
X143904929Y-81775589D01*
X143852480Y-81804872D01*
X143627863Y-81878341D01*
X143349734Y-81910843D01*
X143066851Y-81898471D01*
X142950749Y-81877162D01*
X142825680Y-81812861D01*
X142672780Y-81688333D01*
X142524369Y-81533990D01*
X142412766Y-81380239D01*
X142402211Y-81361052D01*
X142357571Y-81220996D01*
X142329806Y-81028307D01*
X142325267Y-80920497D01*
X142377020Y-80613416D01*
X142529852Y-80341482D01*
X142780125Y-80110396D01*
X142885247Y-80043037D01*
X143182273Y-79920766D01*
X143470048Y-79906744D01*
X143747044Y-80000710D01*
G37*
G36*
X167590900Y-126452690D02*
G01*
X167927480Y-126530337D01*
X168221067Y-126679415D01*
X168375047Y-126811477D01*
X168415074Y-126857781D01*
X168445571Y-126910093D01*
X168468000Y-126983104D01*
X168483822Y-127091508D01*
X168494499Y-127249998D01*
X168501493Y-127473265D01*
X168506266Y-127776003D01*
X168510258Y-128170495D01*
X168521528Y-129397584D01*
X168245775Y-129499193D01*
X167832998Y-129607526D01*
X167415984Y-129637497D01*
X167176092Y-129614911D01*
X166807698Y-129499330D01*
X166483380Y-129291020D01*
X166218786Y-129002255D01*
X166073510Y-128750258D01*
X165990425Y-128475491D01*
X165959839Y-128182642D01*
X166475732Y-128182642D01*
X166522113Y-128470602D01*
X166548878Y-128543181D01*
X166707848Y-128784911D01*
X166942276Y-128969966D01*
X167229702Y-129089053D01*
X167547665Y-129132878D01*
X167873704Y-129092146D01*
X167874839Y-129091843D01*
X167918958Y-129076865D01*
X167950951Y-129048788D01*
X167972766Y-128992025D01*
X167986352Y-128890993D01*
X167993657Y-128730105D01*
X167996628Y-128493776D01*
X167997213Y-128166422D01*
X167997216Y-128112771D01*
X167997216Y-127166495D01*
X167820449Y-127055487D01*
X167599192Y-126973922D01*
X167339071Y-126963975D01*
X167080811Y-127023111D01*
X166911740Y-127112053D01*
X166725338Y-127305081D01*
X166585259Y-127568666D01*
X166499419Y-127871591D01*
X166475732Y-128182642D01*
X165959839Y-128182642D01*
X165956046Y-128146324D01*
X165970241Y-127805554D01*
X166032876Y-127495980D01*
X166077798Y-127376098D01*
X166244722Y-127091032D01*
X166465708Y-126833112D01*
X166712767Y-126631043D01*
X166900115Y-126532727D01*
X167239165Y-126451732D01*
X167590900Y-126452690D01*
G37*
D12*
G04 #@! TO.C,D2*
X151000000Y-120770000D02*
G75*
G02*
X146000000Y-120770000I-2500000J0D01*
G01*
X146000000Y-120770000D02*
G75*
G02*
X151000000Y-120770000I2500000J0D01*
G01*
X148500048Y-117780000D02*
G75*
G02*
X150044830Y-123330000I-48J-2990000D01*
G01*
X146955170Y-123330000D02*
G75*
G02*
X148499952Y-117780000I1544830J2560000D01*
G01*
X146955000Y-123330000D02*
X150045000Y-123330000D01*
G04 #@! TO.C,SW3*
X170582527Y-109557867D02*
X170582527Y-111057867D01*
X171832527Y-113557867D02*
X176332527Y-113557867D01*
X176332527Y-107057867D02*
X171832527Y-107057867D01*
X177582527Y-111057867D02*
X177582527Y-109557867D01*
G04 #@! TO.C,SW2*
X129250000Y-119500000D02*
X129250000Y-121000000D01*
X130500000Y-123500000D02*
X135000000Y-123500000D01*
X135000000Y-117000000D02*
X130500000Y-117000000D01*
X136250000Y-121000000D02*
X136250000Y-119500000D01*
G04 #@! TO.C,SW1*
X129250000Y-129500000D02*
X129250000Y-131000000D01*
X130500000Y-133500000D02*
X135000000Y-133500000D01*
X135000000Y-127000000D02*
X130500000Y-127000000D01*
X136250000Y-131000000D02*
X136250000Y-129500000D01*
G04 #@! TO.C,M1*
X160880000Y-91880000D02*
X159500000Y-91880000D01*
X160880000Y-90500000D02*
X160880000Y-91880000D01*
X160880000Y-89230000D02*
X160880000Y-86580000D01*
X160880000Y-89230000D02*
X158120000Y-89230000D01*
X160880000Y-86580000D02*
X158120000Y-86580000D01*
X158120000Y-89230000D02*
X158120000Y-86580000D01*
G04 #@! TO.C,D1*
X165545000Y-132435000D02*
X162455000Y-132435000D01*
X165544830Y-132435000D02*
G75*
G02*
X164000048Y-137985000I-1544830J-2560000D01*
G01*
X163999952Y-137985000D02*
G75*
G02*
X162455170Y-132435000I48J2990000D01*
G01*
X166500000Y-134995000D02*
G75*
G02*
X161500000Y-134995000I-2500000J0D01*
G01*
X161500000Y-134995000D02*
G75*
G02*
X166500000Y-134995000I2500000J0D01*
G01*
G04 #@! TD*
%LPC*%
D13*
G04 #@! TO.C,R1*
X146000000Y-135500000D03*
D14*
X153620000Y-135500000D03*
G04 #@! TD*
G04 #@! TO.C,R2*
X159880000Y-120000000D03*
D13*
X167500000Y-120000000D03*
G04 #@! TD*
D14*
G04 #@! TO.C,R3*
X151880000Y-107000000D03*
D13*
X159500000Y-107000000D03*
G04 #@! TD*
D15*
G04 #@! TO.C,D2*
X148500000Y-119500000D03*
D16*
X148500000Y-122040000D03*
G04 #@! TD*
D17*
G04 #@! TO.C,SW3*
X170832527Y-108057867D03*
X177332527Y-108057867D03*
X170832527Y-112557867D03*
X177332527Y-112557867D03*
G04 #@! TD*
G04 #@! TO.C,SW2*
X129500000Y-118000000D03*
X136000000Y-118000000D03*
X129500000Y-122500000D03*
X136000000Y-122500000D03*
G04 #@! TD*
G04 #@! TO.C,SW1*
X129500000Y-128000000D03*
X136000000Y-128000000D03*
X129500000Y-132500000D03*
X136000000Y-132500000D03*
G04 #@! TD*
D18*
G04 #@! TO.C,M1*
X159500000Y-90500000D03*
D19*
X159500000Y-87960000D03*
G04 #@! TD*
D16*
G04 #@! TO.C,D1*
X164000000Y-133725000D03*
D15*
X164000000Y-136265000D03*
G04 #@! TD*
%LPD*%
M02*
