G04 #@! TF.GenerationSoftware,KiCad,Pcbnew,9.0.1*
G04 #@! TF.CreationDate,2025-04-26T15:50:14-04:00*
G04 #@! TF.ProjectId,FISH,46495348-2e6b-4696-9361-645f70636258,rev?*
G04 #@! TF.SameCoordinates,Original*
G04 #@! TF.FileFunction,Legend,Bot*
G04 #@! TF.FilePolarity,Positive*
%FSLAX46Y46*%
G04 Gerber Fmt 4.6, Leading zero omitted, Abs format (unit mm)*
G04 Created by KiCad (PCBNEW 9.0.1) date 2025-04-26 15:50:14*
%MOMM*%
%LPD*%
G01*
G04 APERTURE LIST*
%ADD10C,0.200000*%
%ADD11C,0.300000*%
%ADD12C,0.150000*%
%ADD13C,0.120000*%
%ADD14C,17.800000*%
%ADD15R,1.270000X5.080000*%
%ADD16C,1.600000*%
%ADD17O,1.600000X1.600000*%
%ADD18C,1.800000*%
%ADD19R,1.800000X1.800000*%
%ADD20C,2.000000*%
%ADD21R,1.700000X1.700000*%
%ADD22C,1.700000*%
G04 APERTURE END LIST*
D10*
X187630326Y-121867219D02*
X187630326Y-120867219D01*
X187201755Y-121867219D02*
X187201755Y-121343409D01*
X187201755Y-121343409D02*
X187249374Y-121248171D01*
X187249374Y-121248171D02*
X187344612Y-121200552D01*
X187344612Y-121200552D02*
X187487469Y-121200552D01*
X187487469Y-121200552D02*
X187582707Y-121248171D01*
X187582707Y-121248171D02*
X187630326Y-121295790D01*
X186296993Y-121867219D02*
X186296993Y-121343409D01*
X186296993Y-121343409D02*
X186344612Y-121248171D01*
X186344612Y-121248171D02*
X186439850Y-121200552D01*
X186439850Y-121200552D02*
X186630326Y-121200552D01*
X186630326Y-121200552D02*
X186725564Y-121248171D01*
X186296993Y-121819600D02*
X186392231Y-121867219D01*
X186392231Y-121867219D02*
X186630326Y-121867219D01*
X186630326Y-121867219D02*
X186725564Y-121819600D01*
X186725564Y-121819600D02*
X186773183Y-121724361D01*
X186773183Y-121724361D02*
X186773183Y-121629123D01*
X186773183Y-121629123D02*
X186725564Y-121533885D01*
X186725564Y-121533885D02*
X186630326Y-121486266D01*
X186630326Y-121486266D02*
X186392231Y-121486266D01*
X186392231Y-121486266D02*
X186296993Y-121438647D01*
X185392231Y-121819600D02*
X185487469Y-121867219D01*
X185487469Y-121867219D02*
X185677945Y-121867219D01*
X185677945Y-121867219D02*
X185773183Y-121819600D01*
X185773183Y-121819600D02*
X185820802Y-121771980D01*
X185820802Y-121771980D02*
X185868421Y-121676742D01*
X185868421Y-121676742D02*
X185868421Y-121391028D01*
X185868421Y-121391028D02*
X185820802Y-121295790D01*
X185820802Y-121295790D02*
X185773183Y-121248171D01*
X185773183Y-121248171D02*
X185677945Y-121200552D01*
X185677945Y-121200552D02*
X185487469Y-121200552D01*
X185487469Y-121200552D02*
X185392231Y-121248171D01*
X184963659Y-121867219D02*
X184963659Y-120867219D01*
X184868421Y-121486266D02*
X184582707Y-121867219D01*
X184582707Y-121200552D02*
X184963659Y-121581504D01*
X182963659Y-121819600D02*
X183058897Y-121867219D01*
X183058897Y-121867219D02*
X183249373Y-121867219D01*
X183249373Y-121867219D02*
X183344611Y-121819600D01*
X183344611Y-121819600D02*
X183392230Y-121771980D01*
X183392230Y-121771980D02*
X183439849Y-121676742D01*
X183439849Y-121676742D02*
X183439849Y-121391028D01*
X183439849Y-121391028D02*
X183392230Y-121295790D01*
X183392230Y-121295790D02*
X183344611Y-121248171D01*
X183344611Y-121248171D02*
X183249373Y-121200552D01*
X183249373Y-121200552D02*
X183058897Y-121200552D01*
X183058897Y-121200552D02*
X182963659Y-121248171D01*
X182392230Y-121867219D02*
X182487468Y-121819600D01*
X182487468Y-121819600D02*
X182535087Y-121724361D01*
X182535087Y-121724361D02*
X182535087Y-120867219D01*
X181582706Y-121200552D02*
X181582706Y-121867219D01*
X182011277Y-121200552D02*
X182011277Y-121724361D01*
X182011277Y-121724361D02*
X181963658Y-121819600D01*
X181963658Y-121819600D02*
X181868420Y-121867219D01*
X181868420Y-121867219D02*
X181725563Y-121867219D01*
X181725563Y-121867219D02*
X181630325Y-121819600D01*
X181630325Y-121819600D02*
X181582706Y-121771980D01*
X181106515Y-121867219D02*
X181106515Y-120867219D01*
X181106515Y-121248171D02*
X181011277Y-121200552D01*
X181011277Y-121200552D02*
X180820801Y-121200552D01*
X180820801Y-121200552D02*
X180725563Y-121248171D01*
X180725563Y-121248171D02*
X180677944Y-121295790D01*
X180677944Y-121295790D02*
X180630325Y-121391028D01*
X180630325Y-121391028D02*
X180630325Y-121676742D01*
X180630325Y-121676742D02*
X180677944Y-121771980D01*
X180677944Y-121771980D02*
X180725563Y-121819600D01*
X180725563Y-121819600D02*
X180820801Y-121867219D01*
X180820801Y-121867219D02*
X181011277Y-121867219D01*
X181011277Y-121867219D02*
X181106515Y-121819600D01*
X179487467Y-120962457D02*
X179439848Y-120914838D01*
X179439848Y-120914838D02*
X179344610Y-120867219D01*
X179344610Y-120867219D02*
X179106515Y-120867219D01*
X179106515Y-120867219D02*
X179011277Y-120914838D01*
X179011277Y-120914838D02*
X178963658Y-120962457D01*
X178963658Y-120962457D02*
X178916039Y-121057695D01*
X178916039Y-121057695D02*
X178916039Y-121152933D01*
X178916039Y-121152933D02*
X178963658Y-121295790D01*
X178963658Y-121295790D02*
X179535086Y-121867219D01*
X179535086Y-121867219D02*
X178916039Y-121867219D01*
X178296991Y-120867219D02*
X178201753Y-120867219D01*
X178201753Y-120867219D02*
X178106515Y-120914838D01*
X178106515Y-120914838D02*
X178058896Y-120962457D01*
X178058896Y-120962457D02*
X178011277Y-121057695D01*
X178011277Y-121057695D02*
X177963658Y-121248171D01*
X177963658Y-121248171D02*
X177963658Y-121486266D01*
X177963658Y-121486266D02*
X178011277Y-121676742D01*
X178011277Y-121676742D02*
X178058896Y-121771980D01*
X178058896Y-121771980D02*
X178106515Y-121819600D01*
X178106515Y-121819600D02*
X178201753Y-121867219D01*
X178201753Y-121867219D02*
X178296991Y-121867219D01*
X178296991Y-121867219D02*
X178392229Y-121819600D01*
X178392229Y-121819600D02*
X178439848Y-121771980D01*
X178439848Y-121771980D02*
X178487467Y-121676742D01*
X178487467Y-121676742D02*
X178535086Y-121486266D01*
X178535086Y-121486266D02*
X178535086Y-121248171D01*
X178535086Y-121248171D02*
X178487467Y-121057695D01*
X178487467Y-121057695D02*
X178439848Y-120962457D01*
X178439848Y-120962457D02*
X178392229Y-120914838D01*
X178392229Y-120914838D02*
X178296991Y-120867219D01*
X177582705Y-120962457D02*
X177535086Y-120914838D01*
X177535086Y-120914838D02*
X177439848Y-120867219D01*
X177439848Y-120867219D02*
X177201753Y-120867219D01*
X177201753Y-120867219D02*
X177106515Y-120914838D01*
X177106515Y-120914838D02*
X177058896Y-120962457D01*
X177058896Y-120962457D02*
X177011277Y-121057695D01*
X177011277Y-121057695D02*
X177011277Y-121152933D01*
X177011277Y-121152933D02*
X177058896Y-121295790D01*
X177058896Y-121295790D02*
X177630324Y-121867219D01*
X177630324Y-121867219D02*
X177011277Y-121867219D01*
X176106515Y-120867219D02*
X176582705Y-120867219D01*
X176582705Y-120867219D02*
X176630324Y-121343409D01*
X176630324Y-121343409D02*
X176582705Y-121295790D01*
X176582705Y-121295790D02*
X176487467Y-121248171D01*
X176487467Y-121248171D02*
X176249372Y-121248171D01*
X176249372Y-121248171D02*
X176154134Y-121295790D01*
X176154134Y-121295790D02*
X176106515Y-121343409D01*
X176106515Y-121343409D02*
X176058896Y-121438647D01*
X176058896Y-121438647D02*
X176058896Y-121676742D01*
X176058896Y-121676742D02*
X176106515Y-121771980D01*
X176106515Y-121771980D02*
X176154134Y-121819600D01*
X176154134Y-121819600D02*
X176249372Y-121867219D01*
X176249372Y-121867219D02*
X176487467Y-121867219D01*
X176487467Y-121867219D02*
X176582705Y-121819600D01*
X176582705Y-121819600D02*
X176630324Y-121771980D01*
X174106515Y-121200552D02*
X174868419Y-121486266D01*
X174868419Y-121486266D02*
X174106515Y-121771980D01*
X173725562Y-120867219D02*
X173106515Y-120867219D01*
X173106515Y-120867219D02*
X173439848Y-121248171D01*
X173439848Y-121248171D02*
X173296991Y-121248171D01*
X173296991Y-121248171D02*
X173201753Y-121295790D01*
X173201753Y-121295790D02*
X173154134Y-121343409D01*
X173154134Y-121343409D02*
X173106515Y-121438647D01*
X173106515Y-121438647D02*
X173106515Y-121676742D01*
X173106515Y-121676742D02*
X173154134Y-121771980D01*
X173154134Y-121771980D02*
X173201753Y-121819600D01*
X173201753Y-121819600D02*
X173296991Y-121867219D01*
X173296991Y-121867219D02*
X173582705Y-121867219D01*
X173582705Y-121867219D02*
X173677943Y-121819600D01*
X173677943Y-121819600D02*
X173725562Y-121771980D01*
X144201755Y-137200552D02*
X144201755Y-138010076D01*
X144201755Y-138010076D02*
X144249374Y-138105314D01*
X144249374Y-138105314D02*
X144296993Y-138152933D01*
X144296993Y-138152933D02*
X144392231Y-138200552D01*
X144392231Y-138200552D02*
X144535088Y-138200552D01*
X144535088Y-138200552D02*
X144630326Y-138152933D01*
X144201755Y-137819600D02*
X144296993Y-137867219D01*
X144296993Y-137867219D02*
X144487469Y-137867219D01*
X144487469Y-137867219D02*
X144582707Y-137819600D01*
X144582707Y-137819600D02*
X144630326Y-137771980D01*
X144630326Y-137771980D02*
X144677945Y-137676742D01*
X144677945Y-137676742D02*
X144677945Y-137391028D01*
X144677945Y-137391028D02*
X144630326Y-137295790D01*
X144630326Y-137295790D02*
X144582707Y-137248171D01*
X144582707Y-137248171D02*
X144487469Y-137200552D01*
X144487469Y-137200552D02*
X144296993Y-137200552D01*
X144296993Y-137200552D02*
X144201755Y-137248171D01*
X143582707Y-137867219D02*
X143677945Y-137819600D01*
X143677945Y-137819600D02*
X143725564Y-137724361D01*
X143725564Y-137724361D02*
X143725564Y-136867219D01*
X143201754Y-137867219D02*
X143201754Y-137200552D01*
X143201754Y-136867219D02*
X143249373Y-136914838D01*
X143249373Y-136914838D02*
X143201754Y-136962457D01*
X143201754Y-136962457D02*
X143154135Y-136914838D01*
X143154135Y-136914838D02*
X143201754Y-136867219D01*
X143201754Y-136867219D02*
X143201754Y-136962457D01*
X142725564Y-137200552D02*
X142725564Y-138200552D01*
X142725564Y-137248171D02*
X142630326Y-137200552D01*
X142630326Y-137200552D02*
X142439850Y-137200552D01*
X142439850Y-137200552D02*
X142344612Y-137248171D01*
X142344612Y-137248171D02*
X142296993Y-137295790D01*
X142296993Y-137295790D02*
X142249374Y-137391028D01*
X142249374Y-137391028D02*
X142249374Y-137676742D01*
X142249374Y-137676742D02*
X142296993Y-137771980D01*
X142296993Y-137771980D02*
X142344612Y-137819600D01*
X142344612Y-137819600D02*
X142439850Y-137867219D01*
X142439850Y-137867219D02*
X142630326Y-137867219D01*
X142630326Y-137867219D02*
X142725564Y-137819600D01*
X140630326Y-137200552D02*
X140630326Y-138010076D01*
X140630326Y-138010076D02*
X140677945Y-138105314D01*
X140677945Y-138105314D02*
X140725564Y-138152933D01*
X140725564Y-138152933D02*
X140820802Y-138200552D01*
X140820802Y-138200552D02*
X140963659Y-138200552D01*
X140963659Y-138200552D02*
X141058897Y-138152933D01*
X140630326Y-137819600D02*
X140725564Y-137867219D01*
X140725564Y-137867219D02*
X140916040Y-137867219D01*
X140916040Y-137867219D02*
X141011278Y-137819600D01*
X141011278Y-137819600D02*
X141058897Y-137771980D01*
X141058897Y-137771980D02*
X141106516Y-137676742D01*
X141106516Y-137676742D02*
X141106516Y-137391028D01*
X141106516Y-137391028D02*
X141058897Y-137295790D01*
X141058897Y-137295790D02*
X141011278Y-137248171D01*
X141011278Y-137248171D02*
X140916040Y-137200552D01*
X140916040Y-137200552D02*
X140725564Y-137200552D01*
X140725564Y-137200552D02*
X140630326Y-137248171D01*
X140011278Y-137867219D02*
X140106516Y-137819600D01*
X140106516Y-137819600D02*
X140154135Y-137724361D01*
X140154135Y-137724361D02*
X140154135Y-136867219D01*
X139201754Y-137200552D02*
X139201754Y-137867219D01*
X139630325Y-137200552D02*
X139630325Y-137724361D01*
X139630325Y-137724361D02*
X139582706Y-137819600D01*
X139582706Y-137819600D02*
X139487468Y-137867219D01*
X139487468Y-137867219D02*
X139344611Y-137867219D01*
X139344611Y-137867219D02*
X139249373Y-137819600D01*
X139249373Y-137819600D02*
X139201754Y-137771980D01*
X138725563Y-137200552D02*
X138725563Y-138200552D01*
X138725563Y-137248171D02*
X138630325Y-137200552D01*
X138630325Y-137200552D02*
X138439849Y-137200552D01*
X138439849Y-137200552D02*
X138344611Y-137248171D01*
X138344611Y-137248171D02*
X138296992Y-137295790D01*
X138296992Y-137295790D02*
X138249373Y-137391028D01*
X138249373Y-137391028D02*
X138249373Y-137676742D01*
X138249373Y-137676742D02*
X138296992Y-137771980D01*
X138296992Y-137771980D02*
X138344611Y-137819600D01*
X138344611Y-137819600D02*
X138439849Y-137867219D01*
X138439849Y-137867219D02*
X138630325Y-137867219D01*
X138630325Y-137867219D02*
X138725563Y-137819600D01*
X136630325Y-137200552D02*
X136630325Y-138010076D01*
X136630325Y-138010076D02*
X136677944Y-138105314D01*
X136677944Y-138105314D02*
X136725563Y-138152933D01*
X136725563Y-138152933D02*
X136820801Y-138200552D01*
X136820801Y-138200552D02*
X136963658Y-138200552D01*
X136963658Y-138200552D02*
X137058896Y-138152933D01*
X136630325Y-137819600D02*
X136725563Y-137867219D01*
X136725563Y-137867219D02*
X136916039Y-137867219D01*
X136916039Y-137867219D02*
X137011277Y-137819600D01*
X137011277Y-137819600D02*
X137058896Y-137771980D01*
X137058896Y-137771980D02*
X137106515Y-137676742D01*
X137106515Y-137676742D02*
X137106515Y-137391028D01*
X137106515Y-137391028D02*
X137058896Y-137295790D01*
X137058896Y-137295790D02*
X137011277Y-137248171D01*
X137011277Y-137248171D02*
X136916039Y-137200552D01*
X136916039Y-137200552D02*
X136725563Y-137200552D01*
X136725563Y-137200552D02*
X136630325Y-137248171D01*
X136011277Y-137867219D02*
X136106515Y-137819600D01*
X136106515Y-137819600D02*
X136154134Y-137724361D01*
X136154134Y-137724361D02*
X136154134Y-136867219D01*
X135201753Y-137867219D02*
X135201753Y-137343409D01*
X135201753Y-137343409D02*
X135249372Y-137248171D01*
X135249372Y-137248171D02*
X135344610Y-137200552D01*
X135344610Y-137200552D02*
X135535086Y-137200552D01*
X135535086Y-137200552D02*
X135630324Y-137248171D01*
X135201753Y-137819600D02*
X135296991Y-137867219D01*
X135296991Y-137867219D02*
X135535086Y-137867219D01*
X135535086Y-137867219D02*
X135630324Y-137819600D01*
X135630324Y-137819600D02*
X135677943Y-137724361D01*
X135677943Y-137724361D02*
X135677943Y-137629123D01*
X135677943Y-137629123D02*
X135630324Y-137533885D01*
X135630324Y-137533885D02*
X135535086Y-137486266D01*
X135535086Y-137486266D02*
X135296991Y-137486266D01*
X135296991Y-137486266D02*
X135201753Y-137438647D01*
X134725562Y-137200552D02*
X134725562Y-138200552D01*
X134725562Y-137248171D02*
X134630324Y-137200552D01*
X134630324Y-137200552D02*
X134439848Y-137200552D01*
X134439848Y-137200552D02*
X134344610Y-137248171D01*
X134344610Y-137248171D02*
X134296991Y-137295790D01*
X134296991Y-137295790D02*
X134249372Y-137391028D01*
X134249372Y-137391028D02*
X134249372Y-137676742D01*
X134249372Y-137676742D02*
X134296991Y-137771980D01*
X134296991Y-137771980D02*
X134344610Y-137819600D01*
X134344610Y-137819600D02*
X134439848Y-137867219D01*
X134439848Y-137867219D02*
X134630324Y-137867219D01*
X134630324Y-137867219D02*
X134725562Y-137819600D01*
X133058895Y-137771980D02*
X133011276Y-137819600D01*
X133011276Y-137819600D02*
X133058895Y-137867219D01*
X133058895Y-137867219D02*
X133106514Y-137819600D01*
X133106514Y-137819600D02*
X133058895Y-137771980D01*
X133058895Y-137771980D02*
X133058895Y-137867219D01*
X133058895Y-137248171D02*
X133011276Y-137295790D01*
X133011276Y-137295790D02*
X133058895Y-137343409D01*
X133058895Y-137343409D02*
X133106514Y-137295790D01*
X133106514Y-137295790D02*
X133058895Y-137248171D01*
X133058895Y-137248171D02*
X133058895Y-137343409D01*
X132725562Y-137200552D02*
X132344610Y-137200552D01*
X132582705Y-137867219D02*
X132582705Y-137010076D01*
X132582705Y-137010076D02*
X132535086Y-136914838D01*
X132535086Y-136914838D02*
X132439848Y-136867219D01*
X132439848Y-136867219D02*
X132344610Y-136867219D01*
X132011276Y-137867219D02*
X132011276Y-137200552D01*
X132011276Y-136867219D02*
X132058895Y-136914838D01*
X132058895Y-136914838D02*
X132011276Y-136962457D01*
X132011276Y-136962457D02*
X131963657Y-136914838D01*
X131963657Y-136914838D02*
X132011276Y-136867219D01*
X132011276Y-136867219D02*
X132011276Y-136962457D01*
X131582705Y-137819600D02*
X131487467Y-137867219D01*
X131487467Y-137867219D02*
X131296991Y-137867219D01*
X131296991Y-137867219D02*
X131201753Y-137819600D01*
X131201753Y-137819600D02*
X131154134Y-137724361D01*
X131154134Y-137724361D02*
X131154134Y-137676742D01*
X131154134Y-137676742D02*
X131201753Y-137581504D01*
X131201753Y-137581504D02*
X131296991Y-137533885D01*
X131296991Y-137533885D02*
X131439848Y-137533885D01*
X131439848Y-137533885D02*
X131535086Y-137486266D01*
X131535086Y-137486266D02*
X131582705Y-137391028D01*
X131582705Y-137391028D02*
X131582705Y-137343409D01*
X131582705Y-137343409D02*
X131535086Y-137248171D01*
X131535086Y-137248171D02*
X131439848Y-137200552D01*
X131439848Y-137200552D02*
X131296991Y-137200552D01*
X131296991Y-137200552D02*
X131201753Y-137248171D01*
X130725562Y-137867219D02*
X130725562Y-136867219D01*
X130296991Y-137867219D02*
X130296991Y-137343409D01*
X130296991Y-137343409D02*
X130344610Y-137248171D01*
X130344610Y-137248171D02*
X130439848Y-137200552D01*
X130439848Y-137200552D02*
X130582705Y-137200552D01*
X130582705Y-137200552D02*
X130677943Y-137248171D01*
X130677943Y-137248171D02*
X130725562Y-137295790D01*
X129820800Y-137771980D02*
X129773181Y-137819600D01*
X129773181Y-137819600D02*
X129820800Y-137867219D01*
X129820800Y-137867219D02*
X129868419Y-137819600D01*
X129868419Y-137819600D02*
X129820800Y-137771980D01*
X129820800Y-137771980D02*
X129820800Y-137867219D01*
X129820800Y-137248171D02*
X129773181Y-137295790D01*
X129773181Y-137295790D02*
X129820800Y-137343409D01*
X129820800Y-137343409D02*
X129868419Y-137295790D01*
X129868419Y-137295790D02*
X129820800Y-137248171D01*
X129820800Y-137248171D02*
X129820800Y-137343409D01*
D11*
X187445489Y-124556080D02*
X187445489Y-123556080D01*
X187445489Y-123698937D02*
X187374060Y-123627509D01*
X187374060Y-123627509D02*
X187231203Y-123556080D01*
X187231203Y-123556080D02*
X187016917Y-123556080D01*
X187016917Y-123556080D02*
X186874060Y-123627509D01*
X186874060Y-123627509D02*
X186802632Y-123770366D01*
X186802632Y-123770366D02*
X186802632Y-124556080D01*
X186802632Y-123770366D02*
X186731203Y-123627509D01*
X186731203Y-123627509D02*
X186588346Y-123556080D01*
X186588346Y-123556080D02*
X186374060Y-123556080D01*
X186374060Y-123556080D02*
X186231203Y-123627509D01*
X186231203Y-123627509D02*
X186159774Y-123770366D01*
X186159774Y-123770366D02*
X186159774Y-124556080D01*
X184802632Y-124556080D02*
X184802632Y-123770366D01*
X184802632Y-123770366D02*
X184874060Y-123627509D01*
X184874060Y-123627509D02*
X185016917Y-123556080D01*
X185016917Y-123556080D02*
X185302632Y-123556080D01*
X185302632Y-123556080D02*
X185445489Y-123627509D01*
X184802632Y-124484652D02*
X184945489Y-124556080D01*
X184945489Y-124556080D02*
X185302632Y-124556080D01*
X185302632Y-124556080D02*
X185445489Y-124484652D01*
X185445489Y-124484652D02*
X185516917Y-124341794D01*
X185516917Y-124341794D02*
X185516917Y-124198937D01*
X185516917Y-124198937D02*
X185445489Y-124056080D01*
X185445489Y-124056080D02*
X185302632Y-123984652D01*
X185302632Y-123984652D02*
X184945489Y-123984652D01*
X184945489Y-123984652D02*
X184802632Y-123913223D01*
X183445489Y-124556080D02*
X183445489Y-123056080D01*
X183445489Y-124484652D02*
X183588346Y-124556080D01*
X183588346Y-124556080D02*
X183874060Y-124556080D01*
X183874060Y-124556080D02*
X184016917Y-124484652D01*
X184016917Y-124484652D02*
X184088346Y-124413223D01*
X184088346Y-124413223D02*
X184159774Y-124270366D01*
X184159774Y-124270366D02*
X184159774Y-123841794D01*
X184159774Y-123841794D02*
X184088346Y-123698937D01*
X184088346Y-123698937D02*
X184016917Y-123627509D01*
X184016917Y-123627509D02*
X183874060Y-123556080D01*
X183874060Y-123556080D02*
X183588346Y-123556080D01*
X183588346Y-123556080D02*
X183445489Y-123627509D01*
X182159774Y-124484652D02*
X182302631Y-124556080D01*
X182302631Y-124556080D02*
X182588346Y-124556080D01*
X182588346Y-124556080D02*
X182731203Y-124484652D01*
X182731203Y-124484652D02*
X182802631Y-124341794D01*
X182802631Y-124341794D02*
X182802631Y-123770366D01*
X182802631Y-123770366D02*
X182731203Y-123627509D01*
X182731203Y-123627509D02*
X182588346Y-123556080D01*
X182588346Y-123556080D02*
X182302631Y-123556080D01*
X182302631Y-123556080D02*
X182159774Y-123627509D01*
X182159774Y-123627509D02*
X182088346Y-123770366D01*
X182088346Y-123770366D02*
X182088346Y-123913223D01*
X182088346Y-123913223D02*
X182802631Y-124056080D01*
X180445489Y-123556080D02*
X180159775Y-124556080D01*
X180159775Y-124556080D02*
X179874060Y-123841794D01*
X179874060Y-123841794D02*
X179588346Y-124556080D01*
X179588346Y-124556080D02*
X179302632Y-123556080D01*
X177659774Y-122984652D02*
X178945488Y-124913223D01*
X175802631Y-124556080D02*
X175945488Y-124484652D01*
X175945488Y-124484652D02*
X176016917Y-124341794D01*
X176016917Y-124341794D02*
X176016917Y-123056080D01*
X175016917Y-124556080D02*
X175159774Y-124484652D01*
X175159774Y-124484652D02*
X175231203Y-124413223D01*
X175231203Y-124413223D02*
X175302631Y-124270366D01*
X175302631Y-124270366D02*
X175302631Y-123841794D01*
X175302631Y-123841794D02*
X175231203Y-123698937D01*
X175231203Y-123698937D02*
X175159774Y-123627509D01*
X175159774Y-123627509D02*
X175016917Y-123556080D01*
X175016917Y-123556080D02*
X174802631Y-123556080D01*
X174802631Y-123556080D02*
X174659774Y-123627509D01*
X174659774Y-123627509D02*
X174588346Y-123698937D01*
X174588346Y-123698937D02*
X174516917Y-123841794D01*
X174516917Y-123841794D02*
X174516917Y-124270366D01*
X174516917Y-124270366D02*
X174588346Y-124413223D01*
X174588346Y-124413223D02*
X174659774Y-124484652D01*
X174659774Y-124484652D02*
X174802631Y-124556080D01*
X174802631Y-124556080D02*
X175016917Y-124556080D01*
X174016917Y-123556080D02*
X173659774Y-124556080D01*
X173659774Y-124556080D02*
X173302631Y-123556080D01*
X172159774Y-124484652D02*
X172302631Y-124556080D01*
X172302631Y-124556080D02*
X172588346Y-124556080D01*
X172588346Y-124556080D02*
X172731203Y-124484652D01*
X172731203Y-124484652D02*
X172802631Y-124341794D01*
X172802631Y-124341794D02*
X172802631Y-123770366D01*
X172802631Y-123770366D02*
X172731203Y-123627509D01*
X172731203Y-123627509D02*
X172588346Y-123556080D01*
X172588346Y-123556080D02*
X172302631Y-123556080D01*
X172302631Y-123556080D02*
X172159774Y-123627509D01*
X172159774Y-123627509D02*
X172088346Y-123770366D01*
X172088346Y-123770366D02*
X172088346Y-123913223D01*
X172088346Y-123913223D02*
X172802631Y-124056080D01*
X170302632Y-124556080D02*
X170302632Y-123056080D01*
X170302632Y-123627509D02*
X170159775Y-123556080D01*
X170159775Y-123556080D02*
X169874060Y-123556080D01*
X169874060Y-123556080D02*
X169731203Y-123627509D01*
X169731203Y-123627509D02*
X169659775Y-123698937D01*
X169659775Y-123698937D02*
X169588346Y-123841794D01*
X169588346Y-123841794D02*
X169588346Y-124270366D01*
X169588346Y-124270366D02*
X169659775Y-124413223D01*
X169659775Y-124413223D02*
X169731203Y-124484652D01*
X169731203Y-124484652D02*
X169874060Y-124556080D01*
X169874060Y-124556080D02*
X170159775Y-124556080D01*
X170159775Y-124556080D02*
X170302632Y-124484652D01*
X169088346Y-123556080D02*
X168731203Y-124556080D01*
X168374060Y-123556080D02*
X168731203Y-124556080D01*
X168731203Y-124556080D02*
X168874060Y-124913223D01*
X168874060Y-124913223D02*
X168945489Y-124984652D01*
X168945489Y-124984652D02*
X169088346Y-125056080D01*
X186802632Y-126970996D02*
X186802632Y-126185282D01*
X186802632Y-126185282D02*
X186874060Y-126042425D01*
X186874060Y-126042425D02*
X187016917Y-125970996D01*
X187016917Y-125970996D02*
X187302632Y-125970996D01*
X187302632Y-125970996D02*
X187445489Y-126042425D01*
X186802632Y-126899568D02*
X186945489Y-126970996D01*
X186945489Y-126970996D02*
X187302632Y-126970996D01*
X187302632Y-126970996D02*
X187445489Y-126899568D01*
X187445489Y-126899568D02*
X187516917Y-126756710D01*
X187516917Y-126756710D02*
X187516917Y-126613853D01*
X187516917Y-126613853D02*
X187445489Y-126470996D01*
X187445489Y-126470996D02*
X187302632Y-126399568D01*
X187302632Y-126399568D02*
X186945489Y-126399568D01*
X186945489Y-126399568D02*
X186802632Y-126328139D01*
X185874060Y-126970996D02*
X186016917Y-126899568D01*
X186016917Y-126899568D02*
X186088346Y-126756710D01*
X186088346Y-126756710D02*
X186088346Y-125470996D01*
X184731203Y-126899568D02*
X184874060Y-126970996D01*
X184874060Y-126970996D02*
X185159775Y-126970996D01*
X185159775Y-126970996D02*
X185302632Y-126899568D01*
X185302632Y-126899568D02*
X185374060Y-126756710D01*
X185374060Y-126756710D02*
X185374060Y-126185282D01*
X185374060Y-126185282D02*
X185302632Y-126042425D01*
X185302632Y-126042425D02*
X185159775Y-125970996D01*
X185159775Y-125970996D02*
X184874060Y-125970996D01*
X184874060Y-125970996D02*
X184731203Y-126042425D01*
X184731203Y-126042425D02*
X184659775Y-126185282D01*
X184659775Y-126185282D02*
X184659775Y-126328139D01*
X184659775Y-126328139D02*
X185374060Y-126470996D01*
X184159775Y-126970996D02*
X183374061Y-125970996D01*
X184159775Y-125970996D02*
X183374061Y-126970996D01*
X181874060Y-125970996D02*
X181302632Y-125970996D01*
X181659775Y-125470996D02*
X181659775Y-126756710D01*
X181659775Y-126756710D02*
X181588346Y-126899568D01*
X181588346Y-126899568D02*
X181445489Y-126970996D01*
X181445489Y-126970996D02*
X181302632Y-126970996D01*
X187445489Y-131657971D02*
X187374060Y-131729400D01*
X187374060Y-131729400D02*
X187445489Y-131800828D01*
X187445489Y-131800828D02*
X187516917Y-131729400D01*
X187516917Y-131729400D02*
X187445489Y-131657971D01*
X187445489Y-131657971D02*
X187445489Y-131800828D01*
X187445489Y-130872257D02*
X187374060Y-130943685D01*
X187374060Y-130943685D02*
X187445489Y-131015114D01*
X187445489Y-131015114D02*
X187516917Y-130943685D01*
X187516917Y-130943685D02*
X187445489Y-130872257D01*
X187445489Y-130872257D02*
X187445489Y-131015114D01*
X186874060Y-130300828D02*
X185945488Y-130300828D01*
X185945488Y-130300828D02*
X186445488Y-130872257D01*
X186445488Y-130872257D02*
X186231203Y-130872257D01*
X186231203Y-130872257D02*
X186088346Y-130943685D01*
X186088346Y-130943685D02*
X186016917Y-131015114D01*
X186016917Y-131015114D02*
X185945488Y-131157971D01*
X185945488Y-131157971D02*
X185945488Y-131515114D01*
X185945488Y-131515114D02*
X186016917Y-131657971D01*
X186016917Y-131657971D02*
X186088346Y-131729400D01*
X186088346Y-131729400D02*
X186231203Y-131800828D01*
X186231203Y-131800828D02*
X186659774Y-131800828D01*
X186659774Y-131800828D02*
X186802631Y-131729400D01*
X186802631Y-131729400D02*
X186874060Y-131657971D01*
D12*
X142285714Y-78931009D02*
X142142857Y-78978628D01*
X142142857Y-78978628D02*
X142095238Y-79026247D01*
X142095238Y-79026247D02*
X142047619Y-79121485D01*
X142047619Y-79121485D02*
X142047619Y-79264342D01*
X142047619Y-79264342D02*
X142095238Y-79359580D01*
X142095238Y-79359580D02*
X142142857Y-79407200D01*
X142142857Y-79407200D02*
X142238095Y-79454819D01*
X142238095Y-79454819D02*
X142619047Y-79454819D01*
X142619047Y-79454819D02*
X142619047Y-78454819D01*
X142619047Y-78454819D02*
X142285714Y-78454819D01*
X142285714Y-78454819D02*
X142190476Y-78502438D01*
X142190476Y-78502438D02*
X142142857Y-78550057D01*
X142142857Y-78550057D02*
X142095238Y-78645295D01*
X142095238Y-78645295D02*
X142095238Y-78740533D01*
X142095238Y-78740533D02*
X142142857Y-78835771D01*
X142142857Y-78835771D02*
X142190476Y-78883390D01*
X142190476Y-78883390D02*
X142285714Y-78931009D01*
X142285714Y-78931009D02*
X142619047Y-78931009D01*
X141761904Y-78454819D02*
X141190476Y-78454819D01*
X141476190Y-79454819D02*
X141476190Y-78454819D01*
X140333333Y-79454819D02*
X140904761Y-79454819D01*
X140619047Y-79454819D02*
X140619047Y-78454819D01*
X140619047Y-78454819D02*
X140714285Y-78597676D01*
X140714285Y-78597676D02*
X140809523Y-78692914D01*
X140809523Y-78692914D02*
X140904761Y-78740533D01*
X149976666Y-138954819D02*
X150309999Y-138478628D01*
X150548094Y-138954819D02*
X150548094Y-137954819D01*
X150548094Y-137954819D02*
X150167142Y-137954819D01*
X150167142Y-137954819D02*
X150071904Y-138002438D01*
X150071904Y-138002438D02*
X150024285Y-138050057D01*
X150024285Y-138050057D02*
X149976666Y-138145295D01*
X149976666Y-138145295D02*
X149976666Y-138288152D01*
X149976666Y-138288152D02*
X150024285Y-138383390D01*
X150024285Y-138383390D02*
X150071904Y-138431009D01*
X150071904Y-138431009D02*
X150167142Y-138478628D01*
X150167142Y-138478628D02*
X150548094Y-138478628D01*
X149024285Y-138954819D02*
X149595713Y-138954819D01*
X149309999Y-138954819D02*
X149309999Y-137954819D01*
X149309999Y-137954819D02*
X149405237Y-138097676D01*
X149405237Y-138097676D02*
X149500475Y-138192914D01*
X149500475Y-138192914D02*
X149595713Y-138240533D01*
X163856666Y-118084819D02*
X164189999Y-117608628D01*
X164428094Y-118084819D02*
X164428094Y-117084819D01*
X164428094Y-117084819D02*
X164047142Y-117084819D01*
X164047142Y-117084819D02*
X163951904Y-117132438D01*
X163951904Y-117132438D02*
X163904285Y-117180057D01*
X163904285Y-117180057D02*
X163856666Y-117275295D01*
X163856666Y-117275295D02*
X163856666Y-117418152D01*
X163856666Y-117418152D02*
X163904285Y-117513390D01*
X163904285Y-117513390D02*
X163951904Y-117561009D01*
X163951904Y-117561009D02*
X164047142Y-117608628D01*
X164047142Y-117608628D02*
X164428094Y-117608628D01*
X163475713Y-117180057D02*
X163428094Y-117132438D01*
X163428094Y-117132438D02*
X163332856Y-117084819D01*
X163332856Y-117084819D02*
X163094761Y-117084819D01*
X163094761Y-117084819D02*
X162999523Y-117132438D01*
X162999523Y-117132438D02*
X162951904Y-117180057D01*
X162951904Y-117180057D02*
X162904285Y-117275295D01*
X162904285Y-117275295D02*
X162904285Y-117370533D01*
X162904285Y-117370533D02*
X162951904Y-117513390D01*
X162951904Y-117513390D02*
X163523332Y-118084819D01*
X163523332Y-118084819D02*
X162904285Y-118084819D01*
X155856666Y-105084819D02*
X156189999Y-104608628D01*
X156428094Y-105084819D02*
X156428094Y-104084819D01*
X156428094Y-104084819D02*
X156047142Y-104084819D01*
X156047142Y-104084819D02*
X155951904Y-104132438D01*
X155951904Y-104132438D02*
X155904285Y-104180057D01*
X155904285Y-104180057D02*
X155856666Y-104275295D01*
X155856666Y-104275295D02*
X155856666Y-104418152D01*
X155856666Y-104418152D02*
X155904285Y-104513390D01*
X155904285Y-104513390D02*
X155951904Y-104561009D01*
X155951904Y-104561009D02*
X156047142Y-104608628D01*
X156047142Y-104608628D02*
X156428094Y-104608628D01*
X155523332Y-104084819D02*
X154904285Y-104084819D01*
X154904285Y-104084819D02*
X155237618Y-104465771D01*
X155237618Y-104465771D02*
X155094761Y-104465771D01*
X155094761Y-104465771D02*
X154999523Y-104513390D01*
X154999523Y-104513390D02*
X154951904Y-104561009D01*
X154951904Y-104561009D02*
X154904285Y-104656247D01*
X154904285Y-104656247D02*
X154904285Y-104894342D01*
X154904285Y-104894342D02*
X154951904Y-104989580D01*
X154951904Y-104989580D02*
X154999523Y-105037200D01*
X154999523Y-105037200D02*
X155094761Y-105084819D01*
X155094761Y-105084819D02*
X155380475Y-105084819D01*
X155380475Y-105084819D02*
X155475713Y-105037200D01*
X155475713Y-105037200D02*
X155523332Y-104989580D01*
D13*
G04 #@! TO.C,BT1*
X135500000Y-99050000D02*
G75*
G02*
X132174757Y-98088169I-1310000J1700000D01*
G01*
X150840000Y-98080000D02*
G75*
G02*
X147503354Y-99066530I-2030000J730001D01*
G01*
X130720000Y-94130000D02*
X132160000Y-98080000D01*
X130720000Y-93500000D02*
X130720000Y-94130000D01*
X130720000Y-85040000D02*
X130720000Y-87500000D01*
X132800000Y-82960000D02*
X130720000Y-85040000D01*
X132800000Y-82960000D02*
X136300000Y-82960000D01*
X146700000Y-82960000D02*
X150200000Y-82960000D01*
X150200000Y-82960000D02*
X152280000Y-85040000D01*
X152280000Y-94130000D02*
X150840000Y-98080000D01*
X152280000Y-93500000D02*
X152280000Y-94130000D01*
X152280000Y-85040000D02*
X152280000Y-87500000D01*
G04 #@! TO.C,R1*
X146540000Y-136870000D02*
X153080000Y-136870000D01*
X146540000Y-136540000D02*
X146540000Y-136870000D01*
X146540000Y-134460000D02*
X146540000Y-134130000D01*
X146540000Y-134130000D02*
X153080000Y-134130000D01*
X153080000Y-136870000D02*
X153080000Y-136540000D01*
X153080000Y-134130000D02*
X153080000Y-134460000D01*
G04 #@! TO.C,R2*
X160420000Y-121370000D02*
X160420000Y-121040000D01*
X160420000Y-118630000D02*
X160420000Y-118960000D01*
X166960000Y-121370000D02*
X160420000Y-121370000D01*
X166960000Y-121040000D02*
X166960000Y-121370000D01*
X166960000Y-118960000D02*
X166960000Y-118630000D01*
X166960000Y-118630000D02*
X160420000Y-118630000D01*
G04 #@! TO.C,R3*
X152420000Y-108370000D02*
X152420000Y-108040000D01*
X152420000Y-105630000D02*
X152420000Y-105960000D01*
X158960000Y-108370000D02*
X152420000Y-108370000D01*
X158960000Y-108040000D02*
X158960000Y-108370000D01*
X158960000Y-105960000D02*
X158960000Y-105630000D01*
X158960000Y-105630000D02*
X152420000Y-105630000D01*
G04 #@! TD*
%LPC*%
D14*
G04 #@! TO.C,BT1*
X141500000Y-90500000D03*
D15*
X130515000Y-90500000D03*
X152485000Y-90500000D03*
G04 #@! TD*
D16*
G04 #@! TO.C,R1*
X146000000Y-135500000D03*
D17*
X153620000Y-135500000D03*
G04 #@! TD*
G04 #@! TO.C,R2*
X159880000Y-120000000D03*
D16*
X167500000Y-120000000D03*
G04 #@! TD*
D17*
G04 #@! TO.C,R3*
X151880000Y-107000000D03*
D16*
X159500000Y-107000000D03*
G04 #@! TD*
D18*
G04 #@! TO.C,D2*
X148500000Y-119500000D03*
D19*
X148500000Y-122040000D03*
G04 #@! TD*
D20*
G04 #@! TO.C,SW3*
X170832527Y-108057867D03*
X177332527Y-108057867D03*
X170832527Y-112557867D03*
X177332527Y-112557867D03*
G04 #@! TD*
G04 #@! TO.C,SW2*
X129500000Y-118000000D03*
X136000000Y-118000000D03*
X129500000Y-122500000D03*
X136000000Y-122500000D03*
G04 #@! TD*
G04 #@! TO.C,SW1*
X129500000Y-128000000D03*
X136000000Y-128000000D03*
X129500000Y-132500000D03*
X136000000Y-132500000D03*
G04 #@! TD*
D21*
G04 #@! TO.C,M1*
X159500000Y-90500000D03*
D22*
X159500000Y-87960000D03*
G04 #@! TD*
D19*
G04 #@! TO.C,D1*
X164000000Y-133725000D03*
D18*
X164000000Y-136265000D03*
G04 #@! TD*
%LPD*%
M02*
