G04 #@! TF.GenerationSoftware,KiCad,Pcbnew,9.0.1*
G04 #@! TF.CreationDate,2025-04-26T15:50:14-04:00*
G04 #@! TF.ProjectId,FISH,46495348-2e6b-4696-9361-645f70636258,rev?*
G04 #@! TF.SameCoordinates,Original*
G04 #@! TF.FileFunction,Copper,L2,Bot*
G04 #@! TF.FilePolarity,Positive*
%FSLAX46Y46*%
G04 Gerber Fmt 4.6, Leading zero omitted, Abs format (unit mm)*
G04 Created by KiCad (PCBNEW 9.0.1) date 2025-04-26 15:50:14*
%MOMM*%
%LPD*%
G01*
G04 APERTURE LIST*
G04 #@! TA.AperFunction,SMDPad,CuDef*
%ADD10C,17.800000*%
G04 #@! TD*
G04 #@! TA.AperFunction,SMDPad,CuDef*
%ADD11R,1.270000X5.080000*%
G04 #@! TD*
G04 #@! TA.AperFunction,ComponentPad*
%ADD12C,1.600000*%
G04 #@! TD*
G04 #@! TA.AperFunction,ComponentPad*
%ADD13O,1.600000X1.600000*%
G04 #@! TD*
G04 #@! TA.AperFunction,ComponentPad*
%ADD14C,1.800000*%
G04 #@! TD*
G04 #@! TA.AperFunction,ComponentPad*
%ADD15R,1.800000X1.800000*%
G04 #@! TD*
G04 #@! TA.AperFunction,ComponentPad*
%ADD16C,2.000000*%
G04 #@! TD*
G04 #@! TA.AperFunction,ComponentPad*
%ADD17R,1.700000X1.700000*%
G04 #@! TD*
G04 #@! TA.AperFunction,ComponentPad*
%ADD18C,1.700000*%
G04 #@! TD*
G04 #@! TA.AperFunction,ViaPad*
%ADD19C,5.500000*%
G04 #@! TD*
G04 #@! TA.AperFunction,Conductor*
%ADD20C,0.200000*%
G04 #@! TD*
G04 APERTURE END LIST*
D10*
G04 #@! TO.P,BT1,2,-*
G04 #@! TO.N,Net-(BT1--)*
X141500000Y-90500000D03*
D11*
G04 #@! TO.P,BT1,1,+*
G04 #@! TO.N,Net-(BT1-+)*
X130515000Y-90500000D03*
X152485000Y-90500000D03*
G04 #@! TD*
D12*
G04 #@! TO.P,R1,1*
G04 #@! TO.N,Net-(R1-Pad1)*
X146000000Y-135500000D03*
D13*
G04 #@! TO.P,R1,2*
G04 #@! TO.N,Net-(D1-A)*
X153620000Y-135500000D03*
G04 #@! TD*
G04 #@! TO.P,R2,2*
G04 #@! TO.N,Net-(D2-A)*
X159880000Y-120000000D03*
D12*
G04 #@! TO.P,R2,1*
G04 #@! TO.N,Net-(R2-Pad1)*
X167500000Y-120000000D03*
G04 #@! TD*
D13*
G04 #@! TO.P,R3,2*
G04 #@! TO.N,Net-(M1-+)*
X151880000Y-107000000D03*
D12*
G04 #@! TO.P,R3,1*
G04 #@! TO.N,Net-(R3-Pad1)*
X159500000Y-107000000D03*
G04 #@! TD*
D14*
G04 #@! TO.P,D2,2,A*
G04 #@! TO.N,Net-(D2-A)*
X148500000Y-119500000D03*
D15*
G04 #@! TO.P,D2,1,K*
G04 #@! TO.N,Net-(BT1--)*
X148500000Y-122040000D03*
G04 #@! TD*
D16*
G04 #@! TO.P,SW3,1,1*
G04 #@! TO.N,Net-(BT1-+)*
X170832527Y-108057867D03*
X177332527Y-108057867D03*
G04 #@! TO.P,SW3,2,2*
G04 #@! TO.N,Net-(R3-Pad1)*
X170832527Y-112557867D03*
X177332527Y-112557867D03*
G04 #@! TD*
G04 #@! TO.P,SW2,1,1*
G04 #@! TO.N,Net-(BT1-+)*
X129500000Y-118000000D03*
X136000000Y-118000000D03*
G04 #@! TO.P,SW2,2,2*
G04 #@! TO.N,Net-(R2-Pad1)*
X129500000Y-122500000D03*
X136000000Y-122500000D03*
G04 #@! TD*
G04 #@! TO.P,SW1,1,1*
G04 #@! TO.N,Net-(BT1-+)*
X129500000Y-128000000D03*
X136000000Y-128000000D03*
G04 #@! TO.P,SW1,2,2*
G04 #@! TO.N,Net-(R1-Pad1)*
X129500000Y-132500000D03*
X136000000Y-132500000D03*
G04 #@! TD*
D17*
G04 #@! TO.P,M1,1,+*
G04 #@! TO.N,Net-(M1-+)*
X159500000Y-90500000D03*
D18*
G04 #@! TO.P,M1,2,-*
G04 #@! TO.N,Net-(BT1--)*
X159500000Y-87960000D03*
G04 #@! TD*
D15*
G04 #@! TO.P,D1,1,K*
G04 #@! TO.N,Net-(BT1--)*
X164000000Y-133725000D03*
D14*
G04 #@! TO.P,D1,2,A*
G04 #@! TO.N,Net-(D1-A)*
X164000000Y-136265000D03*
G04 #@! TD*
D19*
G04 #@! TO.N,*
X160500000Y-78500000D03*
G04 #@! TD*
D20*
G04 #@! TO.N,Net-(BT1-+)*
X129500000Y-128000000D02*
X128199000Y-126699000D01*
X128199000Y-126699000D02*
X128199000Y-107800999D01*
X128199000Y-107800999D02*
X130515000Y-105484999D01*
X130515000Y-105484999D02*
X130515000Y-90500000D01*
X170832527Y-108057867D02*
X168000000Y-105225340D01*
X168000000Y-105225340D02*
X168000000Y-96698000D01*
X160651000Y-89349000D02*
X153636000Y-89349000D01*
X168000000Y-96698000D02*
X160651000Y-89349000D01*
X153636000Y-89349000D02*
X152485000Y-90500000D01*
X130515000Y-90500000D02*
X130515000Y-88472821D01*
X137688821Y-81299000D02*
X154466760Y-81299000D01*
X130515000Y-88472821D02*
X137688821Y-81299000D01*
X160651000Y-87483240D02*
X160651000Y-88436760D01*
X154466760Y-81299000D02*
X160651000Y-87483240D01*
X160651000Y-88436760D02*
X159976760Y-89111000D01*
X159976760Y-89111000D02*
X153874000Y-89111000D01*
X153874000Y-89111000D02*
X152485000Y-90500000D01*
G04 #@! TO.N,Net-(R2-Pad1)*
X129500000Y-122500000D02*
X129500000Y-123914213D01*
X129500000Y-123914213D02*
X134886787Y-129301000D01*
X134886787Y-129301000D02*
X158199000Y-129301000D01*
X158199000Y-129301000D02*
X167500000Y-120000000D01*
G04 #@! TO.N,Net-(BT1-+)*
X129500000Y-118000000D02*
X130515000Y-116985000D01*
X130515000Y-116985000D02*
X130515000Y-90500000D01*
X136000000Y-118000000D02*
X130515000Y-112515000D01*
X130515000Y-112515000D02*
X130515000Y-90500000D01*
X136000000Y-128000000D02*
X134699000Y-126699000D01*
X130515000Y-93240000D02*
X130515000Y-90500000D01*
X134699000Y-126699000D02*
X134699000Y-97424000D01*
X134699000Y-97424000D02*
X130515000Y-93240000D01*
G04 #@! TO.N,Net-(R1-Pad1)*
X146000000Y-135500000D02*
X132500000Y-135500000D01*
X132500000Y-135500000D02*
X129500000Y-132500000D01*
X146000000Y-135500000D02*
X139000000Y-135500000D01*
X139000000Y-135500000D02*
X136000000Y-132500000D01*
G04 #@! TO.N,Net-(D1-A)*
X164000000Y-136265000D02*
X154385000Y-136265000D01*
X154385000Y-136265000D02*
X153620000Y-135500000D01*
G04 #@! TO.N,Net-(BT1--)*
X164000000Y-133725000D02*
X168601000Y-129124000D01*
X168601000Y-129124000D02*
X168601000Y-119543950D01*
X157158050Y-108101000D02*
X151101000Y-108101000D01*
X168601000Y-119543950D02*
X157158050Y-108101000D01*
X151101000Y-108101000D02*
X141500000Y-98500000D01*
X141500000Y-98500000D02*
X141500000Y-90500000D01*
G04 #@! TO.N,Net-(R2-Pad1)*
X167500000Y-120000000D02*
X164259000Y-123241000D01*
X136741000Y-123241000D02*
X136000000Y-122500000D01*
X164259000Y-123241000D02*
X136741000Y-123241000D01*
G04 #@! TO.N,Net-(BT1--)*
X148500000Y-122040000D02*
X141500000Y-115040000D01*
X141500000Y-115040000D02*
X141500000Y-90500000D01*
G04 #@! TO.N,Net-(D2-A)*
X148500000Y-119500000D02*
X159380000Y-119500000D01*
X159380000Y-119500000D02*
X159880000Y-120000000D01*
G04 #@! TO.N,Net-(BT1--)*
X159500000Y-87960000D02*
X158650000Y-87110000D01*
X144890000Y-87110000D02*
X141500000Y-90500000D01*
X158650000Y-87110000D02*
X144890000Y-87110000D01*
G04 #@! TO.N,Net-(BT1-+)*
X177332527Y-108057867D02*
X170832527Y-108057867D01*
G04 #@! TO.N,Net-(R3-Pad1)*
X159500000Y-107000000D02*
X165057867Y-112557867D01*
X165057867Y-112557867D02*
X177332527Y-112557867D01*
X159500000Y-107000000D02*
X165274660Y-107000000D01*
X165274660Y-107000000D02*
X170832527Y-112557867D01*
G04 #@! TO.N,Net-(M1-+)*
X159500000Y-90500000D02*
X159500000Y-99380000D01*
X159500000Y-99380000D02*
X151880000Y-107000000D01*
G04 #@! TO.N,Net-(BT1-+)*
X152485000Y-90500000D02*
X152485000Y-88472821D01*
X177332527Y-108057867D02*
X170042867Y-108057867D01*
G04 #@! TD*
M02*
