M48
; DRILL file {KiCad 9.0.1} date 2025-04-26T15:50:14-0400
; FORMAT={-:-/ absolute / metric / decimal}
; #@! TF.CreationDate,2025-04-26T15:50:14-04:00
; #@! TF.GenerationSoftware,Kicad,Pcbnew,9.0.1
; #@! TF.FileFunction,Plated,1,2,PTH
FMAT,2
METRIC
; #@! TA.AperFunction,Plated,PTH,ComponentDrill
T1C0.800
; #@! TA.AperFunction,Plated,PTH,ComponentDrill
T2C0.900
; #@! TA.AperFunction,Plated,PTH,ComponentDrill
T3C1.000
; #@! TA.AperFunction,Plated,PTH,ComponentDrill
T4C1.100
; #@! TA.AperFunction,Plated,PTH,ViaDrill
T5C5.000
%
G90
G05
T1
X146.0Y-135.5
X151.88Y-107.0
X153.62Y-135.5
X159.5Y-107.0
X159.88Y-120.0
X167.5Y-120.0
T2
X148.5Y-119.5
X148.5Y-122.04
X164.0Y-133.725
X164.0Y-136.265
T3
X159.5Y-87.96
X159.5Y-90.5
T4
X129.5Y-118.0
X129.5Y-122.5
X129.5Y-128.0
X129.5Y-132.5
X136.0Y-118.0
X136.0Y-122.5
X136.0Y-128.0
X136.0Y-132.5
X170.833Y-108.058
X170.833Y-112.558
X177.333Y-108.058
X177.333Y-112.558
T5
X160.5Y-78.5
M30
