%TF.GenerationSoftware,KiCad,Pcbnew,9.0.1*%
%TF.CreationDate,2025-04-26T15:50:14-04:00*%
%TF.ProjectId,FISH,46495348-2e6b-4696-9361-645f70636258,rev?*%
%TF.SameCoordinates,Original*%
%TF.FileFunction,Drillmap*%
%TF.FilePolarity,Positive*%
%FSLAX45Y45*%
G04 Gerber Fmt 4.5, Leading zero omitted, Abs format (unit mm)*
G04 Created by KiCad (PCBNEW 9.0.1) date 2025-04-26 15:50:14*
%MOMM*%
%LPD*%
G01*
G04 APERTURE LIST*
%ADD10C,0.000000*%
%ADD11C,0.200000*%
G04 APERTURE END LIST*
D10*
X14019190Y-6950000D02*
X14194549Y-6958588D01*
X14389379Y-6976396D01*
X14491170Y-6989086D01*
X14594317Y-7004477D01*
X14697651Y-7022699D01*
X14800000Y-7043885D01*
X14900194Y-7068167D01*
X14997063Y-7095675D01*
X15089436Y-7126543D01*
X15176142Y-7160901D01*
X15256012Y-7198882D01*
X15327875Y-7240617D01*
X15428695Y-7222479D01*
X15549050Y-7202997D01*
X15683667Y-7184962D01*
X15754677Y-7177359D01*
X15827276Y-7171165D01*
X15900805Y-7166727D01*
X15974605Y-7164395D01*
X16048018Y-7164518D01*
X16120385Y-7167444D01*
X16191046Y-7173523D01*
X16259342Y-7183102D01*
X16324616Y-7196531D01*
X16386208Y-7214160D01*
X16403526Y-7233093D01*
X16425534Y-7260203D01*
X16451960Y-7295608D01*
X16482533Y-7339423D01*
X16516982Y-7391765D01*
X16555035Y-7452750D01*
X16596421Y-7522493D01*
X16640869Y-7601112D01*
X16688108Y-7688723D01*
X16737866Y-7785442D01*
X16789872Y-7891385D01*
X16843855Y-8006669D01*
X16899542Y-8131409D01*
X16956664Y-8265723D01*
X17014949Y-8409726D01*
X17074125Y-8563534D01*
X17105699Y-8724765D01*
X17138204Y-8919069D01*
X17167607Y-9139004D01*
X17179887Y-9256257D01*
X17189880Y-9377128D01*
X17197082Y-9500687D01*
X17200990Y-9626002D01*
X17201100Y-9752144D01*
X17196908Y-9878183D01*
X17187910Y-10003188D01*
X17173602Y-10126229D01*
X17153480Y-10246377D01*
X17127041Y-10362701D01*
X17241991Y-10362586D01*
X17398075Y-10369397D01*
X17589960Y-10383939D01*
X17812313Y-10407018D01*
X18059801Y-10439440D01*
X18327092Y-10482011D01*
X18466497Y-10507354D01*
X18608853Y-10535538D01*
X18753492Y-10566661D01*
X18899750Y-10600826D01*
X18927890Y-10610353D01*
X18958997Y-10622395D01*
X18992479Y-10636943D01*
X19027749Y-10653989D01*
X19064218Y-10673527D01*
X19101296Y-10695548D01*
X19138394Y-10720044D01*
X19174923Y-10747007D01*
X19210295Y-10776431D01*
X19243919Y-10808306D01*
X19259893Y-10825161D01*
X19275208Y-10842626D01*
X19289793Y-10860700D01*
X19303572Y-10879382D01*
X19316473Y-10898671D01*
X19328422Y-10918567D01*
X19339346Y-10939068D01*
X19349170Y-10960173D01*
X19357821Y-10981882D01*
X19365225Y-11004192D01*
X19371309Y-11027105D01*
X19375999Y-11050617D01*
X19372031Y-11780205D01*
X19364837Y-12194112D01*
X19352187Y-12603720D01*
X19332592Y-12981248D01*
X19304562Y-13298913D01*
X19286920Y-13426616D01*
X19266611Y-13528936D01*
X19243450Y-13602399D01*
X19230741Y-13627225D01*
X19217250Y-13643534D01*
X19133402Y-13721668D01*
X19104910Y-13746531D01*
X19072444Y-13773293D01*
X19035525Y-13801838D01*
X18993670Y-13832049D01*
X18946400Y-13863811D01*
X18893234Y-13897007D01*
X18864289Y-13914106D01*
X18833690Y-13931520D01*
X18801377Y-13949234D01*
X18767290Y-13967235D01*
X18731368Y-13985506D01*
X18693551Y-14004035D01*
X18653780Y-14022806D01*
X18611994Y-14041804D01*
X18568133Y-14061015D01*
X18522137Y-14080425D01*
X18473946Y-14100020D01*
X18423500Y-14119783D01*
X18315868Y-14151404D01*
X18156767Y-14190883D01*
X17953761Y-14234497D01*
X17714416Y-14278527D01*
X17583481Y-14299534D01*
X17446298Y-14319250D01*
X17303814Y-14337209D01*
X17156972Y-14352945D01*
X17006721Y-14365994D01*
X16854004Y-14375891D01*
X16699768Y-14382171D01*
X16544958Y-14384367D01*
X16148414Y-14388757D01*
X15584521Y-14385035D01*
X15260282Y-14378429D01*
X14918763Y-14367750D01*
X14568149Y-14352318D01*
X14216625Y-14331450D01*
X14117055Y-14326226D01*
X13992887Y-14316147D01*
X13847966Y-14299661D01*
X13768924Y-14288532D01*
X13686136Y-14275220D01*
X13600082Y-14259530D01*
X13511242Y-14241270D01*
X13420098Y-14220245D01*
X13327129Y-14196262D01*
X13232817Y-14169126D01*
X13137642Y-14138645D01*
X13042084Y-14104623D01*
X12946625Y-14066867D01*
X12898469Y-14039110D01*
X12844150Y-14005796D01*
X12784949Y-13967443D01*
X12722142Y-13924571D01*
X12657011Y-13877699D01*
X12590833Y-13827347D01*
X12524887Y-13774033D01*
X12460453Y-13718278D01*
X12398809Y-13660601D01*
X12341235Y-13601521D01*
X12289010Y-13541557D01*
X12243412Y-13481228D01*
X12223498Y-13451090D01*
X12205720Y-13421055D01*
X12190239Y-13391189D01*
X12177214Y-13361556D01*
X12166806Y-13332222D01*
X12159173Y-13303251D01*
X12154476Y-13274708D01*
X12152875Y-13246659D01*
X12152875Y-11024159D01*
X12153489Y-11013042D01*
X12155304Y-10999716D01*
X12158282Y-10984452D01*
X12162383Y-10967522D01*
X12167570Y-10949196D01*
X12173804Y-10929746D01*
X12181045Y-10909444D01*
X12189255Y-10888560D01*
X12198395Y-10867366D01*
X12208427Y-10846134D01*
X12219311Y-10825134D01*
X12231010Y-10804638D01*
X12243483Y-10784917D01*
X12256693Y-10766242D01*
X12270600Y-10748885D01*
X12285167Y-10733117D01*
X12305947Y-10713590D01*
X12328626Y-10694722D01*
X12353244Y-10676551D01*
X12379838Y-10659117D01*
X12408447Y-10642457D01*
X12439111Y-10626612D01*
X12471867Y-10611620D01*
X12506755Y-10597518D01*
X12543814Y-10584347D01*
X12583081Y-10572145D01*
X12624597Y-10560951D01*
X12668399Y-10550803D01*
X12714527Y-10541740D01*
X12763018Y-10533801D01*
X12813913Y-10527025D01*
X12867250Y-10521451D01*
X12804230Y-10446397D01*
X12744231Y-10369987D01*
X12687366Y-10292104D01*
X12633750Y-10212632D01*
X12583496Y-10131455D01*
X12536718Y-10048456D01*
X12493530Y-9963520D01*
X12454045Y-9876529D01*
X12418378Y-9787368D01*
X12386643Y-9695920D01*
X12358953Y-9602069D01*
X12335422Y-9505699D01*
X12316164Y-9406693D01*
X12301293Y-9304936D01*
X12290922Y-9200310D01*
X12285167Y-9092701D01*
X12283316Y-8968781D01*
X12285911Y-8814062D01*
X12295243Y-8636605D01*
X12303154Y-8541869D01*
X12313609Y-8444472D01*
X12326896Y-8345421D01*
X12343302Y-8245724D01*
X12363114Y-8146389D01*
X12386618Y-8048424D01*
X12414101Y-7952835D01*
X12445849Y-7860631D01*
X12482151Y-7772820D01*
X12523292Y-7690409D01*
X12539444Y-7662724D01*
X12557849Y-7634306D01*
X12601186Y-7575683D01*
X12652845Y-7515362D01*
X12712365Y-7454160D01*
X12779288Y-7392899D01*
X12853155Y-7332399D01*
X12933506Y-7273478D01*
X13019881Y-7216958D01*
X13065185Y-7189854D01*
X13111822Y-7163657D01*
X13159737Y-7138470D01*
X13208870Y-7114396D01*
X13259165Y-7091537D01*
X13310564Y-7069995D01*
X13363010Y-7049872D01*
X13416446Y-7031273D01*
X13470814Y-7014298D01*
X13526057Y-6999050D01*
X13582117Y-6985632D01*
X13638937Y-6974146D01*
X13696459Y-6964695D01*
X13754626Y-6957382D01*
X13813381Y-6952308D01*
X13872667Y-6949576D01*
X14019190Y-6950000D01*
D11*
X12413652Y-14700240D02*
X12413652Y-14500240D01*
X12413652Y-14500240D02*
X12461271Y-14500240D01*
X12461271Y-14500240D02*
X12489842Y-14509764D01*
X12489842Y-14509764D02*
X12508890Y-14528812D01*
X12508890Y-14528812D02*
X12518414Y-14547859D01*
X12518414Y-14547859D02*
X12527937Y-14585955D01*
X12527937Y-14585955D02*
X12527937Y-14614526D01*
X12527937Y-14614526D02*
X12518414Y-14652621D01*
X12518414Y-14652621D02*
X12508890Y-14671669D01*
X12508890Y-14671669D02*
X12489842Y-14690717D01*
X12489842Y-14690717D02*
X12461271Y-14700240D01*
X12461271Y-14700240D02*
X12413652Y-14700240D01*
X12613652Y-14700240D02*
X12613652Y-14566907D01*
X12613652Y-14605002D02*
X12623175Y-14585955D01*
X12623175Y-14585955D02*
X12632699Y-14576431D01*
X12632699Y-14576431D02*
X12651747Y-14566907D01*
X12651747Y-14566907D02*
X12670795Y-14566907D01*
X12737461Y-14700240D02*
X12737461Y-14566907D01*
X12737461Y-14500240D02*
X12727937Y-14509764D01*
X12727937Y-14509764D02*
X12737461Y-14519288D01*
X12737461Y-14519288D02*
X12746985Y-14509764D01*
X12746985Y-14509764D02*
X12737461Y-14500240D01*
X12737461Y-14500240D02*
X12737461Y-14519288D01*
X12861271Y-14700240D02*
X12842223Y-14690717D01*
X12842223Y-14690717D02*
X12832699Y-14671669D01*
X12832699Y-14671669D02*
X12832699Y-14500240D01*
X12966033Y-14700240D02*
X12946985Y-14690717D01*
X12946985Y-14690717D02*
X12937461Y-14671669D01*
X12937461Y-14671669D02*
X12937461Y-14500240D01*
X13194604Y-14700240D02*
X13194604Y-14500240D01*
X13194604Y-14500240D02*
X13261271Y-14643098D01*
X13261271Y-14643098D02*
X13327937Y-14500240D01*
X13327937Y-14500240D02*
X13327937Y-14700240D01*
X13508890Y-14700240D02*
X13508890Y-14595479D01*
X13508890Y-14595479D02*
X13499366Y-14576431D01*
X13499366Y-14576431D02*
X13480318Y-14566907D01*
X13480318Y-14566907D02*
X13442223Y-14566907D01*
X13442223Y-14566907D02*
X13423175Y-14576431D01*
X13508890Y-14690717D02*
X13489842Y-14700240D01*
X13489842Y-14700240D02*
X13442223Y-14700240D01*
X13442223Y-14700240D02*
X13423175Y-14690717D01*
X13423175Y-14690717D02*
X13413652Y-14671669D01*
X13413652Y-14671669D02*
X13413652Y-14652621D01*
X13413652Y-14652621D02*
X13423175Y-14633574D01*
X13423175Y-14633574D02*
X13442223Y-14624050D01*
X13442223Y-14624050D02*
X13489842Y-14624050D01*
X13489842Y-14624050D02*
X13508890Y-14614526D01*
X13604128Y-14566907D02*
X13604128Y-14766907D01*
X13604128Y-14576431D02*
X13623175Y-14566907D01*
X13623175Y-14566907D02*
X13661271Y-14566907D01*
X13661271Y-14566907D02*
X13680318Y-14576431D01*
X13680318Y-14576431D02*
X13689842Y-14585955D01*
X13689842Y-14585955D02*
X13699366Y-14605002D01*
X13699366Y-14605002D02*
X13699366Y-14662145D01*
X13699366Y-14662145D02*
X13689842Y-14681193D01*
X13689842Y-14681193D02*
X13680318Y-14690717D01*
X13680318Y-14690717D02*
X13661271Y-14700240D01*
X13661271Y-14700240D02*
X13623175Y-14700240D01*
X13623175Y-14700240D02*
X13604128Y-14690717D01*
X13785080Y-14681193D02*
X13794604Y-14690717D01*
X13794604Y-14690717D02*
X13785080Y-14700240D01*
X13785080Y-14700240D02*
X13775556Y-14690717D01*
X13775556Y-14690717D02*
X13785080Y-14681193D01*
X13785080Y-14681193D02*
X13785080Y-14700240D01*
X13785080Y-14576431D02*
X13794604Y-14585955D01*
X13794604Y-14585955D02*
X13785080Y-14595479D01*
X13785080Y-14595479D02*
X13775556Y-14585955D01*
X13775556Y-14585955D02*
X13785080Y-14576431D01*
X13785080Y-14576431D02*
X13785080Y-14595479D01*
M02*
